<mxfile host="app.diagrams.net" modified="2022-07-17T20:59:53.131Z" agent="5.0 (X11; Linux x86_64) AppleWebKit/537.36 (KHTML, like Gecko) Chrome/91.0.4472.114 Safari/537.36" etag="Nb4u05mQ7edhy-68N4CM" version="20.1.1" type="github">
  <diagram id="D9DeFSmUjzE75XPWIQbR" name="Page-1">
    <mxGraphModel dx="1232" dy="666" grid="1" gridSize="10" guides="1" tooltips="1" connect="1" arrows="1" fold="1" page="1" pageScale="1" pageWidth="850" pageHeight="1100" math="0" shadow="0">
      <root>
        <mxCell id="0" />
        <mxCell id="1" parent="0" />
        <mxCell id="4l1OQndtO7_gk13cfOr1-11" style="edgeStyle=orthogonalEdgeStyle;rounded=0;orthogonalLoop=1;jettySize=auto;html=1;exitX=1;exitY=0.5;exitDx=0;exitDy=0;entryX=0;entryY=0.5;entryDx=0;entryDy=0;" edge="1" parent="1" source="cbM6A1yNYQYUW-RANY35-12" target="cbM6A1yNYQYUW-RANY35-6">
          <mxGeometry relative="1" as="geometry" />
        </mxCell>
        <mxCell id="cbM6A1yNYQYUW-RANY35-12" value="" style="rounded=0;whiteSpace=wrap;html=1;" parent="1" vertex="1">
          <mxGeometry x="140" y="163" width="114" height="180" as="geometry" />
        </mxCell>
        <mxCell id="cbM6A1yNYQYUW-RANY35-3" value="SOURCE" style="text;html=1;strokeColor=none;fillColor=none;align=center;verticalAlign=middle;whiteSpace=wrap;rounded=0;" parent="1" vertex="1">
          <mxGeometry x="165" y="349" width="60" height="30" as="geometry" />
        </mxCell>
        <mxCell id="cbM6A1yNYQYUW-RANY35-5" value="" style="shape=image;verticalLabelPosition=bottom;labelBackgroundColor=default;verticalAlign=top;aspect=fixed;imageAspect=0;image=data:image/png,iVBORw0KGgoAAAANSUhEUgAAAEAAAABACAYAAACqaXHeAAAABmJLR0QA/wD/AP+gvaeTAAAOW0lEQVR4nO2ba5BURbLHf3nqdAMDsgQaovhYBO9duMhjRQVEYBBXReWlgisGynO87ooPRMAFZOQlvlaUu3GXxwIKLoao4IAoijK8ZFdFAUVxQy+KwFX3KjqIDEx3/e+HPgPj0DN0Dzpfln/EieiuysrKzM6qzMpTDcdxHMdxHP/CsOqe8Izf6XwfMNmMXyNcJEXSxCYZY3ZOtzerU55qNUCj36m1jDeAWhWQ7A8C2m+fbpurS6aguiYCCMXdoadW6HkiOMAp8tSXp36YpEGYZF7oqeUSjKxWmapzskB0AgiSTNk2274s23d2niYFAQOAztUqU3VNdPYw1XXiNCeKt33LJ+X7P27Idif2OXFa6wGqV11yHbMB2uQplgld/ADNnMecZxuLLHkEQb5559nmPCRr0CwTnrn5OmYPrpoB8hW0HqK7Ww3R7oTnQKuh2tR6iHpWNiQuejqB82yqiMaJTU4QJKiUV8vB6t5qqDbt2cnBVkO0q9UQ3UW+qqRL9lEgX8G5O5iNMTBqKQFiAILZyYPcsWW+7Ut1yc4bQmcvhgFXAwqMi9+ebYXpWP96sDoZFAKGsdg80zfOsVWl/W3ylKMEj2LkRU1JiEIpzHnnDIaSbz4bdbIzQL6CCz5jlmCQwfdmXHPmXl7bXodbDB4kFd4+knjQjPoRXak7FyNGvzXPHqtsivMH6jbgAaBm1PSBib9gfO1hVMSvGDG6diP+tO9TLsF4FqiNmPdWIwZnY4SsDNB2oEaYeAjYF4gr3njC1hwS/CY1d8ZCoEW5YbtMzEwYM9+aZ19kNM8QNSBBnsHNwGnlBN7qPf3+/qRtKW278CZ18vAiRh2DkRvm2UOZ6pSVAS66SbuBUzG6rZtnL5fv7zZMNfYWMQToakYRnsVuBy8WFlri9r+pgeCKQHSWaI7RCKgbDS1CfGrGVqBQxkuPtbMvc3MVJs6kO0Yvg3oYKx3MKpxnxeXnvvAmXRrACmD3uifstPL9x2yA3FyFOoMDgLfPqVVYaIlMxt29Th19wN1ANzLPOxKI5TgeeqSdrctCvv1AYJ9TI1P5Mt45Cwst4cRmJ8LgNG49Gv3otWo8cr2WmbHGie5OmBNrnRjhPO1NNNgbJ743TtxEA+dpH8LdTqxzwhz0cEnWjlyvpSNW66yjKnI6/+lEGIotmSoPWS6BS2/QVYKlQLH3tH1t4eF1WBZj1up6GTOAE4D9JqbHAh7J72BfZTJP/nqdfFCMAIaR2gz3YuRN6WBPp6O/7Ho19wFvAbUwer66wAoy1SnrMHj59fozqc1pa3ENziu/Hset1VhgYvT1We8ZPrmzfZ7tPAD563RmUkwDegMC7p3Y0SaVpenWTTVUjzeBlsDslxfa0GzmyDp5iH3PcCc+dKJ5nf3cXLZvwhrdG4qJoVDouW/CRfStqvIA+RfZjgkXcU0Io0OhUEycsFpjy9K4ugx1omUIH/mQO7KdI2sDLF1qPzjPA85D4OlS2j5pra4P4D4HPoR+4ztbvpkpW/7lYWYa39EeCEV/l0qkJkxaresOKSAudh4swdRXDiVgmaNK6aMTJzqBM74HuH+tGoeeGaEg9Iwb0yn9Wj0WjOlsf43B+FBYCLMeijbGQHzvBKFxUlX4VskAoRgUpvL65wFCz+NOnODEs6M6c39VeGaCkR2Z5MRiJ05APBbJ8lwoCJMMAmW9p2VtgL5Xq4vzNHee3fXrs/TRQrUPPVfGRHFgDP8p3L4imJlckmGh2B+K7o+t0kVmLHOez5xo9ttrs68lZL8JimFO4MSMmTOtxIl7nMDE43cdw4aXKYZ3tV0h/Cma8+5FiywZeOY6QeCPnp+UR0YuM6CX6nmjmYlegpGI4iDOWR1uRiUBOwGzEhrectnhOD+4j+qXlLAIUlUgYHWihD5/fdH2lNLc2EvpvGU3xvz9IfcuWmQHy9I9ucQMYNZKNSgJ2A0krYTT18/ABZ7tQFww1WBJ8gDbnnrJio6mW4UeMKCXWg/srqcG9tBO8+xxSd4IPCOdR4Fn5LxF9oUCrnQidGJ9WeUBfDG3O8/FzhNGT9eajtvL0jif9mnokow64SATytOVYugl9mUoNjgRCxzdFjxv/xsmGe08hJ57nOfv8RjfDeyhHQN6aMGgq9QqKwMMvkoXhEnecNAvKmP94MQ7oWdOALnzltp0gNDTKRSE4ojMKxCtXarv2lBc65Rq+5EBUkuJuQVmpU9MdIzcuX95unLGeyEUhJALMGepTTPoGoh5DjY5UezEGaG4ITA2DOqh89LpmvZwEoPJErWAuUoyuWFbtuenOWMHcA4Cwfo0jJsg8D5V/3MpUzcpb4DymLnU1t18lQAaVkbnxBvRx+albXMKbBWwCqBPH7l6+2gSBIwBbnRiEnB5GjmPROA5H+BAkhF/WWHf8FI6Kgg9vwSIJ8oXOWXO0xigJEz1xVLHk8apUJWKFK6CskX59nR08YCPvQdBo3Q8FqXqjv/4fW8N1wFuBC5IR5d2CTgRcwIX54hzdzm6uk7A93xXtv3Oq2joRC0nvppTYHvnFNheJ750IufW33BqmfFH/LrDLlPHqH13ZXT1DvJttMTqUgniIT9E4+Pp+tN6QCgEUONA5VGidHB5D/WeJmGq8ZBnhOIToIGPcTaklItouPPyctEg9e3JMmMrnf9oiMan1SUtD+c5CNSOOXKACvNrJ4qAk/gF9YBDUSCWTK1/oP2ISyPl/KExTYA10TzpsBsxv049xpeR5wiUxKnnUsuq8lBXRK3Ie0rSdac3gHgTuEwJHrmnqyZ9XJ9PFqWp5YfiM+AkUuv9qzLtTdJGeMDKbISlbv3Aq1app6XbBDnI2WFq1KfpxuTnK9i3hrOcZ1w0/G/p6NIawIwxgacj0B+j/7/tofgPl2gbYlPgmD/pFXsdIBTvA22ADmUnCBR5gNF/yqu2AGBMV90gYwFpDHA0pKOLGxdKILG1tG3sJcr10B9ofXAdTWMBOZEn/uBT0eAIpN0Ep75iGx20CzzznWeH89R0ntZODLAEr43tojsjRVdHMbvXjwRO0iRKXg5HhySfOJ/qO0TnK44EP+KXhi4QvaNNsBBg3MW6wzyvO88g5znXeXKcZ2eQ5CkH7aa+YhvT8a5wH5m40t4DbgTI76a6HKApoidwDzBlckc9HSZYbiEJjPYrVujky6JsMFrnEB42QO0knxxMuewxe8CqF3WKF22BkljA8sld1aDEcz9giKnACzVDPhy90r5Lw+7YMCFXz07MlSbmKh+gcJleKFwmFS7Vgz/5ZBVg1TI9XLhMWr1MSwAmdta4ibnSxM56LlteWZ8GwyTTI5fMm9FGsZiYGqWkw9Yt1ZnZ8ssWGxarUUzcGqZi+8P5uQqdyItkejxbflkb4J61rAnFB6E49dscruzQ3TY4scyJms4zTcq+KJEpJJkc05yo4aDgou62rnaC7qE4PRRb/7DWVmfLM2sDGCYXnb9j4uqIyW2h2BtC740FjD0aj6ri7QLujYmeoSgikTpZBsY1UaY3pyo8q1QSCzzfOA9BktoAbXvYdgd5DhTAfe8U6Pqq8K0M776gGxyMjwqjQ9v3tk8BgiR1oujyf1Xhm7UBHmqp2jEY6VLr/vXS9nN72tMh3BsKCz1PbVmiqariO/uykGRblmiUE0+GqbdLY9v0sGdK+x287gQO7pnRRjnZ8s9awNo5TAvEr0Lxnq/H7LJ9LXvapFCMi1xy1ActeXbrMWyMHzynX36whMVOTHUpw45t1cumlKU5Ic5MB1udaJqM82i2c2S1Yf25rXqaWELq1dj5t7xt76ej++g5XYcxi9SrsWLBf8UdDzfu+eOLURVh6zM6JYwxAnErUAMokjG0ae/Dv3xZzGivFiR5E6hp0D3vTVuWqU5ZGWD2edqM0dKM2wa/maoKVYRtz+ismOMxQfeoyQMbEC8g1gdxPtl/gD3xOpgroZ5PcDaplLon0I7D3lngAm4/K1rzFcp2vm4HpgHvDnnLzs1Up4wNMKONYnEoNvA5janZN91FpzT47Dl18J6RZnQjukqTAUoMlks82KiPvXF0csjPVdhoL/sFVrsxNTKVLysPmH+udgENBZff+I6tKN8/N1c13V7yTHTB2C/x7Bl1KehSaIkvntfJCU83IFdwDkYjSosZRhFiu5G6IOE8y0/ta/9clatwx7dcGTiuNviFxMo9Rcy67WM7kEa2y4GXMHb232hnZKpTVgZY2FojZKkrMoIrbnj38BWZBW3UIvAspEyNLsIuYGYYMrPvW5ldkXnmfJ2SSJAHDAVOL9f9XpCk32+3HN5/Fp6rjhLLgTrAXf3etT9mqlNWBshHQbNWzAYGAvvk6dPgRF795zf8XsZUoCbiQ8FUM040GKzDBilGjLpui1Warj7TSsMFU0htfgAfAHPM+NqLUQZNgf0GI/l3/tv/g64Gz0XKz/lwM0Pz+ZkuSZUa4ZwWzMIYFDV5og3LxIx4nOHdN9oPhxRqoc6BcRvRNTkvuvR9L33K+nxLXezhNVJFsee9mF6W9smWqp0Dj5LyDIAE0YnWjLnvbWZINspDFW+L56Og1TncKeNOg1OAzRLjr36/4vDzfAtNNRgFzOn9ng1OR7O4heYCA0xM7vW+VZhSL2mp7oIJiJakSmjTNr/Po9kq/5Mgn8yyvaUt1L6guVRwjtIWJgAKmuudgubSkv9Q20x4PtNH7uhUleOYU9VMre72szW6Kts0ndHyUeCgqROqXcy2THhmGuoqQ7XdFr/iYysKxS4ncto1T700KYsLm9HEeWo5sfM3//MzVHIqQLX+XyD0rBb0I8mYFU00KicnVao+IOIqYVwkTNZn+mNBtf5lZuWv1DKEDRIVndr24WjX5cP0Z4yfA9X6l5lLPrItIXR2YoUTRaWvvJz42sHLztOpOpU/juM4juP4l8f/A/388E0E89wSAAAAAElFTkSuQmCC;" parent="1" vertex="1">
          <mxGeometry x="147" y="194" width="100" height="100" as="geometry" />
        </mxCell>
        <mxCell id="cbM6A1yNYQYUW-RANY35-16" style="edgeStyle=orthogonalEdgeStyle;rounded=0;orthogonalLoop=1;jettySize=auto;html=1;exitX=1;exitY=0.5;exitDx=0;exitDy=0;entryX=0;entryY=0.5;entryDx=0;entryDy=0;" parent="1" source="cbM6A1yNYQYUW-RANY35-6" target="cbM6A1yNYQYUW-RANY35-13" edge="1">
          <mxGeometry relative="1" as="geometry" />
        </mxCell>
        <mxCell id="cbM6A1yNYQYUW-RANY35-6" value="" style="rounded=0;whiteSpace=wrap;html=1;" parent="1" vertex="1">
          <mxGeometry x="314" y="163" width="114" height="180" as="geometry" />
        </mxCell>
        <mxCell id="cbM6A1yNYQYUW-RANY35-8" value="ETL&lt;span style=&quot;color: rgba(0, 0, 0, 0); font-family: monospace; font-size: 0px; text-align: start;&quot;&gt;%3CmxGraphModel%3E%3Croot%3E%3CmxCell%20id%3D%220%22%2F%3E%3CmxCell%20id%3D%221%22%20parent%3D%220%22%2F%3E%3CmxCell%20id%3D%222%22%20value%3D%22Source%22%20style%3D%22text%3Bhtml%3D1%3BstrokeColor%3Dnone%3BfillColor%3Dnone%3Balign%3Dcenter%3BverticalAlign%3Dmiddle%3BwhiteSpace%3Dwrap%3Brounded%3D0%3B%22%20vertex%3D%221%22%20parent%3D%221%22%3E%3CmxGeometry%20x%3D%2250%22%20y%3D%22340%22%20width%3D%2260%22%20height%3D%2230%22%20as%3D%22geometry%22%2F%3E%3C%2FmxCell%3E%3C%2Froot%3E%3C%2FmxGraphModel%3E&lt;/span&gt;" style="text;html=1;strokeColor=none;fillColor=none;align=center;verticalAlign=middle;whiteSpace=wrap;rounded=0;" parent="1" vertex="1">
          <mxGeometry x="341" y="349" width="60" height="30" as="geometry" />
        </mxCell>
        <mxCell id="cbM6A1yNYQYUW-RANY35-9" value="DATABASE" style="text;html=1;strokeColor=none;fillColor=none;align=center;verticalAlign=middle;whiteSpace=wrap;rounded=0;" parent="1" vertex="1">
          <mxGeometry x="489" y="349" width="90" height="30" as="geometry" />
        </mxCell>
        <mxCell id="cbM6A1yNYQYUW-RANY35-11" value="" style="shape=image;verticalLabelPosition=bottom;labelBackgroundColor=default;verticalAlign=top;aspect=fixed;imageAspect=0;image=data:image/png,iVBORw0KGgoAAAANSUhEUgAAADAAAAAwCAYAAABXAvmHAAAABmJLR0QA/wD/AP+gvaeTAAAD8UlEQVRoge2YTWhcVRSAv3MnaSY/SqlSNEVTartppBZN8Ye2aYwTNUh3jQqCKEoWbqKWtO6yakmoNOBWFF0EaSsFu3CKiROjRUu7aaOpolQ0hEhpQQ1pJpP37nExVUnnzcx7uS9DC/NtZjj3/N775t1zBqpUqXJbI/G4UeHg6HaD6VLlMYEtQDPQCPjANYEZFc4ZOOklvx5nYMDGEdm9gP2j20xCRoDWsCaKnlYv8RLvdlx1DZ9wsh441WD8Nd8BD0QxE2SzEd2lqU0fMj6uLikYF+OahcZdwIaV2KrweE12Z5dLfHAsQOW/5Ges0VaLbQEmw9pbeMIlPrgWYPXO/DdJc/ipKQZTv6NyPLwDucMlPkCNq4M8+gzvjG4lJ/OI7ovHZzhiKoANxsoPsXmLgNMjdCvgtGd2qHMYGC6lY/rH+hCOltLRibo+dJlOFmQStYdlT+5kSf/h060oSdAdiHyqE8nXSimWPoGDmc1GdT/oTmAj+dagkgiqR3Us+YV0Zn8LUih6Aon+L/catRdAe8m3CZVO/l+aSNBbbDG4gLfHWlR0BGhYrazySLiGTvT5YkuBBZhafYtK7Ljqrzc+y8XapJnGe4IWgk9ApdspsXD8aa137EYa28pqG+/hQHGBpC+zlojd5QqYN8gLHHn6ip5pWg8aZsO2BAkLC0h624lt0FmGRWUa5X1recgbfPI0AL43DDSVtRZZFyQueI0mMPdGbNB/EuSQr94oQ6lZkFDmqhi+qjuC6ouholitDxIXFKCq6yIcwIi9vvgq73UvhjXQM03r8XJ7mDD9iD4S1g7Ra0HiggJEyWqI/BUyWm9eZrDb028amvH9A8Be4D5KTXreEvkNijqImdkgadBNHFjpTVhV+wYDnZ5matvwvTTIXREziobxLwSKbxb4Yn4u50uUswylLmmGJAlzYtWThwXql6aCFgrfQpev/gjMl/Kmwvd567oulJYYEixHWtpYClooLOB4j69wtozDfIHKRufUyuNh7aFii4E3saDHQrk2q96OeyC90rF0vngKAVj0E2Bm1dIqTRa4BPoRxrZJe/aDUsrB88Bg6i85MPa6wmdFdcozLO2Lb67QNjRFHwF/sPNzC50KGeD6aieyUpx6noBZNirOp3SrzsShqWQBM4i2grkfuBiX00oWkJbduSlpX5hG9ERcTt3+S1OZi9CUPauZNQ9Sm/gb3/b8b++GWwFivyVM65qnGSOT+Mvm+Gmn+Dg+QrI7NwUS7tYuZA5NnHKJD3H8Bhqzr4B+HNHqMshz0jH/h2v42GZfHa/dAWYfwqMILSh3A3Ugc6heQfgF9BwmkWZ24bz04McVu0qVKrcx/wCMzkVJG0VvSgAAAABJRU5ErkJggg==;" parent="1" vertex="1">
          <mxGeometry x="337" y="210" width="68" height="68" as="geometry" />
        </mxCell>
        <mxCell id="cbM6A1yNYQYUW-RANY35-20" style="edgeStyle=orthogonalEdgeStyle;rounded=0;orthogonalLoop=1;jettySize=auto;html=1;exitX=1;exitY=0.5;exitDx=0;exitDy=0;entryX=0;entryY=0.5;entryDx=0;entryDy=0;" parent="1" source="cbM6A1yNYQYUW-RANY35-13" target="cbM6A1yNYQYUW-RANY35-18" edge="1">
          <mxGeometry relative="1" as="geometry" />
        </mxCell>
        <mxCell id="cbM6A1yNYQYUW-RANY35-13" value="" style="rounded=0;whiteSpace=wrap;html=1;" parent="1" vertex="1">
          <mxGeometry x="489" y="164.5" width="110" height="180" as="geometry" />
        </mxCell>
        <mxCell id="cbM6A1yNYQYUW-RANY35-14" value="" style="shape=image;verticalLabelPosition=bottom;labelBackgroundColor=default;verticalAlign=top;aspect=fixed;imageAspect=0;image=data:image/png,iVBORw0KGgoAAAANSUhEUgAAABgAAAAYCAYAAADgdz34AAAABmJLR0QA/wD/AP+gvaeTAAACKUlEQVRIiWNgIAHUbanomX96vispepiIVdiyqy7y8tNLRddeXVu0f/9+Fqpa0LKzxerMvdPL/vz+w/jg/QOJw3+OHKGaBX3H+jivPT1/4O+fvwwMDAwMLEwsDMcfHTfvO9S3iCoWPHh+69Tnb59ZYXwWZkjoHLx3KHbuibluFFnQvr1B4eHL+zrIYsyMzAwMDAwMv/7+Yrj+5sZCiix49f3N8n///qNqYGSEs6++vCox+9TsILItePHhuTG6GMwHMPD0w9M6sixoONog9uX7F1Z0cWYm1BR65+1dHXQ1RFnA+PlXJMP//xjizMyoWt5+e8uML/PhtOD7nx8m2MSZGZgxxH7++alBsgV///wRwSbOyISp5c//P5IkW8DKzPYOmzgzI6aW///+M2JRit8CdhaWK9gtwAwiDjaOCyRbwMX0ZxK24GBkQHUsCxMLAwcTxyGSLSh17/kqyCPwFV38H8M/FL6KiMqbWJPY5yRbwMDAwKAootiELvbz908Uvrygwgp8ZuC1oMGrvUuQTwjFF19/I7gy/DI/9H/rFpJtAQMDA4OenJYjMws0YhkZGH7/hRTbrMysDCayxhmOjo5/KLKgxKHutImieT4TEyMDGzMrgwAbPwMjAyODo5LTnHTzdIKlKc70iw66d7d23X9yq1RfQpeBg0/gfLx1ihGxeokGa1ZP279399IHpOghutJnYGBg4Obg3MzKyvaSZhZwsHCcY2Zi+UCKHgCZfqw4XxBR3QAAAABJRU5ErkJggg==;" parent="1" vertex="1">
          <mxGeometry x="504" y="213" width="60" height="60" as="geometry" />
        </mxCell>
        <mxCell id="cbM6A1yNYQYUW-RANY35-24" style="edgeStyle=orthogonalEdgeStyle;rounded=0;orthogonalLoop=1;jettySize=auto;html=1;exitX=1;exitY=0.75;exitDx=0;exitDy=0;entryX=0;entryY=0.75;entryDx=0;entryDy=0;" parent="1" source="cbM6A1yNYQYUW-RANY35-18" target="cbM6A1yNYQYUW-RANY35-22" edge="1">
          <mxGeometry relative="1" as="geometry" />
        </mxCell>
        <mxCell id="cbM6A1yNYQYUW-RANY35-18" value="" style="rounded=0;whiteSpace=wrap;html=1;" parent="1" vertex="1">
          <mxGeometry x="659" y="166.5" width="114" height="180" as="geometry" />
        </mxCell>
        <mxCell id="cbM6A1yNYQYUW-RANY35-19" value="" style="shape=image;verticalLabelPosition=bottom;labelBackgroundColor=default;verticalAlign=top;aspect=fixed;imageAspect=0;image=data:image/png,iVBORw0KGgoAAAANSUhEUgAAAXAAAAF+CAYAAACbE0FPAACAAElEQVR42uy9C5BV1Z03yvjFO6l8zgQzGg0xE1ACxkd8tMijIbagPJXGBgQaFaEbGvp1+t370H3OQcAgD0Htg1aSuWPNJDfQOBXqG1OxMgqnMsnEMrHkDk3iNabkRlNSTqbkS8ylCzl77bvWee313mufs7t7r9PrX7XrnLPPfq3f779+67/WXo8JE4wZM2bMmDFjxoxNmFA1oeozS6oS1y2p7Ju1bF582ZLKWHNkfWrP85b9QrI3/dJhK/3q4Wj6V4ej9ttwOwe383D7GG4O2pJW9vMw/ByI2p8ks/99AH+/g85LWulUshe8lOxJf7eu+ugTSyvjDUvnxVcunRubuWRm4jp0f8OCMWPGjEls8uSqzz4wN3bbA9+Mr29dm0pAoT1y2Lr0Dvz8NC/GSIQPu4IMaIEu/CaPI79LPulrZfZF7UtJ9BxW+uWBLnsgI/CVfXfddHXVFYY1Y8aMjSORvn3inTetmle3fHDDphVHYnUrjr54uBe8BoXyfa7o8n5j4srsx/+LSo6P8gUeCTheAEDRzou4+0n8b7//vAVS9SuO/sOmFYOJZZXxDbffuGrO9ddXfN6wbcyYMa1t8azE5CWV8fUDPfYLUPCGoAimmSiZJ7JRhY06LkldIykSc0vhuirPI3/+dLLXPgXTPQDTvwY1ARlvMGbMWKgt015d2TcrVn/6EBSx9w57iajlHV3zmjUOezWbqDSdWIqRvsc5SUmBkCS+p99oXZfqWzY3VmE8xZgxY2Gxy5bMi93TWpvan3uByG9/jipE3BxRzDdjEE0cXoUBXQB4NZ0oRP/ciF4Q/R/2KnQs+2MYoR9BTS7GfYwZMzbqhl44tsGIEorf75J004Xls2lC1mRheTRd+GyGSXo1o3hF31GJQFt8YZe+WI3aZ1pqU71L5/R91XiVMWPGRsyWVibuaqs9sf+wlX7XU1CjHi8VVQQxKhFKUTs48yKSEyFH+RG+73uqtqdbfDHP3Bu7xoCVft2IuTFjxgKx2yevmLhkbvzBTdVH90Ch+Q0jipaCSAuENfOb6QWSVo+EVaNwS9KebkmEWCDaSeq8ZNSjJwxVM0l69ZTJ36c3/atN1YPb77hx9T0TJlRcbrzRmDFjKnYZGjCD+j1DIbnkGTVHxS8XucIkaqOOysWXfikoepmZ5L0A9dhHiLGkySRpefRGiSq8NI0qtJGz2J1HPXnMC1BjxoxxDfUgyQh3NP1G0qLE0vLRTm0pRKReLzoV+mwr9yDhRctEZJz29VLVq3dL0pJcQyWdnEKrUDNB+3rB8UVzY7cZjzVmzIj2Z5bOjUda15/YAwXiXU8hthT7Z1uK/bcVXkIWBFYl+lV4AZovnJIq5+Ft19HiBgklPXvJpDm1lLS4O6LltpdD7hLZniymicWYsXFlG6sH7yNE25L0lrC8X+QJe6Kojo5UGVUpEniFwiNZTG0g6rNHjUdzUDIqEHDROwPFAU2o1vTgvNg9xquNGStzQ322oWi84tnNTqXLnKS9N8l7gWipCZ4vsRVFuyqjJy2PeVFUR3Na8vZwz+6EXs0sdDOKoD0+8sjJg1OmLLjGeLkxY2VkU7888zo0VwfM9Gd4vT94wkw0XVjeIuUVnSYtj+90k4KlODLSqz1ZVJCovoT1iq79PKOoJ0pUoQAQ3CfJDkq6GNs89CPUtDJp0qTPGe83ZkxTQzPmtdaeSMCM/RflZgpLodte1LvLXn62QM/2cdWoWbHtO2n5a9ZQrlko1ASSUe+mlaQgXUk/OKg3Ob23bF58kckJxoxpZOjlZKQ2VZdE82MLq+tp6Qu8pKXQDU5lciefPU54bcJKQhb1mLEwKpjDpNSXtJbC3C0q7wI87pOUda/04HLAAi+bnivGjGlgrWtOVkMReVe5j3JUbRDM4VIixKh6f2iugFv+Rj2qNIckLY+BRyozIXr1LVf8nRSMKk1aPvube3D5nOX8s2kjN2YspFF3X93p7/iaY0SlOUOh+QSJLiO8Ct30mMjR8hmxy8RZ8jJRZcBNYS5wS7HQsDiRsmjiKz/PEjyXwxtXDK4zOcaYsZAYaufMdAlUEJmkn/mwLdvXYgpJHy8TVZo+vNqFk6rNKCojJ71ecvod1h/ljQJNe784jaoXGKVwOdBr/6OJxo0ZGyObNKnic6inwUA0/YZSJCoTx2KE11LspicYNi+dGjYq6F5nCYa8q44GFY2U5E1+ZVGjNYudRzxaRE+V0eIyag/31Z/5Nlr/0+QoY8ZGydCsgIej4H3uyzjVvtOqg14UZw8UiByQvqRUfaln+ejSp9B2nuROMpX2nu9FZQ5yehpZ2Zwusp4oo8zlgGX/4MorrzdLwRkzNpI27br5X4aZ7k8qy4xxei8AUe+FpGoPk6hg8ie2BwvwJbCyPugygfMQS3lfdx/zuqjO+2LZ6tMJqAj1KHKJloGbMmW+mcrWmLGRsNb1r21I9qbP+5kFT9hUYfnsiRK1/Q9qsRRHY0pe9nFHaapG55Zk7Ux8ThSP6WOFbdeW/KVj0k/kHh4uh1vWpRpMbjNmLCC78csL/m6gBxwX9nrws8KNV4b2064dFTeNJBW7/zHiyGt7LmZiLEteKCS92qctH807CiMtk5Z3F80wcdm6LmWWezNmrBT7whem/m3fpjN7YOb/b99TtQpeAKpGbEnV9SwtyVwqFmc2QdUXgYKIndu+7IFN0vLRmyTq4+WtpY4Lt+tk6LlM/+y2aavvNjnRmDG/bd2Tqq4asNJvKk34X0zvEZV+xpZkOlfVObqj6pFn0vJYZMErAvbZvpxU6MqXtATzwvhZpMHPwhch4xKm/yIa1WtypDFjitay7uQ9MBN9wB1OLZrFLmr7GimZVB3lqDI8PWr7mwQqWkQvElkbs4eAJ3mr3XO6N3LXx1Qdzu/VjKI5l6iXyuTJVZ81udOYMYm1rTuBVnq/pDSwQ9A1TjjBU1Sx3VW17TQqWRNSZY1IPwsGC/p0J6NFXEc2bL7I2RaVl07Tm8uziypjN5tcaswYZWhgDpp0SNY9z3Oq0ajaKjOeA078CIHKCMCojyg8qh7Fqg6tl/WNTsrayLF260B6opQHl8Mttan1JscaM5az7DwmQ/+i3CfYz8RMPpcA87Uwr1evDYV7JBWibOX5TPJ9oyXRtPJCDaq9UPwuP1cmXG6sPlpvcq6xcW3XXjv1ajSUGb0oUorGRL07PPoRJxVehCU57bdJlYEqfvuD++inTE/8lIwqrGLP6fGRVO2CqCpulq0+iKeMuYS4/n5JZXwNdOXLTG42Ns5eVP7bPYet9B/9dCOTrc6SVBEkr0jMq21WZRV29Xk4uKvCJ1XnXFHp3RFV7A0jidaTfl7UjlMun7PAK+YFp7FxY83rX1uD2hKLGoYdFU+XqvyyzGvSJNX+0qptspbHwB8/g1VU29U98My0a0eLjERLWZy5bLkEb5lh+MbK3pZVJmpUqrJJv/2bVRYKjioMdVdcQZ67CozfhRgsH00Zorm25f2pgXJPEK8JqnjzjSg2S4wjLs9+8Yu3mClqjZWnoS5YUAj+21dGLmaei6iPiZ78rhdpFfHc0rlJ0uL+1yqr0qjOt63SE0W110u0CKEbJ1wO9KZfN80pxsqzzTtqf+Jn7g7uCu5R/tzQSYvzsk7xZZ+vNRlVR/9Jmy8UZwhUWcVdZSCQBFPfgl3MHCPjjMsBC/zYiLixsrHHq4/VFnqaqM7ap7pKvMrMdFH5vCKHJb0WlIaSWx4rxqh0KxQ8Z1LUm8K97l/g9ge4vXPYSr85YKVfh8+bSvamXztsgR/lN/Q7s99K/3wgmn4zaV36f+A1zkEx+5NkGLlgpsS0Y7j0nMbgzJI5O+ab3G9M7xeWj7y6MjOyMqow77VilT0paGpIeq0e42dSJq8mDD+TKkmWLEtG5X214f/noTC/Drfvta1NJZbNiz2CVpBZUpW4LqgoD/XDR9dbVhmbt6wyXtcB74Pudzia/hW6v0rEbrjkcxmpPdlqVMCYvuJt2Z8qLxjsNamS3/lGVF/URb3biX21mXpNXmUJppKFBV0yeultJJ5LK+MND3yz/2th4BE9B1q+LrLuxCH4jKcMl0pcFjaEnVEDY1oZihJR5O35ht9jlRnmBZ/K5P+CqC+p0o9ZNm+3Svcz2ZwafCF6N1Z/+tAD8+ILVlf0arGkF4z8J6KFpPvrTz+Hel4YLj3F/ywatGZUwZgWdtPVVVcMbL/0m8N+JxeSrRnpY1Ijae8F1cVvVbr6qbw8pJYAg+n7L/j5vSWV8fVLZiauKwe+F89KTEZNL89H00cO96Imn/HBpbR/PXVNWNj9wCiDMR2is88ORMG/+VrOirdqe1RhQYCoZN6QYlZz8Zo/2+u5Rd370DJwvemXUNSK2pvLmX+UPtTXP9mTfgVicKHcuPQcfCU5pr02FTEKYSy0tmhu7DboqG8led3CZMPFvQZ8SDIaXR1OWpIh2wrd5ZKWwvqUstXYs9vH/XVDR7YsP9Zc8fWaOydMqLh8PPoDmmHyjhtX37Op+sj23Y2//6mmXHr3lPGarhfbUHPZ5MmTTRdDY+GyhXNjFdBB/0yu5OJznUI/q9goZcK0/1F/soUHPM5JRtO/iqxN1SHhMh7Bb2pprT2RyLSbh5xLpbU5LY8mQGE/c8f0EzcWHkNzQMBMeE51ZJ5XhuW2nXpF5arLefkZYWcprOUYdYXbeIK6LZsXX/a8lX45bFz6mopW1BNFoWsjWqR7gpnF0NhY25VXXv95picCZ85rYW8Uy0cU7ndlcq+Z/FRn/hMPXX93Y/WRNcYLirdNDx3tyExsNsZcSnutRBWv7XPFItSn33iAsTG1vvrTe2Srnict7y5hynNTFDOqTzSFqMrMeryJjzL7wK9QL5JyfyE5Woa6JbbUnuhFI0NHnUs/IywVapj52iPTL5zfjv/RlCkLzORXxsbG6qqPNkJnvKTcn9fPXNKiF59RwUsuUQ8W1WlPZYvyZjPk+5tWDCbuuHn1TYb5kbKKyxdX9i/tqzvzYmaKgBHjUjIvueilp6Uw/a1HISIYrfrO0tmxWw33xkbV2te/1qm6qIBwlJqfSflVB3sUMbF/ktMDBovOhiPrU3vMi8nRtTu+XvPV5y2QCphL9S6Air1KVAYfJb2ahXrT56d+Zf4NhnVjo2IDPfYRX+JqeQ3kSCtPns/tUWCxgys8Vyj3arbpBcdXzOk3mSoEFlmbWQDk/aK59BgAlLQ85lAXRd/CJeTYHjO8vvB0QRNZd3KlYdvYqEbenk6tOA900pL1GvBehcXPCjceI/n+sGRe7B7DdOjayT+LuiBCIbzog0v+RGEqU8r6mUuFFzAUNz3tJ2jOfMO2sRGxhXN23JKZWdDycPAo37npphS/b/eTfufRkHRJTPIjp5/dMX3tJMN0eG3R3P77Dm+3/+jFpZ9ZEZPFzHXip8apMiWu+/1d01xnbESsv35oUKVJpJiVVpR6EHjNoSF4SeVV9UZD3SO1ph+3RtH4tQPRT494ro3ppzthlJrnxGsSLdmCzKJeKJa49oj7cl31kS7DsrFALVo31OUZycrftqv13eVEVIptl5zufh4DMKJ2GmaW3uv+9uYvGIb1s2Wzd8zp23z62OH8fPMqQ99FhbjKwtGWz6jf8jHugTz2zyhthmFjgRiKTpVHp3Em5hf2BhA1c/AKAtmkRJbX6uTcAuUPaMpbw67+9nj1kVrUWyhpCeZAEU2UpvBuRfWdTFLkd1GPEZzidzSfmJ4pxkq2xZX90zOzygnFUS0iLrrdUHWhXY8oP0m2yX9QPS9h+nOXkS2ZF6v0s8iC8pQMqkPqLYVurbLBSFzfTv/SzJlirJS2xs8e7pWswOJnhXJF4U0q9NdNqg5j5uwbsMDL0yZVXWXYLT9rW3tyWeYFp8oEalHRoB/xmIVkVFBLVJ333ufi0SgvtNWm9htmjRXXdLIudUgpihb0s01KFqGVTgHqNbubahWYfJZLkdoTvYbV8jY0sdrh7emfKc2nU8rcKVFbbbEIy1ZfXEIg5pGHTy4yzBrzWyW9x7PqF/XR20Q1IlJcDFc5ms/Nz92y7qTp2z2Oao6wsB5Q7tqn2p1QYU57pdHHfub9yd7rAzRfjGHWmLJlugxatrwPtWDyfeGagx7DkpOCAT5J0Ug3tSjnP++Y9tBthtHxZ/UrjmyBvnOR61+qbdZ+FnXwE6Co+C92zkAvSE2YMPWvDavGPC0zWMLy35aX9Fo+zWuIs+q1VaJzuKEozMwYON59OXYbLPDPitqwpf5myeas9zG/imiBE58vRDeuOLrNMGrMO/rePPQTpXlJ/EzpKnoJafkYbswTf8F/betP9hgmjSGbdt38LyfRy3jRy0neAg8qkbTHnOJMTdFrIQqvJkfr0jsmIDEmNdQ3WlbFSxazqref+b29pvbkZRDy+sNmUiBjtKF28eesS69wgwnB9MS8l/BJy0fvqqhHG7nfGRLh57LKuBkxbEzs5NBR3lKe5lVtSD1QPkdFvC3ZgCD7YqTWvLE3Jvbvge3guErzG3fATlShV5WfhSVUp4/A/ovUnnjRMGmMa23rUn38GdzSUgFP+lk1R3He5cM+egTktx0bh8wcEsakVlVV9ZnY5tM/ki4EovC+JRm1laeWTUbVXpYW5kSRL6D8qRlBbIyxRXMT9+Fv7KUvb1RmaLPU39QnVRaljdIr9KSxyajs87BquQEm468Mk8a8bOLEyRP7608PHlZ5qejVVm7ZavORi16i+hns5hY0vzOzZhorGBqZmFmPMCqODFSGtie9Vh+RzYkinGQo7SH+6XPTJlfdaFg05tfQ/OJK625GFZZPk02nnBP+pOTFZzJq+1o39jkLvGIYNJaxyLoTh5QG1HAn5EmrTdJjeYy+9BiRKcg0nzwwN2b6eBsr3vfXn9ijNNgsyommZbNh8iay8lhlSmWqZPz81jUnqw2D4z4KSUWEiyeIVvP2mvI1qviSR7TElMcLz+y9wY/NRD/GgrCFc2MV0Kc+ES6WHZX0Hokqzmjot8lEtqiJ+/+nZgWfcWxXXnn956ET/JdodKRstjTuUGHV1bpVBvzIM8N/GvE2Fmggs/bkgsw7IK8pHVTm/FZtdhE121jyaZOJfNmbPmnYG6e28aFjfUnLx4Acy2MebtWpNC2fg4CoY26buvIOw56xoK2u+mi90iIOKr4b9TniUtQbRSGPLJjRvtiwN84sN1XseaWJdmQ9UFRna5O1jSutXJ+bma029YJhz9hIWaT2xC7l/t7qixWrL7DtZwKsKD5PirHx5ajoxaXqMmeCuU6SluJb86hCdB31GrmGPsG/maYTYyNtye3gJWmzoahHlZd/+51pUz1fppfM6Ter94wXy8yZbNnD3KkvfSyOkLTEa1ZKl5PyM0VsIZOkz5qFGIyNWu1UMtd90lJ4ya6w9mbSYz4VP/ky2WubEZrjxWCV67jKhFFJ0WAGq4gXPYoT4gtmbLvwoHnbbmw0a6h490I/7dqqywOqvjtSz5eXTBQ+DmzxvPgCX0Pao7LFXdP+Z1rz6CPL+6+tNrXeMGdsNA3N+nfYAq8q9SiRiHuymBpokfnSROFlbrfcsPYrkOyzwkEzgj7f0pXehXN8p72HDHtP8HOprvpog2HO2Jg0pUy8feLupvf/b+l84H7GO/gewek7X6Y3PnhsvmGunJtOfC5hJpqEPunnxaTKzIacY/vrh/7JsGZsLG1ZZWzeYa+5ehS7zCZVZu8sNV9a6XfNnOFlaEvnxauFK4nw2tSi4lnakhJnJiJv1U++qF+6Y+rqmwxzxsbaktvtF/kv8dOe67J6rdIjXeGnyHzZui61wbBWVlZxeWZFEtFSZqKh7X6HCUdtz0l7VGYqROe3rX1tp+HNWBjspqurroC++S4zq6Dlo2lEZd77oPJl1D5lWCsjW1zZv1SlWyB3TmTRwAPLY9IqyaT4Se+FYE+Z/t7GQlWDnRubCfPGJfHoSYWJ4KK2+or0JeZLU3stI+urG/oXlfm2lSbnkQmw5WNUGuWcmAMOmxkGjYXR2mpT+z3n7+E2K/qYKyigfLmp+sh2w1gZ2JJv9s+HpF7ytW6lVUTvEcvf6t5JftXx4sYVg+sMa8bC2hS5ffPp40rt1qXmoRLzJXy20/CBLzOcaWyoGSIZTZ9TcjI/bXqW4jwNUR99xLP9vfcb1oyF2VB7eNJKn/XsB666YPEI5ks05sMwprFx5zuxJHMaW2oDcZi38JZkFR311Uw+Mu3exnSwlkdOLlOZQjmpsnTaCObL5630y4YtXZtO5vTfAEm9IGvGUGkK4U3gwzSTeK064jUQAm51Kwb3GtaM6WKwZvuGeLERj2YRS968GGC+vLR0Tt9XDVsaGjPfidfMaZZ3lOw5Mkx1xRFOO9+tX6u53rBmTBfbWHO0oeT271HIl61rTyQMW9o1nbzWwK2iyV4kKlTZkrx5HqKKy0JJukC1rTvRZ1gzppNNmlTxucNW+pfCbn+W4hwqI5wv4X8fTJmy4BrDmCY2v6LtzszSUBY7e2CyyLfbSZUIQzbJjiXoWmWh4fKnBw1rxnS0O6avnQR9+JzKu54kb9HjUcqX/ZuGDhi2NLHY5tPHcsQBZt5hy2P2P4WZzzwH4QheZCZ5w5Ch85sXl8Z0ttb1qQ3CphG+II9FvrwA89lEw1bIbdp187+MR9/Szv70fukLx7T87XqUclDJffGqZWttKmJYM6azZaedtd9SHpwzRvlyWWXczI8Sdls2N96btPhzbydVJpyPelfVkl6LvEaVhxR/aKJvY+Vg+YniZC80xzpfwvu9YpgKuQ1Y4MfeizAIuj2pvIgUvfHm3w/Irtduom9jZWREFF7U4igjni8vLbg7+neGqZBaXfVgF05mUjQNpSV5Sx716Mcqe4kSlU0xS31G02+gYcmGNWPlYrdPq5kBfT7tJbJjmS+31w1FDVMhtEVzY7ehTvuCvtjAa6J5lYl2klG7+LUvqe9oZjfDmrFyM7SkWZIzqjJE+fKDCWZ+lFA2naSELxRlb7wtwQrbksEHSckb76TKrGrWpXcMY8bK0ZbM778hmY/CLY8X/WOUL+8yA+bCZZF1J1dKX2CoVL0URk2qzNOQjHpPjVm34qgZMm+sjIOp9JtKLxbHKF8unhd7xLAUEkO9OCAxZ5VL6qh4eSY/M6slBctDJRUcb9m8+CLDnLFytU3LBxOeMw6OYb40AVSYou/aE73JqGQZJoszRFelXc1jnuOkRxcp0T3g/c+bl5clVNFnJq5DBeDSufGmyPrUnuct+4VkL3gJRmEvP2+BVDKzpVOHLfDq4d40mgvnxb5NZ/Ysq4zXLansm/VgxY6rDIojaxXTVs/F26bDli+hv5w0LIXAvjF99fT8oJ0kpy1MtDHtZZz/hW1rFrZ6juS6vHtmS/9B8xZcwe74es1XF8+Nr4bR0tMww70GMX8bcR0Ml+k/wc8zXY/8x0ubqge3o/vccTNafssUrAHZX+WbUUKaL/+/6dOX/42haYytr/4//yGp4BgiYpNRj9+Wz/89joX3/9gM3BHaZYvmxZc912N/F00+NEZcfoJ8yvQQKt2WzouvDHO+XFIZX2NYGkNDs4sle+3zJRM6iltkXeqQYY40ND9F85rXIpCz34WMy7Ot60/sWVzZP92w5N+qqqo+k+xNnw9rvkSBgmFpDK2lNjUQKKnRgEp4yWYiO6wte17snoFu+3sQ208Dz6CBc5n+xbJv7phjWPNnrbUn9oc2X/ba7xmGxsjQoJ0Byx4uhsyBAIViwN+x7xrmYNUaFmIDvehFY+kZc7S5fK4XHEe+Z1hUs2VzYxVhzpeLZyUmG5bGwJ7rAa+IiBpwS1hi30Cv+9+ARX4XET/g0ykGJPtb16f2jPOmkmthtfU7EIv0gAfWYecSrbNq3mWoGeTq7bByaWYnHAOrqz7SRRM9kHOMgdyW7GWdYQDbN9BLVKUIkgvX4hzLc7ABry33TGiWxHFI12VL5sYf3F5/ehBicHFAgptOXOa+n++rO/2d27++8msmV4rt8eVHI+HlEvyLYWgUran2ZDUE/9MBBYKSPMJkZKqS3+tzf3YbRvOUjyeuFs+NNcJ0v81g2quMWVi5dAuXHLet61J7Fs+LLzA5lFvzmggx+iCkXH5iFnkYJUO9TlBmIaIgGUkqjtFLfZd94sf3ekRn1L5nrfTL44UnVFA9Z6VTAyqirSGXsnu2rDv5HdO0whp6mRlWLlHXVcPQaLR7d9vfVS5xexUEoVdBMHoVBMfLyeC2eJy0tWUK2V77PBdrGeYacclNUy8RlZ81vY3o2liiKqxcLpkTN4uJj7ShUXk4Qc+pZi7BMc/lvtOf9D7if9F5luD62L4FM7eX/YrYS+bFKgd6wPvPyaIhTubVjUvu8eg48rzhxZWJpSbnZg0tuZYp2EPI5eI58YRhaIRtY/XR3QMUgTh5BKkUcc9RxwgdoZc9TnYe7xkI53H3nSr7CGt2fBFM66UBKsPJMqKmXHpeE7vGn5rWnjTt4vkadG/6eBi5NAI+wnbLDWu/AoH+SEigJScysM0SfPfYNi4f7C9fdiouf3z5sQ6Yzj8HjXEYuSxiu4h6qlx77dSrx30zChTKMHL5rOmJMtIlNzg+oqQX87+PbdmcHbeUIy/fuGbh/3ymF/w4UNxDzmUJ29npk+4d10PyUVtzKLnssd83KjtCtmhOvHpUM1pPQOJh5Uv39J/KkZebrq664tme9L+HQBhHjcvSt/Qfx/O8KqibZVi5rKpKmK6EQRvqjgWj79NuVScAYpWrVeT9ni36Gmjh4rIU7589WyK+unH5XBDp7Un/Ar3QG4/5GdXYIAbpMHK5uDIx1yhuwNZcm4oUQ+az3qQB3vHP9rgionpd3nPgW/Txoe+XW5v3c7nI+9kAxVcHLp+VHPOsYprQ1rL25PPjNU/D9L8XRi4XV8brjOIGaHdMX3kXBHb42RyB3I0iSfab2XoEn17HqxyLPcOG5YM9ZUTLZYnG338f5+S5Hgk+PQIcNeWS2Yel/znesZL0b9809C/X/e3NXxhv+Xpnw/97PIxcHupOf9uoboBNJ5CMs57E9UjIVCVd1Ul6FK9LHXf7tJVl0xe4Zd3Jfb6x7S0OtzBy6Su9PeJ9z+Wu/Ux3+pfjbdTmxuqjT4STy/TrRnkDbDoRktkjieREhHlFh7LzVe8reJY7pqJlusqCkzpMgAA3ovbCTnMumZpHT5EFDrY90+UcG095+/Hlg5tCyuXHRnmDiL4n3j4x03TSI6luq4qFjPweH6SLnEWhqlcO6+4tnBubCdN3QZp2r6aUMuDSszDyEhsBJk1rT4ybWSq/MX31/LByWVWVuMIocKlVrAePNjzT41EF8lsq5459xo+I5I/H7vOMTHA413qm1z5bBs1ZEwvNWT0CHHJYPdPDYlUuXBYtMD0kRoLjL42X/H3rtJU3hpVLs1BHEG+pe9Jv0GLxTI+A5F7qP1EmoRyFJzbP0OKE37uXfY5nqOvwnvOZHvCK7nzA9BwRRpeZfUCYAZ+hMosql8+EkEuZ39HPK0uHaN/C2YkHxkP+rpj04OfCyuWiOWZWwpLsseXHmnnEiAga0a239Hv2bjy9V2c+eutO7xWl7VlVXsqES7+b73t127++6qrpfzMe8vkzPenfhZHLxZXxdqPCRdr9cxK3QxCH/YhA2LcllfH12rZ7z94xZyTFdLxsz/YAZXE/2GV/b1wIeDf4YRi5gvgPGCUutumkG/xrqAjtDkLAE7N05SO6aWiwbES3W59nRbM6ln8E7hwKJZfd4JhR4iJsypT5Xy0V/EOK+0p1DD/X1HWpJjRnBXz+i2MlYmHkslSROSS45yH2s+wnvVpcGW8IJ5fpXxg1LvJFmczRD2GbjMBDOcIPUecc6sauiX0/1C2/tuhZVI6B23kduUADS2AazokyEY8X2e8y4ZL4T5jubvY45trd5LM/g5+XT0N3OlXWAg5rGaHksjv9gVFjv23f82KVh3BH7sYBxcjsZkEXbZLoxs0o3XiGYTMY95r55+mmjutmHQMe+xsd+UB9kmnBFOLfzcer3LjkcMsXGTx93ZJ0dQs+sW3J7Ng95ZrnF1XGbg4pl382iuzDvvCFqX8Lo42zQkHoFjg9/b3bx35JJjqocI+DAtFi7wF+rBsfaNQofP6/EFj0CDDsFmeqsuOy2yPdvOtTz3hQdIxY4M9MmlTxuXLM92hwW1i5vOmmm/4Po8yKtuHBwS4iKusGeSKAVBAUIhgRQQe7xSQepK53UFKqH+TtJ/5Lv6hh74BXpJmDI6QHBZmvrLj0ei7sGsSn7D7ce4PCeeizce2Jsl3qC0W7YeTy5ptXf8Eos7Jg2G/ngT3IEwoqY4gyBe+Yg4KS/CB13kFRhNdD3ZPjCAdpkSMd4pBW1dq5sdtEwsTgK8lIZcolk9FpMeYKOO9a1DMclNcuzpdrFA7T+H4YufzG1JrrjDIrWOPa1BqGwG6SwIOcSPAgL+LpYTPDQY4oiKLJg90cp+gRP9NBzjn0cy3UbKFUVGPIPjsQVvsPcgRKKKxlxKVIYHnX5KXvkOx/wTPkr79wzo755Zj/YdpOh5HLW79Wc71RZ4WeDhCwswcFUZ3MuQ8KhEHlPPr6pW6y6y2aHY9oVRvqsYcDw6XMuPR73KEi/+Pda8PywQPlKeDp18PIZbnMHjqy0feaE31qZIBgSA3YQVS2xbPjDZoVqP4zky9c9eVyLLcD3fap8hRwcDKMXN4x7SEzoZXM0BBtCNTFIEF/usj/gjhetC2sjG/Q5mVy9dGNIhyeHuUMFEYug06Hz+vY91cm7io3HXi6O308jFzePq1mhlFpWaTXZZ8TEfI0LhxdNuCRV2wm9rpGMYIluw4U8DXaRENd9ruq+D3tA4cx4jINt/NBcvl0ifv9YHWQxC2zHeq0XyxXAR/tfOnFmRFwiW1be2KXiLSnCWcG4GlmH+848fenJfd5WnhvwP3/oMc9eY6zaE68WgdO7pi+fJJyJugS4zpGXF462J1ONa5J9d0/O76gamYC9SC4LJ+2qhmJaxfOjVWgBWuf7kq/UiyXsmc4KHjWAlZdCgVSl6ewnC+3lexpAR+tfOnFpRFwgaH5TiBQw7IM/DQWdTzdzd9oIcHPO9gtPk94nS5OpiMyFfC+Du5kufN0EfDFlYkaXGSk0aAHBqPI5ac9G4cO+J1rZsm82D1IyP1yebBbLMYi4T7IEWfRNXkY0NdHBVS5CfhY5EsvLo2ACwmzfyCMUgLYDlJRjyiKEzpFVxHP1EVuuPPpIuCPLR/cSYhml2J6x4jLg13glYWzd9xY0nsYGJUf7LJPqXLJy/iMf3Up+lKXj+Ox39vWnNw3HgR8pPOlF5dGwDl2T0XHvdxStUsOPFcwcr8PyIjuEpDfJclMsvt5ZT7OvXR5iRlr+P1PPCPmLg8RHwUuux8f+sn9wc4PchkqZOF9zir5Df6sXRJMVHDpxtIswwffOjPL811WVgI+BvnSi0sj4BxDmS8LHhBGHwdoQLtYZz/Qxcn0nP9YIQCepTS9HRBkPm7G4zjh/Zp0I4TP/TH+7Ac8cGcwHQUuof98f6TSf8sNa78Co/EPlCLnLoWCqctH9MhcA4h9C25o0ZNy0YQDXelXxyJfet3DCDhlaIj2AYGjHqCFA8/8kkxwgOPcB3ilKu+aErE/4CVAlCPRG379+zUYyLNkTv8NB0TRCOX4RDpHkUuY0d+98srrPz+SOEyeXDUZ3v+ciEvmObv5URydbi8/4wkT9355AZ8dbyofAQepsciXXlyagTyU7e9K/zsXUAngPPDp43nfidKYk5kOcO4pI50m/ABXYPi/F86J94W+cJ0TX3mgS1ytlKV3tLgcLdG6f1asEt53mMstLR6C31IR6RLVZMTCzhGcsulOCAv+t8YiX3pxaQQcMzTfiWem5pIFpBnAL+m866luvELggMJ993fY+0PPz8Ov7me46JZnmFHlshOcRGMHRguPrWtea3hagWM8UCjFp4rwrbIZlXmg0z47FvnSi8s7vl7zVaPc2WrpZ7MkBUdIEESL7wNAkPfd153+bvgzEXiZFtunRwDzIrcL8+f03zAGbbOpsfRXjwDk03LpDw7T8sexyJdeXN4yZd014168J068feKBzvTv9neOppPDqLdrdO8nfw4Q9mWxLoPP+sl+RdxGk0t4r4u33rj61jHDpdM+I/OpYrDYz/m+v4jaYTnMTrhoduILY5cv5VyOZo0vzKXrERF4ok/3OMB1dhpwXibaL7luPqPsl4suc10R6fs5991PHvPbkGeiqcUWfCPN5bY1qTGdS/3RBwb796v6XCff/7yEvnBNgf+IMC+HF5moN80Y5ksZNxfGvXijQRL7eU7a6W48gPPgyxx7P3WtAwoZZr+AOFlmLDyLyFG6xMdhxw+Hmaf7ZibmcrEVpGc0uVw4KzZzLLG5bdrqufwCSZCOTqrQ6pTjyb1uJ0eAOlk/3bomtUd3jbhvdnzRGOZLGZfvj3sBhyCckmZWSSbYz8nYfCKA8PgDlMB4ZSTus2XOBUD03AdE16HuWVWx46rQFrSz4msInDp94jZyXJ4ba2zQKjjwmS6JcNivmk7J96yfAqYQ2C8Sotz/+zrt7+quEQsr43VjmS9FXEJsh8a1eKORckJH7mSjM26EVhARIM8Est+dYoFXERf6ep4OUfgNiH2oNhLqTNTJT88BDk+jyOX3QhGIdDq/UBJmH4WW0A9F1+cVfN3guO46gWoRY5kvRVzu60y/Oq4FvPPx0y9KgexUAdEjEhQSDfj3EEWKiqIkTYeH89wX4vlQ7p8T72TS3KWWrpHkEj1XGPDZ2+F8RyrYMqw6Ad+nRPh1CWpAxH2zIrSvA5wsg1r698YyX0o4/N64FW80BHVfvtqZrY4UNllVfZ/IgWX7Jf/lr7cP/01/7xLs5/3u8shYgmdAW+0Dg6FdFxMWLglPHMeAy/srE0vD0U4ba8bTLq7Si/nfL8BM5IeeWMH9ezvTb2ov4J32f45lvhRxuX7Z0SfGpXijrjcQmLP7OA6MtS9xNwZYjljsE3yKjpVlHldoAOdaAKDoaZ/gWqLn3y9MU3iru6gaK0vDWHF5f2VfKFafQe8I9nn5VJe3n6gUbDxMRJjBTffBPJfhgd7Y5Es+lwtnx+vGpYBvefi1zv0eQrpPQSC8jt/HibBF0c0+BUFXJr4L/w7kz0Ze593QcoYJ+D6PaGc0uURz54QBnwWV2Ze8QmHuYn+7+0BukwcdKhsnQtVawG+5oforY50vRVwumNV/37gT7ylTFlwDE39B5NilbcAz4wd/T+L+oMRrfDphQsXloWxCmRVPeOE2FlyiOUnC8pLXq6BSFuEu70Jvn0I0iba9nfZbOuvFN762cmYI8iUX/yVjMPI3BC8knH8eGfHEM71LmFdJKxOK0dzyznHr12quD6mA940udmpc3jcnvjJs+OwfMSz8H7O3M/0znfXivtmx2jDkS852qdyWrfM0VN0Ng1iGTbwLma3Ddr4xfXUohz6j6W7DxV1227o6FYpZHPd1pl+kufTtbx2yc4vcutKv6KwZjyw7sj0M+ZLd77w37qJv9OISB0PkqPT+vYLvvN/0f6Lj91L324vdd6/oXh7PJUyPx/n4ddYvO9oSRu4WzIqv2cvBbey5TIdhDpm/gs/zB680yNLm5UP7PHDfK76W1lPKNtX+/P8KQ75kC9v0/xpX4o3mM9hLZUYRuHtFzo2JrUxA9lJb9n/ACMFeoTgAqZOwDgW8nQg/r4N0LvhshWaCRx48+u1Q8jcrVrlPgt1Yclk1KzF5TNtpv/7QLTwuaT+RFUx7RcEFJ8ggjwN8H8sds2W13kPpYXreCkO+pK9dvyqVGFcC/lSn86+0E+7lOOg++v8skEym3ucJvtj594rEpIO6Du/ZOjnX6iDvuVdSyvOOJ68bzoEXi6FI8vANA5cwM43pYJ7aZce2cbkUFG57vXyqgyfUAt/tYPnA76PLUn08Q23MMD3DociX1D3C8u5lVOzmaTUzCHA62IzPiyBkJPDO4zkzeV3A3tuDcJFQiTKPm4EA/5k5mY169o/CmplQLxku1iVwuTcILjvsd8fyhVLHhqHjXC5FPtRB1iak6e3gFGwiX+T41313x5fpXmsPRb6k7rtwzo5bxo2Atz8+9ALppICJyISZl7sBccbg/dfhTS73t4JAZf+TZMIO2zut1PNWzUxcF8rqbDv4rZSLMeRyy8OpDWOByeTJVdfCZ/mLUHxlz61SaHX48VvA7F84e8eN2gr47HgkTPkS+/x03PRAuXnq6ptgogsO/lSHasYmt6dURBY77insWOk9OxXu6fM8z61Tfp/aB441h7IZrN0eVMZntLnsBP/9jemrp48uIhWXd2w4/YoSJp0lYNZJFXg0NqJ7ddp/gg95ma7agcYehClfYhz8fFyINyqloBOdUiGAzaSAS8ZTCr/xTebsvP1PUdcRiwvgPttTwt9AkNkAkzH3tYdzdZ5CRBReLt+FEfHE0cJjy5rUgBeXyoWZVwHXyfHTTtk14TN0OVp3IdzX6bwQpnyZ/69hVWr/uBBwCOZxXkZUyZRP5YB9iiEPAHY/kN7jKY4DPOUhErLnK/zXCZy9CvcVnS9Oo+3cG5Ih4vSLzLBzuafd+fFIR51oLp+n2sGrqlw+JQkS8mKBX4PFAWA+J8PFxRNdQ+fVeDIYd9gXwpYv0YZqBmUv3mgVjacEoLDgAqHTP+WREfxk9L0lXMfvtrfEY8e6Z4W4ULY/DjuX65YdbRzJZpO9XeAVf7wDH0IPAvEptKGXgOWjH+HIl4gfNOq2rMU7U3p22qeeGiFxVHF2fe9ViMZ+GUZu97Snf64Bvhe3rD45Ir0v2h89/e3w+gyxndf5RRsUz++GFeOy70JY/3CqaeQcE1UTx0q4gfCYPe0g6LR+umDm9mvCxm3tA0de0IXLzatSLwS1avi0SVVXfasDHB8NUdnTHsR101qvxLO3A7wf0nzphDFfBmZf+eKcG1Dpn3dC3BnR9/zGc9o9IoeWOjXr+KJ78J5jT6ZJgLyXn3vi59D3lqVV9Bt/tvmzY6HrjbL0m/trQ8tlO4eXTvu/2zacTn7zro47/KYVrXV538x4dftj//nP8Fp/KYVLej/5HTC4cNPigRN+3II5iVW6asiC2YkHROkf63z5VIfz5oRyto7Hhp6jHXcPASigftuZUpIAuIPvlCQJgEvKng53owVlTwcgrgm3cw2rTlYTxwiuqeIoxH0kmZK4fgeVJuy+dQ+ndoWN3zumr50UUi7ZY+hrdoDXYVTei9qGZc0LaGg+6soJjz8bFJeEAFHRHX0umU7vgnIPi+H5oGoeY/KepRO86snlGOXLzSHMk4G2fcPEfryHjrhwR+R8io4VRe6443IjNib6AYwoZF4Urkw1oYwM//9z4RjB8/JK7nz0RDobEKeZ92x4FMYUfOnXw9kObr8dNi7JY5W4/ASlA1bVX0HNDZC3l/e0p19H4jciXIoKtHY2siREuYMtzGi8aRF/qt35R4015FrUfOiTy1HLl/fPji8o37bv1ak9jGMRgAC+kKsIvYjMDl4mZzM6Ixad4FQ+SoHH/qv0Xu2cTMWJBol0cp8DkOeLnKndvc9YT9TEMxiF9IaJS+65IeSSqVm080WDPuapDsA/N/e8dMGIenDoqiFbVqU6w8sluHDT1VVXlKV4T/nS/K/CxF5gHJIuSQvODCQZ1uf+Dv/n4E5etyq1iyil2wHrKO2YQ8hK8A6B8HhFk1wnQ90JT4SuzykqVMLEJf+48HHJLZhU08M7h3dup/3fOvc+2dPh/DK8XIZzgF0w7Vbt4CU/jvmtdr+OSwMMfB6PVTE7yMWD58+KJ4TP2AH4JX+7oKQXPVeH/+fMbe+GMUOGhUuWD+CElssOlWt44NEheTb4X+SxoR/qqiFVd/fdFWYut4Rk8ZDAbd3So/Xf4mZokPn+LWw//f1blADwjt3DOYc8BjBCQl4f4Ps+umny6msJAZ8dXye6vpdAfUuy7eGmC0jx4N133bLBR8LG+e428JOx5pLPB3DCzKVKQPMtj8JRhvuyefvX6qojbY8NDYaVS7jZYV3usCSbP6f/Bpj4C7hYf0vq0ID6HxD79kgyNP9/oVBzHX3t0sEE7+Ur/O+i6jN7CZLMUYSZvQMInRRuaLX6UE1KhKbTHGsu2esAj8Jh7Ln0CC6Ez0qmDxQiVKJAa7P/K6yLYnvZ16fUfDXMXELf/U15Np10gOMsQDxggSQjAi4ZMpL8be71kaPw0vGttvSboucloz7AOkMH8Cz1i3tm9/c3ptbcGbpmlDaQGksuxb4mw3LsudzjGR0C4bOz+Lrfw/i+RLkWv+xoY5i5jDx65kjZife9s+OLMglsUwNhD58EIHJ0PnEeJLdRn4SDp14QpaV26ZEX3GoUCCjDAkcdH/k9eTWHsbb7Z8fuGSsuVfEMI5elFgCC/cNTpizQdoRg22NDPwozl7XLjvSWmXxXXA4T9pZK4p9sU3TKNtn/fo8ntyfb7U9kDr5u6dEGobi0URFQm3dkQHxvK8LJ2nAxRL/ToZyDGD5XarS59MZOUlCEgcviBFp6bxicHNJVSdAUwDCtfwkzl7dOXX1PeUbfeSAxMFQEGx3zpCyyagOe1XLyevL/61anIrL0oCYKXsmMrpt5TuL6DpVWzLnagCCC9Hp+vqMW7t9up9H7htD5wazYzNHmUk3cQs2lFId8+p8U5immQPyv0ZwHPWjbDPNmyLkcRtMqlJWAW/W///dcZEuKMscByQye/w0K+/H/2ePE3zPXcCNsPNp2j2nPdK36kcLLnb+Cx/+OvrfoGXBHcNPNnisv1GxuoZZPF33v3e3gtQkhXGEl8uiZJ0aLSx6mT7Y52Pccdlxcw8Ol+Hj2OfACrfC/u11cs/Rota46knt5eT7MXLY+OvT9shLvzatS6/MRBOOoDHCAdLg2lxBcyLPHkIS5Ig8ypWvhukSBAajMDugM/0fVtsFNq1KdbLpoUcH+54kMp2AiMKHSXkhXLi3uPanr5LC5d2Y8lJkVPuM7o8Aluw8PGDBeXN8LL5f4ffHnepJ5Dl5BkP29eWVqQGctgek6HnYuUS2zbMQbdbnbHbHPEaAwpRubyfIgi86hIzAy8gJkCUqVznzCsptX0wluaIQh+XzkPXjE59PKzaRtNn9rV9jHuyfcdkfAW2H0izUPHOsYaS7JQh8I8ML5CDeXbDBDYSK6p7t9qPOLy3vvjt0Wdi7h+e+VVfS9O+K8JXYowP9kSkLAPXa3V8ZoA+ISlUNMMdHJ7jbnu9L7tuees91WyWCCjMhzLscjYnB/w/u/GErfaHP+daS4ZP5r9/C5Nrc6HmYupWmVbxer5uy4RetAsN05F3YuF8yKbygb8d60OlXHz3gOLTC5jc6YDnGMG62B3LGijAwADTZ97d1MZAbOFxOdwOpSJRMVtPMyGiDSw3uu3UxaeVVihyzU2gETYbLng0+rZiemhs0/rrtu/pfhs/0xeC5tZbHPX2t3myBaDx+Xhf/dezhcYd/dBgrPlH2vo3EzLKwZa8DlJzpPy0vYzVNX37S7HXzMOpu78fa7jic7DjCAep8reg6QyQBb1vzH7uIjyfQbT2L3xSMANn2AwYFOE++/3QIH2s3B7kkuPs5PJ0+eHDrnmj8rcSd8zo+C5JL2FfoaJD94kOAQtbuwcvkklc4nOdjR15x9W/vd2mrJtIdug3nsfNi5bH50aHdZiDeaTAkCeIrMhG7kzBdrwP3+JAeo3RQxuwWZdbckExOFQMQevvLK6z9ffNtcfNluQeG0m5upADdNu7kOBSgnBB6O5wjuaTubVqVCOfLu3pmxit2Qg0C45B4LJPh6Z+IwcvkkR1yebAPMPTIbxFZjOblsV8R+K/RcRsDwl7+84O/KQsDrVqUaSKBF4ANJhgWUY8ozJLs51LGO8Pp1q070ll5g2R/uzpXwbAHDyVRMYQU4aRUVUtgxERnGTKF44dorpl4dSp9ZmdoQBJeyzMdGVSKs8tcINZeSa5HnblqZ2qOrliyYlbhPBy53tYHjZSHeqAM76nXCZjJbQXwBBZDDBzZiyzNyxFa4R+H72SDarTauOrGLLzyC9EZAEdioFl6Aur77fc3So5Gw+s6mlSf2lMalLBgAHoUC8OAhfFyy1+LkuYjzoc7tsi2PDn1fBy7v1XhRDLLEvDu+wTvioKt4DvlfxMtRvQoGnlPT93Vy0cnJlYE0G81OTIXXSwvTGvGTaW0P8RIIFIbbrgh9fuFZ3glz0xuMZN4slkshThHAKRAccZQbAXK/DQ+XnKid/L1xdWqNxj1ProVpuKgBl+Uz8yAU45+KErsrAjxLtV2Uo+6KAIXIw0vY+dWrXW3OvweZ9l1t6TdFpO+iHGkXJ+NljonQzudwsATC64qwwHFFvYPC6j+ory98/k/9csl+OgIhF+OyK+IoZeAwcSmONmHeaUv/Smctgfnzn3Xg8vGVqUhZiPfEibdPRADkQch/z4O0CwNpV+ETYMc6mWPz5+yK0O1MJMjEfXDw8+dzMgD2fB+Jpoot1tYuO9LlXh9QBRC+n3mWwrPi+/L7s78dDBPApj13L/e3jWHp3jt3vb/cOzsW2sl20Eg2mEneVuVyF+ELZJp3UVi5mZYMDvK+R/qtFlzyBWwE/Hs0be3SI7U6cAkLmY/KZt6TTatOPucKsU0IsSvkDgWICyh9LOGsEZu7MZkWB5yTyfOZYSSGmN8yZd018NqfEs/Vxj5vwcmImgadHkA8L4Mlfhy3cARUIegQhSb8/sdpk6quCqsvocVgd7elf6bCZcHfBOknsQM5LAA3c+/Coiscv5BzyWAUVNPgWBgaHwDTO6wDl2uWHD1UFuKNqr4F0DFHZCLrNpoITgYt7HewaANt+G+HjbZootvwgsR1+p2t4NURq/ZF0q8Qz0PgkM+kgIyyqBpJ4Ri6wGIiCh6mdAEGBAUfcHa2g5dD3gb62Z0R58cyLt3/8pmPwrSNzfS72mzSr4jrOIKAIdxcFgKXbNOg1ovp7ozYR3Th8t6ZiaVlIeA725xXGYB40QbHSUkhdwTRNuvgu2mwZRnDPS6NCpsRK8hmx+7h1j7aqOdo49co3PTjzsSrodDpBYI08wpMd9/GlakNYRdxmBF/IOBSnlamZudQGZa+lkNi1GY7OnGZS9/FkfTvUWg+q9SHS/ucrkvSkaDPjFcTpZRUgGmBdrifO5k28fy+7LV2cq69k3LunYzjA6flkaGfjHwEkf6FOCPSGHAiR6wJaicjWjIRK2JrA+e/+MVbQj/BUfMjZ47QXEoK6RxuEtFrUxFJBbzDxeWo+PeIvriM2Kd04XKTxkvS0dXcs3kB3RnhJzj/m3VipyC0Oymh3ilxfPIYGWkk2fPvjq8bhQJtpZsum1O4sAVLIZ1torSxBZWLm38B2Indv/nRM6Ef6DF16tS/hs/8sjiCJZvddlFY7uIU7jsxjnYWcOQV/vpwWTUzsUpXLdm4KtWgEZcXpnxR35kd8cjo23nH20lExnlg7cL+nRggOwnwSTHfiTn3Tq6T864LiP/Y49DmoGXG/scowHLZExHwGv18OzEHEm+A2beL2rdLijV9jUy6qUIPUNcBF6pmJe7TpbYHn/cvrG8ALhZZEXC4uO4kfJHFfhflo2HnEvrcT0fJvwO3L32p8u9hOs7rwuWapcf07zqI3nRDhwJ8RwOUEGPgtQKuOO8konjAcXJAXd8teXcy5DDXvDD1y1XXjRY2aGAPvO+n5LOSGZFNE3rBKhMAOs22xElt/vW5/2W2C2hOEh38bsqX5n8VYpAi0+MopNHh+JcMLyD5P3RcXtB5ru+WR08f0oVLKPZvTdDfKi7f2eqcJUBopQHIba20owJplCIiiozygUC4+ZH442MwkdOOiP0i3wkB5iwOx3lsppBjMQEeGZtbAyGPb6UF0Dkb5q6FtDWtH3rWO2ICAkHwOgdIuAgfl5tqXuvUuxkWfKQLl2Fd5crn2+JEjagUe6KVcrRW290KwkELCeCKMV9wKIduzUf1QFC6Amcs5oNAiwpnovBW2jEAKZ6tVGHVKou6AHkehekTrTie1HcRpq14YQteRUPatWk3XZ1aA3E7V8icrUBaG3uiFa8J0nhitcNWKkpuxQUgZFy22u/pPN/JxpWpPgaj0HIJyiH6Rm3fQz9iIwHAbSLhloytQFiNfKKVjE6eaGVFPUNeK1uFfgK7d+G81rGr8rhROBkB5DMn6YRAEhVQmNLpbxUUXq3AI2Jho5uNmq2biMQLTSb2RMQelkZgrcg/HBcTzK8KYsnJ9E+IAoyQcKlzRIjmO4FpGM7wwtWAcHFZFtH3xlUnq2ECL7LNIk4G1CeoKuITBUAAIcB5kp7AAMvs55S42WNYQN3rgMJ1SBF3zk2+7t4xW2QUjSqD6TmLF0JPFLDC0sfBAf+vUJNx04V9stiKxCLroGTB+ASniWvjypPP6ygGVbPivW5wATC/cTAfJYUh70M09nlfzPh0zq+eIERg7LncWHPiuzpryY4WJ4VzVMCZyMvh4LJZ8y6aGbt5Ws0MmJjzOAAuaDYrpgRoNrYBbEOi71D/O+4nTmyEuhZNClEwgEsPLx4c85FSC+c9vc1Nj9cGOBjZVNoAhhHOA30N72vRzoyfs3DuwQf19dM1t61dNtgLsUrBTHkRDyRcYXA4WAHGBwvnEriPPZedm37/S50HktwyfeVdDJZEsEZigDd3jAGX6co72u/SWrxRVRUmZIh0MsABweGKKinSHOAiQAxgBLCZIJJ3eICd616jeX1Y1gGsuBw+zwdspOEoZHqbU/g5/IIwAgTX4ZybP1bO5XnU40P3oAP67cQNK1NNMD3vEDjla4xu+gGBHe1zHP8cSy7ReyittaTFeZdNJxDgCOQ4jTCXj69MvaB99I2mTRQLqyzqyAKyg6i+AEzQaVBljg88oh23ZL1nVjw0ESQass5GYKrpxJ21sAH+fhKDJyKAX+Ph4cjlEpwtBxHPF6T33h1ftCNivwB98SyZWUHOR4GED9n30eVyR6t9Vufo29USCpsIzQP6blO1b9E2YlzqP2gHJQCC+wnhUFxQsiXhDk5pukMSfdBgE8dGAPU/kAh5lvAwOviOSPp1HCPcSXYQOACOoPKdlsE5h9UOuqZC7KOvLecSbu+Vxagzyu69q3/64zWpBIwEz4hrhg5V4NFCMjZcbtB4tkE07TQSRX7eB5ymD5GvAjIoFNU2S+SyLOb73lBz8vm8M+0oOCkd0QEO4DYh6DsKAu1gIJGl6A7GoR2sJLZJ4iIAO94pgB7Gt8VonmvULk9mdF704OQKIU4UQghDBitA47iDcFaHEBU80/jk8u1yFHFkVbNi9S5+bgCygxJkVkiAMyZcNjkndcZ71eKjDTuYyNfBtMHGuOAFgXy9wH02MC5b7Hd17qKZsdm3td+9o4UU1h2ECNgFUd6Rc1gsEsaOx8XDxpzbJkBzfzuca5DCg5+7IyfiTY+c+XZYsWysPdNO4gEIh92BNTXl00NiAArH7Mg7aEv+N4nJjkLBlzuvJfd/kVwmWsEfqu5OPFBe8l1xOUzbO6x/OkwBR4tpFs/R5tL5UOeFGtDiBxC3d1lsAYWVzcGKxHUH0SzrENoREJd/uuX6lXdp7+KNjwz9iAXT4YDsUBkfcJyVFmEHuxbt1DT4AAMa5ITIJo+HzhH2EhM+58sMBi08MaWcqyDAQFCQAcFGOnypXOo8YRIbfcd7GTxaACDxsIlI2hVZgT+PIJe690N+vCZ1iNSFXHpbbFa4W3j+S2Nrc/w3GC7LoukEtRNCEC4yoLbQAosDwomUW2gBtrFriAQFvx4v+saObcl+18HBJ19bNRk++yd0ZMCrsfDF2OY4tS12YhzLFuCUzqXzUbm82ExEnB9QwQFwgwGRz9kCERlpLp2XtdaSu2O3wXQMM4FCCyf9LTYn8BBpBafALJHLRKvzlvZNJ5losQUcLwDYAlgBaAEs8C2U8+UJasGq5i2UWPMAzl+nxXFJaRFHk4lm58f6vFN4rZNbi2gRFWQivGy2ZlLAl3Z6DLfSuTynu4NnBYUOFvJ+5rDi0ILzk/djR1wjDJBLKCgXdF6ogdQSUc0QCJpLbcqfARkQtogCv+K5rLo7rv9c3/feHV+GNU2wm+u4gATGYauGLYCtWtIRYAueCfBzOM9AVf0TrUArB0fzjWTbXjG8WkTt/A6JiyzSLmDKiwoD5LLZ/p72wUkE/Iop1PDCrYWK8phmD7xGg4nACHC5YeXJg1prCawZs7VmXJBtjl7YJGYttHbY1O/guNS9sMx0tE+02G8VgCScziFLtRYskiBKNnwfh5j8sS14iWmTZOH3x5sAWsj2ww01es3fkXsb30g4biGteLpxoaWrmIAV2DwvLZwXOIFx6VzUvUfKxprUGgZ7vJmpkHbcL6lqfwt93ghx2QrOo8FIemuJc5oRWh7+TJMfr9mPfekYKJet4DX9X1yuH3qWdEAcUEpACSGmRLnw22arPXjTCiHyePWdvF4iszl05nn3yiuv/7x+KE/9a5iWnxNRG1brSFD7ErQA8D6JqMPh8FY6l3Wrfr5fZ9/++vUrvwax/JhbExHhymyU3zKfwXG5avFgQm8t+fULJI4OpQu2gAdaB/DI2ub4eTBc3v2Ntvl6N53A6k4Ci4gThKMCTEx54sA6dIJxdD5hiRyxCcKB8TZw6tqt2WNXL9J3dYyqu+N1hCO14pncxjK7U/gkaywunglCsAGBUYBcDl97xdSrtW46aXZOJYiggBLWVlpsbWw/HXnjPk6JSgBcwvM+0TM4wZpOeMKNBWqJgl/yxBfHmPTXBIVtIFw2O8e0bzqBmf7tvFMmCgC5TpqgANxBCC8pIi45NkliK+CLSSsoCDlOSAI7P0GQ4VzQ2cGhgDckiNoF4DizQ0RtCQJfUghIrtyoOiguN9SkDuns3/D56xhxaKUF1ib8FucDE1bsHJuKrIPjUu+ubKiPvXOWzuMJCl/8XQvuozs4eZ4tDAPlclj73lXIYfCEuaCyCWYzvksA/n+ilSQtwVyTrMIkRNehzkPbhodSfVoLysrUCzsKGAEqsmC/k8c4nGMcYn+wXDqa9zypuDzebJ8jxdOhsLEp/wN0wJDd8r1DmMIxUC6HdMb7nhnxBwnM6CiY2WdTzUssJvnmqARxnWC4fOyh1B6txRvNUYCqbDswwF2xJL/HM5vDdcY4I7SAcHJWGGxGmGnBwUvMwvWbHa1XIrllyrprYDqGyXQ70gIr4eGcJN75aDsYLjesSNXp7N/fvDu+Aa9Ci3F0sAxuc3CjgwyHLugC4VL3QTvb1v/6R/n0xLnBGK0FNscvcT9m/Ts4Lh3tu8XC6nysns3QDgWCm6kzXc5y/8eJYxwmMiGdHV6jOfs7jpXGca6g01FO/vlgiVmdWqMz3quWDHbxnI5XAMYz+AAOxq6Txwv42MS1guASRj6ndH8xD9ORctNMBhZZfwQuxoR/4vjSOPP8vXQu4f2Pa/0e7a7+6TBNFxPcYI6P0Q4muHAw37WFwUcQXMKa/HrN274no64+72YT7xBCifbFc0C4++zCdxfs7Pf88XkHz3/Pl6i4oMQxMrPnOe5xze714y34f8DZVjv0D7rXdiCGH+axJPHAP50CZnEsk7v/53BqtrGIxeUtCC4hN+dv/VrN9TrjvXrJsTV4RJfFLOerBb+zCUwLWDe7+GfOaQEU/o7r3wFxiWoLWvt2i/NG1n/yAupg+dgmanxxjqBnMcc1BC/4HCdILhsfGfq+9i8uN9SkjhcEMp+586BgwukmHgOuxcY2BzvfLS1xxy/834KBjt8TF5xCxnBJjLU6r+pc3UHPHoPRYAHLFkwAMJF19+FCgWd6QJ7fbJPYBsAlvMeFe2fE7tE6GpwduwemZZj0K7I2R3LgYAJC+yNgeCB5LJ3LDTUnXtRbS04cdwspGlcKE0or2HxvU4GGw+WkWC4TTU5K+6aTx2pSDW4UZzMlGSm02f9jBLCUKBAk4SCKjsNIo4WGKDEz99Z+cvXHVqQSLiZk4UREE3TNQyTQzbRYB8flo5q/JEaZE6bpQ1KAaeHl+CHxH451nh8HC1aC5BL8VmdBeWxlKkKkHfPBWDOgaiwOZ6O4wPFj9KJULvUfkDZh2qSqq2It9rmsQ7kCGmt2o4kYETE7uf8AJQ45gnKCG2umS1HH3d9MOn7+vFgz5fTNVHQJv0Px03qGMLTIcSYabMYcCivcYgXsqUyPH1/Ag6694MIcBJfgI92jE9SzgMSPFgBA+Spgo2nMr5lghRCF0rnUfYV5mN7zbuFmk80WzVQtsZmKsPGCrXCsTQV/wXG5rXbon3R/r4PezPfG6KoJIbKAiDRiBVHIOmcMc2hXiPP/YaLOixRbcg6eI7pwfEFcAJYRMpHih7oLCkzbD/DIN1YowKiIg25aasHF2HV8HOdYIZoOhstt685o3ecb9emFaRmOYVgxkRyGHd78h+9zgw6cN9K3A+GyyXlTZ7wfrTn5PF5YufnXIfJ7DKvFuJg5nOY9DP/C+cFxWXVX4j7tBTzW4hyPFao4NumcLXmAaZEoRGguWDlBIH/bhLC4nw5zn/zx/AIge8yqJYN7tW6LnRWbGSewcwsqFiMcn5zjFpwfF298v+MEyeWN16++VXPffilOpw3/jWV+wtcKtRebwYfFOTgudR5RjCZ/gum5hAcOsWayiY/0V1wbnAJ+LO42xU0wXMJ92veqmrBy8eAjpFg6mLjiIDuEA5Pn2NS5DnUdUKiqxzjizEbZ+PnE/vNfuapykq5Yo+HnMA3vkYWYQ0W/DuHMMS7mjsNyxuOlZC4/0tm3Vy06Ws/DivQ1IPA1GlcaS4fCLAgu7XcmTZj0OR2xRs8N03BGjJ8IT9pfbSrI4OEdCJfnp09ZPV1r8UbVS5igYTZiEBEgA4iOOESCYisAbHPv89hDqQ064x1rAS+xhZawsOIIq0i4HQGGpXGpc1vs9OlrJ8F0XBDjATx8lNrX4kixDIJLnacvRWtc8oMvr2BDFPg5GO6OQGeK51J3LckKSpNzRJ7BPSNiCZg8MXEEpaEC0Y3OWzpjffPU1Tfl09LfpFKIYVuLIIpocRSwL5LLJufftI6+lwx2eRVU/dzoTlQb4ft5UFxueCj1gtbvdZqdN8T52iaw7Ofqgaovl85lf1MZNJ2g6kM+cf3CagaZ4fuZCJs4HpDXczgRty0Ra6fwHP1MaYuWSYtV6Iz31nVDB3iRWN7x+imR6OeJhaSJKmAutV/5Babhd+w7l0zmJXxNhG9/QWx4Au44QXIJn+nPOndlQ4u+0Hk8W7ABSc2DFeN+aVQdHJfaL9SQbfs+uo9OfD8lpv0cZ+3PgZP/P7M1ITBFUUlWLPoxgvoFpWq/QIwS2+wjOmONes3ANH+UdTo7g1U/x3H7OTzEBBzwmpyC4vLRFSef1xnvx2pSa3Asye8OUcj1FzByME4c+jwQI87JR3LBcKlzt9isb9tvZfJ4E88/HcYX8+JLYk9rAx/TUrnsa7R/oL143zh57WSYwP8dY0QYB8EuAJolx8Eyu0OcQ4pB/jo2di0X8ILj549vco/n3a+vCbyn81SxyBrWnnkxixcbGfQXCqs8Dvh3fAOczeY6eClcbm9y3tQZb7RQA/Sv8xmsmzAsmgQFFu63TKGGHdvE+yydy63rzvwvNEOitjXL2l8/WxBNHJsmzBcL/mW7etGE6QN9bLOrHy6PpXOJXhLrriXZ6mWj8+94KUVkYh4YTRxgCsQAykF5gOYJpYWbR4KDXRM4czWv7qDJtoiMTzgohTEmCnSEQQiJgKeSuWwG2jedQGE4RRdyjKgUaoq0WDsk1rg/EngFw2WsyTmnc9PJvLvi1YT40jh5BiCAI8aSY0vksiyaTrKCQjkaXarlSkdGhAsgOqTQNlEENtElJ0VmE1W64qVtgaBMs8Cw7k0nMA0fcIUXx6WJitoIXgAb2TTRjh8Ml4+u0HuhBvj8dUxBxWBHYUoFDGz07ApNrNlxguTy0epUk9ZNJ03Ob8han80X5yYHMFg1KWAXIJd9LY7+a1wi0PuanLOMkOYS20dUd7DImvjOqRo2uaLrfnL+I0DOXrOvia5mYg6uuaA8siKV6MPT2QQ4GdvO4s6tcub32US1nXDmgLiEz/fxpElVV+ktKOAcE1AwgUUuQ+M8MBjmq/s2IdjBcqn3PPbQtyMEfk0OiwnVnIelHeJkU7UZh8LLcYLkUueZHTHQTyRowPtyQPTR0VvhPxJQF/iss+YFuA+7Fgu2zd6jiRNRYr+RoOi8Cjea7wSm4YKbHoffdNREvTto4mR8An+HaYcNgssta898W/Po+xD7DgDkMjggM3sTtl9YswGEYPcRvlk6lzWLBnfq3VTlfELn274mka8BCnP8BTAo6Egf0RwbHJfQz8/p/J4hG6FcXXUtTPAwLgR9TRQodERMCIN7LL7lAMpdzz2+r/CJCw+nCkoIjnsv3QWlf5t9hMzoDoaTjTmsnRVSIhPguNncKIfkrHQuvzljxxxdsUYLB8B0XSDTSWJJ4gMIbPp40VwzKdwBc3np61NqtF13EQ0A7GNwdTB/wmopzRxxbuIf30cIc3BcPqr5KlITUOnTv835eR9RDeRtQPDpeJwDhP/1M//RhQD+X6EguHjzDaun6or2yoWDG/q4TkpigNdc+ogI2pHy0E9kktK53LxW54UxJqO22DdIH6KFQcSBGGcxlqVz+dDCwS6ttaQJvCHDQowfzQ/LUb/w2OK43LzujP7dBtevSO0SJ5IsyVSFWez0XucAgYi7vx9Zrm+/WDTfCUzDsBgbL+yAgoAEyaV9Vue2WNS2SaeVrF2I/bbfUwhUuPLJ5TbnZZ21xMUbKOAGFII2IClES+ZS/zUus4LiDPOdTcX5vETX8eHgsvsXztdaUFbef6xD7KwkNtsbgRJW25UK0OK4RF3B9G6qQjVL4OFT2c/tPgtCufAUxeUF3bvF9jU6PyXTiuMrEl0V3L182z+X6zVfLzdjW9ed2ZMVAaAkqttxp8Qcczu+jxAX8lrbpRmDT8r2xsK1Prnuuntnav2eodF5h8Uin8kdz2r79iYSbxJjxwmSy0ceOvFdrWuWy1MbtkubOICHX3rVBnl+XTyX6x/St9sgsscg3l7R9PZcerd7CDAfr+C4XL9C3yXpCEGBib1IO9l2AfB4xs87KA+sgmM2AuzYvEg4xD7cmbPHi8HXuekkE500Od/tw7AjM3reub2alVhh2F64FlsIFs8leFvnmg56kQbTNrwdx4eOiqnay3aMg+2Ev5LnujgHxyU8V+sV5rO9qpwL2ylcaEzz/23H8N/exPofG/g5TlBcRpsc7VeRykYo1akX8ISTpaPrrAXRxcEuCDH5Px6Fk4Ltivl2qiTOZgjAiAlxr0YwpDPoVTMSt+PRQS5NbtTb6BAFXx8hAKTY4ueKhGY7kQn8c6l700msyTlWwIrGjsJ4Oycy3M4RDbbpKiAuYRA1Z07/DZo3VR3ZTkTKFEa0nzY6bC2wEdMJWogD5HLLGr1XkcrYQ4uP1hCC2sgDhgKNIoAAnAa3CRcaUjRo8WbOJ0jLZIz/jaZb1RXriRNvnxjd5rzDYkMXbkD8fyOFJw/TgLhsfuz9H+vs2whvFzdApVcBIwIPwBaajTw/L57LDSt/ofVUsahXFYkVoPwSDzY4ODc5nPPYIC8gLj/+0pcq/15r8UbzK8AEDVNRAOmwdPWDK8w0YUDswJxoPX+/aCOvuuNef8XCwYTOeEPx/mdSOAE/Uzc5LAc8wWYwpqOU0rjUuc83Mmur8yKenmijA7bzaoaNoloiG7Vx/TcILpvABd37fMP0DPODCzovCwpDxm9p/ILjcn11ao/20bfV6HwvBwYFtsN12mgjHa0RgLr/N3Ii6Cb8WMAveZkMAvAS979QTxldsZ4zI3E7mSbaMQEnWnAxiTaSYhzliUOQXDalf6Wzb1fl8WZw5UXTbO0lSmFCcNVE+2fpXD6i+dS80a3gpWjBLzk4MbU9UW0S82EmWg+OS92bBiegbkoF0c0nkltNBFyhIAFxCo6IExhtJMlwRZ4kIkq04QJGwOH/l2qrTy7SGW+YnlNs4QW4n3QGL9ROcv9FORwEzaXu3dggBr9y8caxo/e5+3Gc8SY9HPMohmFQXPY16j3bIGrWpH0tigl3lPqdxzaK4Y9rCPOerBE4AXOp9SpSOQcHp/Ig8gHBozSHckoSLJ64ROmIkAaY2o9nDleMsvde91CqT2esK++OzaMdDXdsPP1RLANEOYUeiR8mEgFyCWtmWnetQk0/hP8xWDtklMfxVxzL7Y3k+UFzub5a726Dm9YNHYhyAwrS36I4ZhxNiHL0gMQ0EC6HdQ9OJlTeiQSFzLSkgzpU5mbFOco4teg32bwSpYiMEg7OXrt2RWpA98Kybu2ZF9kMTWZ00okBk+GJQo7BOTgu4bEXdI4GkW1ZN/SPUY5wRrmFlqOw8XwzGC7h91M696pCzw7T8BEb/ZLBRD4ijnLzPemr+fP5HJbGZTnoyYSmR99/hRZXGajev3kRilPEtbDvTc7FTbVD2+HjXqYz1tOur5kB0zOslGZp4Sg7Jjguly8+WlMeeAMPEfYSaFVhKIVL5/yN16++VWe869cN/ZPYB4vd/ASGPrhsAm9ov9IOaryPKkW/fCAspWO9QGZBz1/X2uag7cLDNScrJ5SBobfdxWd+EdayaxXPZW213iueo2jQanR+K8v40LeAd6HnFCFG/rlcV51q0Ny318gLP0dRE/L5X7VQLYrL4coZsZsnlIeDA0n1W+ycFgUODToSX/eTD6Tlgi+OAhcObigH8c5WL+1z3hFeHhen8ElvljDCCYZL+PmJ7k0ntctTETogoAQCeImMJSz8gLQw9M+lc0p7396W921XUK1C3gbKUbm1LYuZ1cg/Lwgu1y1P6T9oJ+vggALKwcDLgkmSwpJgEeeAHAGAEnLXmTNRNX7uNlfA3Wtl/v90ffVrTRPKxJDTWATevIwNXAy3AQpT0sF5UV1QXNZqPj0BKnysQlMV66fZmh0HI8qP2SgPEIIQFJdz74prPaYBzVya9yeLDuAovGnMafFmhRc/tnQu4T6tF33JlphXV11r5doGC2K6zRVTN3omM7pFCAHggo87LO647HEO1kziinvuuA/m3RWrLBfxnlPRfwPCGy+8yEga6/WBF3Db8gWe+xnFHbORjFaC4BLu/4Puc0KgQTt47c7iZm7AiINFVN9JQWIixKC4bHIu6twTAg3ayb/XIQoqAj8yf7viDkgxxnHi+XsAXNav0XvRlwlocvWeRuc13JmiNHA5xyM+iQ1gAHP+p8nAxWYbhyh3+331wsGuSZMqPlcu4o3S0rvNeQMXVDoju5+AgzsQY8vBtFQuF8w+oHX0Xb3w2JqCv20jq+Rs+gGJr9SXAclTQFw++tB//J86awlMx8/dNAJRviZrHbQmNAqwxo8LgktYWH7li3O0nl8GVnde67SYiABQDso0Z8jJ2SZwYMKZ8esCSsSBU7926IUJE6o+M6HMLNN0QuPD4IE7Kp0RBKLLi1pK51LrdQAzNcttzgWrEbCBAiOinMzeKMCZJwgBcanzkHnCt7kbYP2zEYi1gctJcFzq3jSYiwirrsoBP5xPeC83IgN8oCgSejklH9rXy0QbgL1O9r9L3U32ixPK0NCb7oygbONEJ7ggNHKcslFy/DZAbY4TBJdrNZ/MPrrNPiIMKHi1P17hR2AC+KIeEJfdTY62c6ujqSxg+obJ/AwEvulwfFMlog6Qy0bn7bKYLhaPVpCQ9xICI4jMGnGxxskAXk0ixLG9JHEXepqd76D24QllajC9x3t5+AmaMno5PPRuo8/lFYiOQNzVuYTbL3XGGq2HKg4YnFxQ4YoI/p0WXToAIfw3OC61HiSFmjoJfBp5gZyDYckLOPg1lF6uz5bGpfbznYjs69ev/FrvVudFCMAnfKd1CegtiDANKAkqmQGYcz5cV5Pq1P5NsIehQSR4odVLOBrAMrNDFGy9XCd1M0NBABppwXCoc/1xqfuQ4uqFR/exPikKKAATVPRuY2sovZTgBMml7tV5mIZ3ern5m8SJ9+mKuxsp9zKBYJBc6r2mqJJdfXXVFZUz4ut7ttpHIBB/6eU0kRCZvpGNDnuJjRAV1FzzcmVFfEM5vaCUWf2aoed6hZgAVngbaUcv/AfYAtIhMg0t3riIM8LP4RJ+HtG6NgmrxjANH7J44zi47dI0H2whR3MFnEC5bLS1rs6jpjYaJ3EgR/NAF4JAGFEHxKX2a4oWbdOnL/+baVPW3Hbj1IcfrL7/aEP1/ceeqF40mISfL65YdOxYfqtedPTFFQsHDy2/bzCBjquckaj5+tSaO8eLWNOGBh/1Sh3Ry0lV9tFirXI8J1NtdT7WeQg3Gg7d2+CcUceyGPwD5HKro/UQ7ur7jtSqCKxIvKXb1sB5OY90aIIxY6qG+sVCxxnmRWpSIfVw9p6tjiBj0BlA7ug9W7PXyF9P9yHcueY/Cc5FZP4cNj1bxVF3kVxemHPXjlt0xRqtcUn6dlAFJhDgWxqXuvu2sbERlJdohyOFAHAElf4EXPHOHyN3aC/hIa7/ls5Yo6oxnlb0Pb/xcMrv79nqXUvhX6c0LtdoPoQb+vaRfLpcHIBUjHtym6wWSfp5YFy+V47dko2NoM2bEbsn43QCIXCdkhTUHm4VlHJU91ognyl4Yk84OZ0Z8r9zn7qPdu1pdH7VgwvoNjKdLgaALAgxwSVEgxafQLl0zl9zzcL/qa1vQ18hcXTxpoMNHka4IJPCDAj+guISNecaRTLmw6o+09PgnMoLa08hAgFYBJ13Sjdz0w6NizPpwLlrMY5N7ScE370GKeaZ/T/XGW30Ii2Pcw+eLqLG4jAC3UNFd4WCkRAkLHoMiMtNmg/h7mmwT+E1QVxAexhBpQR7G17YgQJmpNAHyuWnOg+QMjYGhtrbehmhdEgnYzI5wKI+7DzaObfhn6R49GyjopxtrqgQ98OjePhZWRGr1xVr1IOjZ6t9jkwXIIWASDcZ8ZGRICBqJj1UhBkUl9OvX3mXzr7NRNBYjaOHSCug+KALSUB9sr5bKpdrl+s9FbKxUbZpUx66racBnGcyOV2F3MavSopEQX4sfm0yMmefARCf3VudNydNmKRtD6FNa4cGvarnythuU8G4NC43rf21toLypS9V/j2sWZ6XYuW1X/B/twjbUriEtWDtF2owNppWcXl3rnrZjQuqkmMCyqFBISLpJv8Dsut3c78DXLDx47XuFzvnzh3zCby8RFggKt0exwXHpTOkc5/vTQ+fPtRNFv6Uf/kIOqR4B8Ll8Ljt822sOJt9Z3xRwYm2AUoYgEQYZJGIKDqhhH0bYNoLuz2uo3tPiE1rzryI1yi6sXR2U7jzuOjmFnqALQQD4nJORXyZ1m3fW52Puqm0MoXbNrqwA8zx4mg7OC7XVJ98ziiSMZ8RypljZHsfGSF0YwJBbrjjkv/Tjk87NtxANyE+gDnOFXzC+c+hycy0bfu+uupamIaLTLs/gy0trq6gdFO48HELhktYnT+us28jX+GLtzxQwDHOF4QsdoDTFFg8l/C/D3VfRcrYKBsa2ACd52I3lsH5DggE+wDj1Pxjef97nQewjJL9Xg6DdrqpiFmOlcq+wn5QEIsAuERNVbNnJ6bqjDeqrfH9zfWrHm9cPbZguFxbnWoyimTMb/XyCK/a58cRe3w4udr/gJsp4Pe3dG6LRW2bbIYvBTsgiPSC4VL3pqo5MxK3w3QMy/FTCTaAIFgJkMsG51RZTRVrbOQNzXfiWzAaQN7hyE/WIWXOSp3HyRjsdbWe72TixNsnwjT8ToZZV0OpkWCAXDY4r+u8MEYO7zfdNAGxr8r82OvYILjc5vxFZ982NgaG5jvJRiclOjPHObsaAOXIpON2NTjCKi1zXkN5NJ2gGTJJjP0JsospIDDN7gfywtI/jxcnX1s1WWe8UT9qsZ/xgogSao8lcrlR/zUujY22Qcd5qSvnTKQgsCKBR8lduWPyG9300dUgikYczrnZfXQUTj9PV2ZOCH1tbkVsJo0DX4ypdDc4XDyJaxHYBsPl4w+f+Ret8UZNVQ3Op/k04ljjGHU1+HtPQ/htgFzqPEDK2BjY7Bmxe3Cn6iIiOdJJCyKw1T2Wdsou7P9u+rjMf4AV7gaOk+MChR2zfOFgv854oz72eeEg0pzHhqpy8ws6Msrr4ghwUFyibqVa473VSfEKr648bg18QWY4yPstFjnjhUAQXHZudV41imTMh1V9JisorOASIsATaUYoSGcmBR0UrtO9lXceJSqC/1Ezj85zQqAXU544MphwMKUE2hVh4ATM5Vs6t30/vOLkSrW04mmmgoytAiwbFHD0x6UZtGPMn218+MxermPJHJV7DPA+3s+1Bdd78L7BLq3xXnPm237TzC8UZecExuXHaEoFXbG+9tp5V8N0faTsl5iAd/sV3wC41N23jY2yocwpdzgg+KSildzvTuy/Tu51geA3e91OzvPAa2q9DuDsGTvmiPHGcNiqWuD5EIkiuFzzoN4vih9ceHQ3UTsRFoCgxAAkGC6NIhnzZdBxftqJZdhOTHjJT8AIdFZkaaEGhf30OZ30OVsdRjA6Bcfnfr+le79YWCi90cngyKa1S/p/AUPA5yoYLh9+MLVfZ6wrZ8Ruhum5SGC3lY9tLt2AJ8AyToLkcnV1ao1RJGPKhgY18Jyxk8nMPDElHbxTcp0u6pqdAufn73Ovofv8G+j5OaIhwQMIxZiu3YhwLJZLuJ3TvbDsbnCOiwqwTs53XoHXpcRT6Vx2ZvrYGzPmKxp0TuEZvUvg0LKtS+W4LSrnAen1OjSffwOJIcThFE9YWRyAP3w51yiVy1UPpNZrXVjeFa8mRRN44M4r9ADlm6JrlM7l3XeYF5fGfNgamEGLEYbOogSFL9BEdLNFdh64OLtix41a4708FVHHTxlnUCofggJX6z72mcKywRlSCyiAN95bgETcS+eyYyt4zSiSMb/R93nGkbZkHS7zuUXigFuozUfk7eXg6N4dW8j7rF3+H1qPSpt2fc0MmJ6/EJjm08nBqGOL/xpNkFx+c9YBraPvx1f9+gU138Ow2aLop8zxpXN55zfa5htFMqZevbw9Xp13uLyDEcIpctoG0TGAfx3ZNfHPLaTo0BlgiuZ9vtu3OL9l8QVC4eWJLoPjFlakg+HSOaVzn+9s0wmJYccWwIm68fRjBd0WVtzpgCJILtsbwEtGkYz5FhSRM+OiwNtwZ6UFQ/Y/T1g6BI7dgWWC1Q+efF7/phNxZEZ/yqJpFmu+kJTC5aw74xqvel5xOUzHWUKU85jhIrtFHCx0MMEEEBSIgXB54Utfmm8WKTambqsLggIKQtlRcFIgyOiYEDTwM79ILGhh7hBEgIVzSJH6ROfJ7NHsdzBtwyTGbKHXgYtNQ15sALYfZKPIBgk3AXAJv1/S+WUaLHweJDAWBg+AEVmp31KCHxSXDy9P7TKKZMyXoECnGs5mbsCIJivAgHBKrw3PNKRD09EQR6w5+1BhozPeyxYcbSzgyMOGTrcAf57AkNgGw6XutZ0Nq4d+pOKnHUyTHwdHHM8GCscguCyDbprGRtmW3n+0QcnBuRtgMgArMEDs1LLfDdxzf6P9oJ3NzhvcNMsEY4sjjaC9/yuSywbnjzrXdirv6p8O03HREyeusPrAMyAuVz9gBu0Y82GTJlV8rn2L8267xDnbpb8B85t2zna/4iG+5590n07zgfnHmtUxkfPRLrhOgFxeXHrf0Wpdsb7qqul/054vLH3iWgwfpXK54eEz/2QUyZgve/jB1KF2yqHaJc7m9b+XULRzvoszDiD+173pBI1whWm5wCu42hWxkkV07ZzrlMIl8o1y8e12z4ADw7cBEMezmAGhvxbLJbzmWdN0Ysxf9XJG7GboRMPtHpm/3UMg2innbceEt53INOT+dmn0DQpNKLljtZ/vBKbhFbFoAiEu7TQuEkEIkEvUFjtR88JyuEOSTpX9PJ9t9ywA/XNpmk6M+ReUBueHMqckvm/O/d7Md9B2KkLxvibgZhzROXp3Y8v2Q26XiIUYy8wG2qnaSLuPrRguV2k+2yD07ZfbpeILuFG5Eo6bxTwUxeVm8LZRI2O+bObtWUHhbpt5Tgh8iUa7grPj9+H+xjadu7Hl+9h7iwLgFIKAgxFQKjBL4FLrIfMzJYVlO68pZLM6huoCr87lMjPXtzG/ggKdbahdwcFVnVfJ4TdT3zfj+4Dw2LbNTkpnvGH1OEKmVVEUNnsct9nxwY86l0vve6lfZ9+G6fyt61OAxdwXD8Ab99K4HL7iiqlXG1UypmyPrjqTbMOcOf+9bbO7yRyxTZgRAHM9kSO30dfhZYjc5x23tt2nK9ZooQaYhotYYcQXExr3/O/NJGYMrhSOAXD5e7Rajba+vfrMt7nCuZmDv0SECfwE4hsEl8sWDG4wimTMV9NJ22aJEAuEl3BmkRAzkXMuetkM5NcR3hs4kQbnh/qiXXE5TMdZnpiKsKcxYPBiayeBcomaH3RFe1ZFbKYrtuImETz9RKFI1Qaz+wCDd1BcRrY4R4wiGfMlKNCB3uU5oDRqphyXF+W5GxBelxEbLKPw7h/Z7AxPvrZqsraCcmeipk0SFYsiZBnGsmNL5RLi/UOdvTsffbdJBDfvo3zf5WEDPH2/SC4vfPnLVdcZTTKmbEvnDybkzgt8CDX2H+Hk6pkDP969lrt/1l2xSs3bYt9TxmGL4xM3L6x9c3lK526as++ML+L6k2/ciuXC3/lmoQZjPq3qMwVB2VJwYlCSo/oQCLmzA2af7tVL9OIySPEQYhsQl7NnxO7RubCE/vKWEsZbFAvGLaUWoFIuv2f0yJi/6uWq03txJ4oEKNyiLeJjP7XvrM5v5tFCDTANf/GLd7HHlMrlo6vP7NHbt88cKh4zEJhfK/r+21deef3njSIZK6J6yTpWhOPEEWVRAArHeR9D/z/zzliF1tHgZue3OIaygiwi5cWfcBfJ5SmdfTv/Ul7mVyQuwLf4BsmlaTox5ltQUCblORgvc0fqxQ5JH8/bLzo/IsxY7v+57Qc6470y03QCiDRx0uiJEff/ev41SuFS58Iyh/eeiERAIwoiK8czOC4fWXXmJ0aRjPl18KY2kcPV85wSUA4KsP8B13lVxF1xu6jz1KWTr666FvWcKWBVj+MHfGJBHV/Px7RELn+me3AC0/AhgVG92DelGNeTGJLnBsPlzDsTjxhFMqZsSAyh452L+HA6sdMLzq+nvwPuf3hUKLr3IzVntH5xCdPwonKmrqcKunoPrOsVuPDJ5d0Vca0HkaxcltrP+F+94+2nHrxE/AYealx+qPOaosbGwGqWnXzOU4SLcVglIac+6yWRZe6/WXcltB1xiWa/k2Ihw6ze8Y626xUK1HpffJ1D82XrijdaMxKm44KopuLJg8hfVY4rgktY2JgRl8bUDU3E31rvXMSdsrUec1J64zkk9T9+fivvP5Ej13MyST12TrZ9EA0i+R96oj3pczA9v2Nwy/wGDnf/Zh9cbBbgXTyXF5fdN7hIX++uuLx1s/OGKP2tHP9qFYk05a+tAl8thUvo22bEpTF1Q2tcQkf8Y96JW+vddrxWyrEZQaacGj8ezxj0d/p8cj9gRJ06/sOrr666QtvCcsGxCI0JgymvJsLBkMabh3WpXKKmB539GzX9SIMCAhPALfh4GLXW8zEvkcsPzUINxnzZrIpEPZ2xRc7JFQvokLz/8GvRQswI/Wb2XFFBULNU77mn0SASXppF+HKx5fzHRI/BcKm9oMA0/JRNpxxrUQ1RemwAXNaYhRqM+RaUzc7rPPFUccRWSYTt5/yI17Xz59c5b+mOd2s98MYyk17eccAbywC5fEjztljUj1oWLRe7udcMjksY/f/KqJExX4aGRLeW6Mwlb5vVj73rdn3nO0FW82CqLkg8Rngrg8LSOVV8+oGkwANqPPng0gzaMebfwTcDroO31IsiDDCWQq/1yx3UFAHxOzfauBbLpe6CsuqB1HpvDBwBJkD4X4vwnJK4vGDUyJgvW7/qzF7aIUXfgxMRtf9bsC3XdHJW75VIKi6vXTl0vFWQTtX9XvgFxWVtzZl+nX37+utXfg2m47yXj4nwKwbHUrhcOv9ovVEkY8o24474ApFYtig4dAtPZJXOB3yBhvtFGQptug/hRov+itJGpz+zv05NaGTcFMtlS73+i+aidyUq4svz4RYBNrl9oFVybDFcNtc5rxtFMuarKg+d6q0WBdH1EoS8gzLn1nlfg7vVcff9XGe8J02qugqK4rkWChdCCOok6afxq+NjFhSXS+brvWgues/AYgPU/E/g29xCLyAu7749ZqJvY+qG5jvxEs2CIxacFPCdu44VcOK/esfzvBaRKOX23X273kO4a5alDolEuFWECYU7F2PFAtAnl1ovmpsJTuqdD7l+WCfYx/NHDjatHgVqkVyeN9PFGvNl0GnOSaJd8X6R8xPfgVL0wWQccabSegj3jBmJ22Gahrk4yvbVK/CgcqxPLmuWnvxWWRSWXkFCnQd2KlsAXK54IBUximRM2WbfEbsn6zxAUZAlmUEivs3Up1BQiN+Avt6FB5ee1HbRXDTCtXmz8zo3k9d5FGjZttEsfvUUlnUYfwFyCa+f0nnQzqyKxJ3IZ5ggok6xqc4raheJf5Fc1ixJ/dCMujSmbNdcM+eL0Hk+bqYcrLlOXPXDj/n/27v20DiOM+7SGkqbukprO8JxUllRcBvX0p1OqtNXLL90OllvWZbSVHe3e6e7090ZQ10IxdZd+oCQ9OE//IcJKTU0UL9KRZvQEFK0JQ0NpcGG+NzQJFikhggTiMiDCCfhtjOKHnuzM7Mze3v2zfn7wXD7mNm9+X3f95tv31nCGa3lEE1s4pR1cfo2yGW4TdeeM0o/cRnadXbKLrx0Uc5Spkk+eNx7YUvVD+WjY//7O00oqb7I4PsQz7c9tGU2bv4LTp0ApIAE8XGecJIOyhLWLCHI2Zj7shJYxHYyutpfPMeZFerHPJM7Bz5YAkIKk1e2TOvmtNKnTnqMUUdfi8n56yEBUXdjS3yUEAg88nVQJICsoLxVjtg6OWzWIUAOiW4XOXh9fUeDynwPhIzj0v0W4PPT+aLphR0t+174dmu+SXHfnqNwWfTCL135MMeW2DdAkQBygtJjHPYm6L0TD1YZDKn99ru2tmNb8SBUaZ68sqXqgoKy75+7Oerzqp5kmVf5TZqAm4CNG/fckUFZViWcnFYy5Ti4bl5T/cLOoQlzujIDYrGs01QMW82rzDf+UIPAYFm8kQMir4wNFZ4ARQJIILD2B4OF52jCmlk937w67SDIGRcCnuG0I5d/b8evdZXZDu4+l+VxzZrOONTJCHDsxpadHeeOquzbkzHzRVFeaJyTHC/Xo9X3wJYLGzd+5x7QJIDMudgjGSKws6SzkoGvM4JfZ08vt8lQgoa6b1rRzRmVuW735X3LRzpMTjiiS62jE3by0JZo+ZzKd0LgU21ZkkOdzQHNPzMcf3T0b0lb9nXDPd8ACWzY0FGPHGoh6+BotCCnZSS2IInR57MxtsNT55e2rfoTl+m4+axNREoy4iJfOGj86naR9sqWg91GRlWu8dOieLDMMDJfKrcOfkut55Ut4+YrcM83QE5QYuZTTCdlOCcnO16qU+RnMDo7gLIxdmBMaubTKnPd2DjazhQAncdlkSveQoLjwpZp3bygsqB07j77Yxkfy3LEOevo8+Xbss2X6wdFAghjy5ahrzGDmjXPEwiec+sS+6DMp7VPXlI9OxkbvnyyhAeiv0gwi0y+dQanIgLt0pb4bZRKJye6+R9mtrw4XaRzovMGyyK7fhm2TGtqP9MAuBkZyq4zjzNFVqQwMry07nCoGTPZgUMXpFl8l4zip6puQ4Ix7ygQPCGRsUuZtlRdUPpDxqis76Z1AZ+UEXtx23zY3jK1DRQJIJt9X1t2orTlN21xLqfltOk00Y613FYvZtnWkqM/OHTptNofacAIrB0bLPwp48AJWXh8lXBFCIMHtryiMudLvv02ixear9o4iLHtw+PUjS27dp1JgyIBpDCpm0+nHcSXzEp4IkwVhxi/Dms7ywWfcqgFrvu7jWRGoL9pgcGQNjhmBNrK2DLQPLVD8VMnFzICXPM4sdWNOQu3S1tOgxoBpIAvlqR1Z3FdLUWhQJAtGc7yTy9YBtaqzjX+UAPib06Om6Iwvxlpm/BtiQZ2pb8p2hcyHnIjqmlBAZcvRV6Scz0QOAb3fAPEgS8EIud5La27dcgKF838aKDLyNcK3wMh44RX3GQqzD0WFJWvNWDfRn2Yq1rfJmw5Nnj5GVAkgFyG0m0cXsm2tBvrtKz9Ta5OXx0MzeysFa7xQzuoTwtuefGCW5ny4GBB6ey7v9t49GYLs4wd2nz5blAkgDDwQztILD9cdrJJGcf0TqTpGUnUPIUyqLqaus4QM/8qyG/RlVhY+PbClm3+/F5VucbvO8G+7ZbHcnzelS018/VaOEUIuMHnvpFTzq4EP0V48e+k9dciFMvFJh5aqXCv1LUKDV18PkGHkn9r2fajXbXGNX6IhBQCG8fEMlb9NMGjlVuvbDk6dAlfTPuMqnzv23XmpySHVE4YvE0SfjtJGSQ9tOW7jY3DbaBIANdCjkoeOdUbJU7rEPBpnSLMGiEulEAocWzNfB9n222tuaO1egEnEJjagfr7cQmfJKeEkDLX6/bBkTpIktuRsCX6VfozaU13j9yH+rBQyl/R1vc0zzcZ/luSlHhjy4Xe4Aw8cQkoHw0NDZ8f6jKSyKleYgkv1UFposESkNXpd0aHCo/V2mkSGg4OXn7GzmeRHug0YdAEBVmjC46kLRdU/zAG8qsnnPyVmWDI8O+BLfuC8KEGQAVwvy/fMBA0jiAne5npgLLz2mIW+g+c8d8qL+lpaz62FfX5Ol8AXK7TOBmfpaSchMUy3x+ayanMN75NE/VlnsZhyuGohs5zkcttWbaMmm/h/wtqA6goWlvzTQF/7khKN0+jIHgFOeB7KY0ICsovqn8VrTfSmnmivTU/dCt+VSSpm9PMLJAhtiki6FMaX6CFBV2328y6P/R7VfWBtbd75jdUHm18FLkZcorHs0e27EdHu6AugJsCv/8nG1pbpwLt/qmdrS25IM6q8TR+as+Hsnd4DeaaNQFfbj9VEHS6SKScsmhCBFKUdimOeKUc9oPfF6Iy39/yT7Xgc8opjTo4Me0wSfCV0viceWJLTe03OwIANQ38/g0UqG+mKMJqE1nO+hRDmFkilXJYxqozOlT4rcp819X56lJLp/tsfdTl+HbLqagtUfkAX2iFKAEAqhT4rh43gpoqQ1xct4+q/03RvpBxkhTrG8afZDnYXxvv9AEAahZJrXgx5aFgV7Ls23n2MZW5xk+4okFoQay/Ra4AT94AvuGebwCgioEvTokGczLKXV8sVywctr9YtmwZ2aoy30i8DSE+ooLLKsP1ii0hQgCAKgW+0wYF6ZxbMV2ut1xYbZ3WC5eI+QeV+R4IzgyTXLjhvBIDI9WWUbXf7ggA1DI+e3Dg0nSSIcIlQW0RgeV5UphpAp20bochFNQBgNjv4rqo+ca6ddu+oirZ9fXf34D6cS1FcJJkCO1K/2lCy1vunS1nVeYbAKhp4Jc/JQlBsIkmuZwnwhpHjEmx0OhtyXVW4ce33anMd2fHmV/Q+EzyjmQ0Bo9Ris08tqXqfAMANY2DA4Vz1EyYIjBJjZ4ZctvTlmt8wbctX2ozGTGfVJlrfNcM6s8VLg+aAH+cIxcvbZmImr+HCAEAqhSbN+++EwXqdWaws4RD4ywTKSzh17h1FlT/KHRP0MiIijFzvUbPvFNOdeVt+aHqfAMANQ2UYZ0WEdwEa5kmXl9K4CmlL2gcVplr/B57xMtcgieomgveNDl+RW2J+D4CEQIAVCnw6wN4AZwQPIxPEMsSMlk4R1wSxK/qD+30hIwTtL4leKLqYiD0xJZRcxYemQcAqhS33da0AQXrLE00ExyRYQkNq06CI8q8abIcGCgofdvg3l1n+lE/ricEOBGxgZPNyrTldXhoBwCo7lMn0yKiIFuSLuomnbf1jsrZ4NKpk/fc8Jcsk183thwZKJyCCAEAqhR+f25PogyR9kLoZYTs4EBB6Y8H9ISMk44CHKn8gClqS/x2TogSAKAKgT+ai4L0VTeBPhEpb71QsW9jbt26b9yrKt+9wZlht1xNVHCAZO2/p2sGbhsEAFQ7dcITDiGxidjr0pYtz4uKfa/CHw/Ar4pF/VzwdICT3JakLefgwiUAUKVobBxqtwY2LbgXC0ecyfUTZHuyPqUOdZou+hdV5nvPrvPpEt4IXniCOkG047XxypY9in8YAwCoaTw4cvU8LYht01YBidpFxCrMNkGI2NvTBJ67j0+Xzav8tsH167d+CfXj9Ykog7uIw3SELfwTlKObcm15cPDS7yBCAIAqBb7nmykkUaI4CQonQ6SJUkJ0f5Y6KBt8SGW+e4PGcaZgsmwgyKfjduRtCfd8AwDVjIlw8SI183XKziwlvlRsYhJ1ziCp+2S0SUTMCypzjT/UgM99i2TWjpw4CbwHtsSvtoUIAQCqNRvsMpI4iOMRQYGNCJRoqRjQpmW2Y23nV/ztd2gA+ots/0nenWzloS0LECEAQJUCf6ghHjbnrFlX3EGQySwt7kKk44z5OCnaRPZ5oL/wnMp8+3y5fmvfaNzFnY5sWHxG6bYpx5Z7d56bhCgBAKoU+zuN43FKAHMFllE/7iBA8QhfOERE3+/P71WVa3weORYxX5uIiAkobV6mjQe2vHr77Y1fhigBAKoQ+x44242C9HpcUJDjksVNm5USti870HfpVyrzPdxXeMJznipnl2uB7VPbIUoAgCoEfogEBelc/AaLh5CohO0C3h00TqrMN77Lp1q4FigLLS1T2yBKAIAqhb8lr1ck+JeENxZ2l2UzyvOq38bGyr6rsfTCXScAQHUDBeqLrAAmxVdEjHEdaz3HbYTpyyjbfn3Tpo71KnONBp+6WMScL4fDWNidGMvacn+ncRSiAwCo8sP5GCEaVvGIhcUDn2wTY9SNhen1S5ZFbPOz9fUdDeof7eQelhFaGjdWfmxtPbJld6eRh+gAAKoY+EMNKICv2ISXEOAYbZ2lDrMtKUDWurxtWtujMnbgzX/i/1oDw+VadGTxEotfGzcMjuIEj7xB0Y0t9+w8/zOIDgCgyjERMaeZ4kmIaNxJcHlCQRMo8W3+u1ZuX8NZLY0XK88xUZ6t4h0RtIcA7/uDxsMQGQBAtR/KN+f2CIlxxEEYZNZF5Lahh83ztfLejc1f3X0n6tcCs/8RAX5kxF3elu8HgzP7ITIAgCrH4kMkYfOitACEF0VVXtBl20XMj3oU/6o8CdSn0+WKsS5zOkTOlh93dRoRiAwAQIVD+S4j6SishHDoknVo8yXTkdJffXXdq83NUztqie8239R3ZbgU4VSnCLhLW17xof8HUQEAKAD80VwUtHMsMdEFxFfnZJE6o4hk5UP9hT/W4qtK9XHzAim+Oi+ztq8v2sTbYcAUseVQX+HPd9zR+UWICgBAGQTW+nz5biSWp1AQz+sc0eWWcZftCFHRwmah44Hz+cbNw/fWKuONd422D/QVjiPOZsvljDc4CtT9YLD38lnf9tzIpk2BL0AsAAAKA2e73UHjMArsWWHBHhcQ83FHof8ECfdT/u233hfNEd8Z1P93KzZo0utcC+2byTXUddSB1wMANQacjQWRsMTGzRdcCUhXagoAAADxSURBVMm4g4ivlvloxDx1990j993KfN9119im7i7j0ZWBc4krTWCQ1MbFxR5fqMa3BTY1jWwALwcAbgG035ev9/lyESQAzyKx+NhJMMj1eN66DE2/0dVp/BJtc/+aNR2fA4ZL0bp9KhDqNI6iI5KXRThe4rfI4j8WMV8IBY0jgW8euwfYBQBuYeAPPLQ25+9v9eUykbB5IjpuTiPBKCCxeRv9LqyISNh8H83PovICyvqeQoKd9zfnhlu35ZuARXEEAo+sxwOdvyV3RPuh+STi9Xk0kP5XI65VoPn3ENdvomKg6Sd9zbnD+L5+3B5YBJD4PyUR6t+o4NgCAAAAAElFTkSuQmCCBZZRP+4gQPEIXzhERN/vz+9VlWt8HjkWMV+biIgJKG1epo0Htrx6++2NX4YoAQCqEPseONuNgvR6XFCQ45LFTZuVErYvO9B36Vcq8z3cV3jCc54qZ5drge1T2yFKAIAqBH6IBAXpXPwGi4eQqITtAt4dNE6qzDe+y6dauBYoCy0tU9sgSgCAKoW/Ja9XJPiXhDcWdpdlM8rzqt/Gxsq+q7H0wl0nAEB1AwXqi6wAJsVXRIxxHWs9x22E6cso235906aO9SpzjQafuljEnC+Hw1jYnRjL2nJ/p3EUogMAqPLD+RghGlbxiIXFA59sE2PUjYXp9UuWRWzzs/X1HQ3qH+3kHpYRWho3Vn5sbT2yZXenkYfoAACqGPhDDSiAr9iElxDgGG2dpQ6zLSlA1rq8bVrbozJ24M1/4v9aA8PlWnRk8RKLXxs3DI7iBI+8QdGNLffsPP8ziA4AoMoxETGnmeJJiGjcSXB5QkETKPFt/rtWbl/DWS2NFyvPMVGereIdEbSHAO/7g8bDEBkAQLUfyjfn9giJccRBGGTWReS2oYfN87Xy3o3NX919J+rXArP/EQF+ZMRd3pbvB4Mz+yEyAIAqx+JDJGHzorQAhBdFVV7QZdtFzI96FP+qPAnUp9PlirEuczpEzpYfd3UaEYgMAECFQ/kuI+korIRw6JJ1aPMl05HSX3113avNzVM7aonvNt/Ud2W4FOFUpwi4S1te8aH/B1EBACgA/NFcFLRzLDHRBcRX52SROqOIZOVD/YU/1uKrSvVx8wIpvjovs7avL9rE22HAFLHlUF/hz3fc0flFiAoAQBkE1vp8+W4klqdQEM/rHNHllnGX7QhR0cJmoeOB8/nGzcP31irjjXeNtg/0FY4jzmbL5Yw3OArU/WCw9/JZ3/bcyKZNgS9ALAAACgNnu91B4zAK7FlhwR4XEPNxR6H/BAn3U/7t;" parent="1" vertex="1">
          <mxGeometry x="683.9300000000001" y="213" width="77.07" height="80" as="geometry" />
        </mxCell>
        <mxCell id="cbM6A1yNYQYUW-RANY35-21" value="EL" style="text;html=1;strokeColor=none;fillColor=none;align=center;verticalAlign=middle;whiteSpace=wrap;rounded=0;" parent="1" vertex="1">
          <mxGeometry x="671" y="349" width="90" height="30" as="geometry" />
        </mxCell>
        <mxCell id="4l1OQndtO7_gk13cfOr1-14" style="edgeStyle=orthogonalEdgeStyle;rounded=0;orthogonalLoop=1;jettySize=auto;html=1;exitX=0.75;exitY=0;exitDx=0;exitDy=0;entryX=0.75;entryY=1;entryDx=0;entryDy=0;" edge="1" parent="1" source="cbM6A1yNYQYUW-RANY35-22" target="cbM6A1yNYQYUW-RANY35-26">
          <mxGeometry relative="1" as="geometry" />
        </mxCell>
        <mxCell id="4l1OQndtO7_gk13cfOr1-15" style="edgeStyle=orthogonalEdgeStyle;rounded=0;orthogonalLoop=1;jettySize=auto;html=1;exitX=1;exitY=0.5;exitDx=0;exitDy=0;" edge="1" parent="1" source="cbM6A1yNYQYUW-RANY35-22" target="4l1OQndtO7_gk13cfOr1-9">
          <mxGeometry relative="1" as="geometry">
            <Array as="points">
              <mxPoint x="1120" y="291" />
              <mxPoint x="1120" y="291" />
            </Array>
          </mxGeometry>
        </mxCell>
        <mxCell id="cbM6A1yNYQYUW-RANY35-22" value="" style="rounded=0;whiteSpace=wrap;html=1;" parent="1" vertex="1">
          <mxGeometry x="828" y="236" width="210" height="110" as="geometry" />
        </mxCell>
        <mxCell id="cbM6A1yNYQYUW-RANY35-23" value="" style="shape=image;verticalLabelPosition=bottom;labelBackgroundColor=default;verticalAlign=top;aspect=fixed;imageAspect=0;image=data:image/png,iVBORw0KGgoAAAANSUhEUgAAAY0AAAF7CAYAAAAubNfVAACAAElEQVR42uxdB3hTZRcGSlkFSlkqKm5RUfxRUVGUvfcWFRCRKaLsTVll7733LN0to1AolFJWaRll773JTdKWzfm/98tNCSFt0zYpaTnH5zzF3HuTm3tvzvud9Z4sWVhYWFhYWFhYWNJPiOh9oQOE9hc6WOjHZtvLqa9jn3pCc/NVY2FhYcm8oJBTaFOhI4SuEVrGbHs1el4amG0fZbLtttBPzbY3EzpQaAWhr/EVZ2FhYck4AOEsNJvZawWFXjUx/H+ZbS8l9KHJ9vpm20eYbLsk9C2z7atMtgcKzc53goWFhcWxwQLewnShJ4UOM9uWR+gBE8Nuvt1N6EKhYUJ3CC1rtr2DejzeO1Soi8m23EL3mbz3fLNjiwhtJfQToU58p1hYWFhePmBkFRpsYrhh+HOYbEd4apnQEKFrEU5KxftnE+qq5j+cTLYVFuot9K762T3Njq0k9KlQjdAAoZX5jrGwsLCkH0DAcJcXWsDsdXcT0DhqnluwFLay8XkVFdpEaAmz1zuZ5Uv+5bvIwsLCYn+wKKpWMO0R+gRVTGbbGwg9K3SC0P85SihInEcPEy/kjoUkemk1tJaN7zILCwuL7YxvKTXEY5QBZtvzITfhgOftJPRDtVQXVVZ5zLaPU78Pciof8J1mYWFhSbmhReL6M7PXcqn5CMhFJJczwfdErmW/CRAikZ+VnwAWFhYW68GiqtDNQqMt5C1qCu0i9PVM8n0/EHrQBDRa8FPAwsLCYr0RHWxiQGNRefQKfOd31SQ+vKj3zbb9gOQ6PxksLCwslg1oRaHxJsDR5xX67tnNk/fi/2ep5boDHTFfw8LCwpKeRlL2PZi9llfoJqEXhLZGxdQrfH1KCD1tAqCLTHtPWFhYWF4lg1hALY31B8WHyetoovtOaHG+RrIp8LoKGPA22vOTw8LC8ioaw5JCt6vG8D4nf5O9Vug235pZkv8sLCwsKTWE6FeIMwm7TOarkuT1yiH0TQuvVxb6FV8hFhaWzG4Ec6sltY+FDmIq8VRdw9eFRqod5qApycVXhYWFJbMYuKwWXgNtRk2+Oqm+pq1MPDVQqvzDV4WFhSUzGLcfhXqBX4mvhk2vaxWhR1TQ0AutzleFhYUlQ3sXQuuqA4sgs3mWhM2vcVE1Se7PV4OFhSWjG7SPVH4oo6C0Nh9fGZtf5zwWpgii/8WZrw4LC0tGM2hG9lYfTnan63UHG7Cf0K/5arCwsGQk41VMrY4qylcjXT2P1SpYHwMtC18VFhYWRzRW2VUKEKb1frn34U2hMSZhQTRR5uUrw8LC4mjGqq/K0uriwCeZ1f3Unfzfh2rezeFz9/OWu3XlRh+J/f2PfbpejXbp3X8O1U7+crOyoHSIMu/LEGX+/8TfamG6sU3Etr8jtV0nHNc3/SFEWyaH1+1P6oXHFfsj1DF7I9TwlJFuvSU/nSwsLI5mpH4Xek81Uj0c5by+jiTnqSdiv6y4Xduqdrh2aNUwbdDnm7X7Cwdqrmb30TzKslZDWTyFrlXVKxE1bvc0/H9OX038W+uUs19t0e5stlO/vMYObdd/98dWn3VaX9SB7gn4u/oIzc9PKAsLiyMBxkfqXG6jzHlZs67HHSSXXyLiSvc6qO/0/Vbtmhy+ylEXP42Sw0dDWY1GXzX8WbzTqF7PgCSr+P/cvponefw014uvV0LaR+oHdYjSlW0aoS3ogPcrH4cQWVhYXqYRyq9WR0FWpHdZ7aJzmgIjj8bVKrFRO/nTTdp9+fwVfYL34G0jgLAWRIwqPj+3nyb+42BtTKlNyiyPmNjqQyINc8FfpsEWn/2N0HVC3+Mnl4WF5WV7GwiFFEmPz2sfeTVPx/36Sk126acUX6ccz+b9zFinG0hYAyLq+WQVnk6JYGV//XD94GFH9GCtdUpv8FAr2YzMwotRuMBPLgsLS6aWutuV91rv1XZ9f6OyPZev5tFzHoWjqxrKcgtQ7pQN1S7ufyiuZqhGzhTJnh4Aos7m0JjM5ujJTxQLC0t6rFjBUFsa/QDp8XlNPcmpyz7dj2W36uYUCNDcSsgleGUQsEgkF5LVS/PkqxDt5qExsS2O35J5hhzpcO+GmuSehvDTzMLCkh6g0VCo1t4r1Z4Hr7v0EKvx0iHagNx+Gl2GBookvA9nb83DEhuULaOO6hqeuUuu9uTnAn260AUqX1UefppZWFjsDRhvCT2qrlQfCm1g68+oEErZex3UNy69RRuezTsDhZ/SmPvILjyP77Zo/Qcdii+rXuusdrqHOYW68dPMwsKSHqAxzCS8ga7jz2z5/hOPxVb7crNuqzCkjzI9WFhSAR7OPoq+Qqh2svfl+Lf4iWNhYcnooNFMnel9x5acRhOOxJX+ebvOy8n7FQULCzmPYkHK6V8idH8ip2Pne5pbXQzU4yechYXFHkamvdBRtnivSdGaAs12aQcW9tfccqhyWUfJd/hoHny9Rbum60H953a6l6jcGql6jgeEFucnnIWFxdaGJmuaZzWI9xh+OLbaxxs1Oxkskg9ZFQ3UnO8RrWvtHmrb3gq1OzzcJOS4ihPkLCwsDiUtD153qbdTGZPbR3P/lQ9FpcDrAA1K7XDtoh6RusI2Bo5aQuNMqNTf5qeUhYUltQYltxqO+sgW79d2X1zpz4KVbZmyfDadqqxKbFT2d4/W/WDj++wu9ArPGWdhYUmrMWmtrkCjhH6alpBW/0O6PwoGKNfZu0i711EwQHO7wz5dWxveZ/CHleAZ7iwsLGkxJBjms1cFDZ3Qaql5n5rrKWfdncr4HFwZZVPgyO6lefTHXt3of05RTn5aWVhYHAE0mgp9YEyQpuY9/oyKK1Z+m+LD4Sj7hat+DNV5LjylL8JPLAsLy8sGjRxCPYTGgzokpcfXDdeXfH+DNoyro+xfXVUyWLOz2wF9SRve+89Unqpi/EtgYWFJqQGpIzRFw4T6xsSVKRqojeFwVDrpGg19vFE53nGf9lsb3O8PhB5RPcw2/AtgYWGxq4yO0ZV7Z51yRnoYbNDT1ePI76c5PeqIvpINQOOqChq7hRblp5qFhcUu8tsu3Y+FA5Xz7GG8vAS5m7/mVotdurppBI6JJg1///CTzcLCkpixKK4mwFPcFdxqj65ssSDlBAPGyweO3D6aWyMO6xqm4Tkoqw5sWsmjYVlYWJIyFj3UqW6Y9f2OtcfNOaH75J11AjA4JOUwoSpXP80d9xhdvVQ+B3mFlkH/Bv8qWFhYEjMUbmoM29iXUcOa48YcjH/r82BNOJKxbLAdy+MoGqBcxix1frpZWFjsARqNTfoy1llDSugerSnwbYjWj0NSjutxvBGoHG++U1uGn3AWFhZbg8b/TDyNZCkq3Imy1QzTjWPAcHyP4531SkSjnZp30vBsFFDzHC78S2FhYTE1DkVRLSP0teT2/X2PvkNOb80DbtzLGMDxRYh2GRiGU/FMfCc0Quhdod/wr4SFhSXFMihG96Obv3KNvYyMQzmCees/hGoHpgI0mpmU347kp5+FhSVF4nNZV+gTJL65UirDAUcuX0VfLUz/SwpBo4g61Q9yMSVVdSwsLCxZaoZpp3GlVMYNUxUOVE7/uz+2VAqBY4QKGvvTSJHvKrSU0HfNXkfOpJ/Qeepnfc+/NBYWBxXxA20i9E+huZLb9699+ia5fTQPOY+RsSuqvg7R+i29bn1SWzwb5YQuSu0McbXvY7gJp5Wn6ewOTAsUesgkDIbt2Uy2v6Y+p1/zzA8WlpcLGGCyjVR/qP5CCyW274jD8W8XDtBEMWBkCkr1p92jtf+l4DnBXPisVu6bTZ09nt3ktcJqMt0oIQASk+1vmYHGFLP3bKiWg6PxNDq1s11YWFjSDho/CtWqP9SgpOhDmu3STZRhKQaNTOFtoPFv1JG40jZ+nhB6WqL2+bxttm2lCSjsMK3QU0FlutBNQk8K7Wh27H8mxz4W+gv/ellYXg5o9DP5MSbamzHzlL58Pl/lLldLZa78RqnN2tXu55IPS1r5LFUXelt9lsBb9bPZ9rKq8YfX8I3QnIm8D0bPupq9hsbTC+p7X0MZsNn2RjzfnIUlfUCjhepp4Af5iaV9ukVQ7lKbNYFcLZUJw1Remif9D6a4mspF9VALm71eW6WfMUpHGz+ryGv8LXQcKrpMXs8jdIP6mfBWPuJfNguLfYHjc6G/Jdbt+0+07g/VwLChzYTA8VqQcmBijLaglc8KSAy3qZ5ETbNtSHZHCX0odLXQ0un0/H4l9IYJWHlxspyF5SXJrNP6osWCNJEclsrcwNFil36AlQa6sjr+12ic81jwNtKV50qtqIoxAY3u/Mtlyewr/awqw+y7Qt+38EPMZVppkp5Sb6eue3Y2rJk+t5HPX3PGPUb7oRXPag6TKqhYgIiD/IYKqyW9qMp6y8Lvx5ktDUtGBYiC6qAj8xr0cNWth/xudkwFoduFLhW6LL1WcpOOad59M0g5zF7GK5DbWKOhVnt0HlY+w/WEXlGf1b6Otvgyey270DFC3a0tGWZhcYSHOZuaM1gs9JLQCWag8Z7QWybudS+z46sKvWeyvYXZ9opqJ20layfuqV7N90l5MK336HpLwOBcxqtRguuvXFp2NvZLK41zIaHFXpYHnILfXgm12gr9HUPZGrFkJOAIMet2zWWy7QMz0BhvduzPJnHkJ0J/Mtvey6R+HUnKN6w4n9HqMWFIJJpvdz8Y/9Y765Qorph6hVR4G80idCMz2e/OtL8D0omtEYsjPaBwhesK7QouHbNtq0we3C3omDXZZqQjb6ImEj83daXVeG0foROFDsb+Zu+92OS9T5rHdBOJS29S91eEfma+T8d9uj8ZMF5JXiqrchsZ6DdZ2oS6BB3ljdlSsTjKwwljv0dd7d8X+oPZ9s4qcPRUyxaz2vCz+6phL1JzHs4m25Bgn6qCkpv62ocmTVh7zAEu9JymwBebNDsZNF5N4GgSoeuZyX6beN73CZ3DlorFkR7M39S4qVEGp/PnF1WB6wuz16uZNFydVPMfX5iAzHRzABtxRFefk9+vLmi8v145HHhVVziT/T7fMF8csbC87IcSScGrqgvsK7S8g5yXu1lM9x8TkGlrfp4AkLKhOk/2Ml5dze6ledztgK7NK/CbbWGeH2RhsceDhq7XoaBIMMs7ZFeTyy1M2T0d4HxRPTJF9TYumnsi5jLxhPbbvH4aDXsar3ZC/Put2g1zIjNvb4P4HZQUekfoOaYdYbHng/aRSQL5pDVztB3o3H8S+pfQ3Ent99tu7VD2MjhE5eqr3J58Uv9zJv4tLzXxvoPMCRJZWGz1oPUzC/W0y0zfL+yavsiHG5XdDBqs8Dba7tOOSO2zNPXUnfxtIpWv2u3T1hwWo+vbKVI3svVu3fjWe3XjpIp/d9yrG+V+WNe/435dnV/2KN/Mt5L/yka/5foqf5axqqoeWzgWezxopVWX9rE6M+DTzPT9pp7S1c3upYnj0BQrFg5fbtLuHhsT+7p1zw7lnH4q7qsWu3V9XQM0vm+vVw4WCdRonX01j+Tz5GkAoufU0+DVOPlqHhcO1OiKr9ccyRegCWiyWzto6qn478cdvO5i59/znypgTE6Mpp2FJa0PGThspgkdYtrRnVmkRYR+Ms/+ZjVSi2T31jz994CuTlLPTMtd+k9r7lD6lNmiDcvhrYlNYA9Ym0C9bi1FOyUsVgAk3sq9Lzdr91bYrnVP6TzzFPyec6o5yMJs3Vhs8UCBOLC7aaxTpU/IkRlpl1edjn/7ow3KQQ5NsSboag0126Ubb+l56R6t+6HqNmVePn/NLXV8rF28Hbx3Xj/N3fLbtMta7FEqsWVicVTAQE138KtEszz+aGxVscJ7zDxTrM/1bGxUooMuKAkkgKOOxX395SZlYT5fRZ9uvGSqFyI8mfs/b9MGDIjRlTMu4uzw23fCwpCtIEtKHpr8ajWFUQ4nR8uRGeTX3bpxHJpiNTfWTt4KvI127jHxxRtF6EYKz0L/0kgsVY8mp59yr2aYdtK043HFbAke6kTCcSqhKFOps1j94KDfYrYKGA/N+zEyo6wQK8nPg5X9HJpitWSo8/prtEUClRsOw3iseh5vBinHekXrm9oqv6iCBamM0rXYGrKk5OEBbfjOl8WIiaaqwEvxb845pXww88S9942K/19yJr548HWyaVXJ3DNxZbJ7ax6wkWRNMlHtgOGzrGs1T3/fpZ/WJ/Kuqw1+921UFmnIRlNSURYWax6gIvbs7HaPoRxNd9wtPjhGX7HXIW23Stu1095apwly8tbsLRyoHCsapNwsFKjcEXrbRO+IFd/tN4KUM84+mv3i/zeXC1Vmd42K7T79RFytHlGad2quT3npYPt9ut7sZbBm5PLgzzfpQqec0X6Uxt+8i8kIAwYNliRzGGXSY5gMwkCd9+vqlghWxn27RdkmjP9lZ2/lnnT7TV1/r2R07fOrLbni8tY8eS1Ic6XsVm3wp8Ga4R4CjCZeSrr72yhlt+q8GTRYM3rS/q0gzZGeB/WV0mgP/lGLYIqxdWRJ7CEBZbkWuQt7vH+F0Jt5O0TFVm4QoZ/25nrlhLOvdKkTyglt5vZ7PRvbib85fDVPSm3SRn8bovSuE6Z8ldj5TTgd/7Y4r/Pc0MeaKaYPBio3/ovW1k6DPcjLbLgsST0gNdUhRKQS+v1gq/duuVNf9M89+o4fbVS25/LRPLE5SFi5+pI8Qv6KvkyIzmvwYW3t9mYkdN32a2vk9zVpymJlzei8Wf6am/XDtZzIZrELaKw1Ka0FnXmauW9GHtMV+mufrn/RIM3ZhFCSl2NUm4i/T0ptVrb+ultX38hgWmOH1j0bexmsmQw48gvgGBsTW4OtHIutQaOaChjRQt9Jy3v9GX4rX/MIfYc31ylHs641yzs4mAvvLDyfMls0gYNjYlt8FqwJ59AUa6YcXRuguTzksO6HNNqI74Q254Y/FuMDkUOdvV0zLe/TIkJfvuQmZcsLSWpHLqFc6yBeECurHRdI767XHOkRpf8sFbYhpzqH5r7a4FucLSaL6QOSqua90Wfuulbarh2R11ej49U6K6tjAkfpEO36ISdSNr5W5ZnzMwlfN2FL+WqCg1NyQ4islX/2a7//YrM2jFfrrKyODxyNI3SjUro4xIwNE9DwZPr0VxM0UIO9Oi1Tupp6ktPvu3Vt8vorN7m3gZU1Y4Rjnb018cMP6xul0F6g2W+H0ONC/8iM7NYsST8AXwu9qa4aFqdm1eB+jnJ9t1U3Mq+v5iGHo1hZM1Zi/J31ytFF5+69m8IQVYlXgbCUxfIDYFpeu15onpQc32+PrlDFUO1yDkexsmbk/IYyj60hi7WgMU4FjCtCUzQJbMTh+LfLhmiDOBzFypqxw1R5fDVx7SN1DdgislgDGrmFzhU6KCXH/RIeV+zrEN1WBgxW1szhbZTZomybf0lbkK0iizXAkSsl1VMzzsW+XmydEsz5C1bWTETzvkZDnSO1/6bCflQU+isPaGKxKCtP6AqXC9WuZw+DlTXzeRvvr1cOht2Ke8NKsMgjdKYa3j4g1I0tZOb0KvKoK4MUrwrcY27mLb9Nu4YBg5U1k6rwNjrs1fVMQYRihwoa54SWZAubOUGjrspc64Gbbu1xYIGtvVM3PitXSbGyZuoS3OLrlUNzrOwUFzZkuAoacWmlHWJxTMDIJtTLpMS2l7XHNtul7erkrXnMgMHKmvmB4489+o5W2pSGQh8IvYYIBlvZzAcaZU0a+W4ILWfNcR32xtZw8VU0nPhmZX01QlSlNmtDIqyYcKlO+KzMxIWZFzTeErpOBY3x1hzT54C+5BtByjH2MFhZX51Kqvx+Gj1GMLPVZAFwFERYSugXyZbWxtzM+z3PyWZlfSUrqX7app3KFpMlRdJ2n653wjhW/iGxsr5SeY23ArUx047fe48tIYtVsuiE7qfcPspdzmOwsr6izX5emqcDY/RWzctQSQxzc4PfKyqel7QF/7dJuwMJMf4BsbK+ugnxxhHaWe5E2ZIBjK+ErhK6B0lxtqCZI4/RVGhVa3nv64ZpB3Meg5WVQ1RvBClHPQ7HvpaMfWljUsbfkC1uxgeMwkKPqTd0THLAgYHzbhikxGEpVtZXPkSVzVtzf9yJ2CrJ2JhaJqAxgK1uxgeNZuoQeMjypPadE0nOZUIUL/YyWFlZjVVUbffqBydjYz42sTFTUzo+lsWxACO7yZClewCQpPbvdUDf3EmsLLhaipWV9RllujYEC8ok7Iyb0ClqXqMpW96MDRpFTEDjrNA3E9t31CHF7b312hAOS7GyspqGqAr4ay4vuBhXjC3qqwMcOYU2F9otSS/joO4vHtnKyspqrrn8lHsDDyWd12B5xST0qq7wh+uVQ5zLYGVltVBF9bT9Pv3fbClZEqTNPm0XDkuxsrImltdosUs7gS0lixTMBH57vbKfQYOVlTWxfo1vNmuDPRMp10cZv9BiakI8G1vVjJvLQBnc+8nt1zUqtqV4KB5wLoOVlTWxZHiRIM3hn8Isj4FVSVCPCL0k9B+2vhkXNGYLvSt0tdB3Le0DvvzvMe+b6UJYWVmTAI3Cfsr5puG6EonYmgJCT6hVmkeFlmALnPEAAzfxuHoTLwv9yNJ+s47rK+Xx1Wg5NPUKqY9iolrK4gvVJaHaZ2p6LF/LVyo8VdRfueUeoyuXRIWmn0lXeBu2whkPNP5n0qGJhpuclvartF07jSumMrnC2PsJ4+8fa/hrNPhedynLmluUddUNyrb8SqKadcVVyrr6BmX1vPUMdBLeU//8e7JmWk8jr49y75+oxBlv1bJ+yAWe4pcxQaOJUL16E4dY2ifwUvybBf2VgwwamciD8FUNudGYC+OeTRj97LOOU47x+ynXsO3k0ncD5e3mS3k7raJ8bZeQa+v5VODXmVSgxYwX9ZcZ5Cq25f9jAeUX++btvFoem6ffRvlezuMjKfucU5R15fXngYTBJNOBRi4fzdMq25R2SdgcJ5XbboopPTr+LXSs0C5C87B1dlzQAH3I92joE/q1pX3GgCefm/kyPlDAOAfGyX9nW3aZsk8/TLmHh5GLMO75AQjNppBbg/HkVns0udX0INfqwyl/1WGUv8pQyifURWieyklr3ioGzVd5CLmKY12rj6AC4r3kezacQAWaTiXXP+aTSw9/yuURTs7TY+S5SCDBuakAxvcs44JGdvG3eri2SzJ2B2GqvKbcU5gQarKAPSC0NlvoDCjgx68Qql3FXkYGDTcFxMq/WVddF17EMco9eAvl67iSXFvMJLf648hNGHUY9zyVhlKOikMod2UBEjU8qFCd0fROs4n0WevpVKbDHPr5n4VUtftSaubuSb8N96Jfhz2veK35EE+q2mOp3Peb9nOpZKvpVLzpRPFeo+R74r1zVHCX4OJaZZj47OHyHFyFp5K38yrK7b6Vss8+LkNcCZ6IDwNIRgMN2IquUbq+qVjA9qLnpQtb4AwoG8/HvVEoQDnPCfAM5lEIg5vV8zY5zzhCufttkJ6EW72xVKDaMOkFwHDnFoa7QK1R9E7TSVROGPrfRnhT/7khNDcwktbvPkl7j12hk5du0427sRR3/yE9ffKUkpMnT5/SvQeP6Lo4BsfuOXKJ1kWcpNl++6ifeO8WQ73ox7/n01tNJpBrzZHyHPJUGkL5xTkZQQQhrjz9gyXIZRHfgUNYGQ802u/XLUgFaMDTWK8+SoeEvs0WOANKnwP6Zk4clsoYasxNLDpHOYdskca3YN0xVFAY47zCm4CBdhUg8WnLadRk8BryWLadAsKP07ELt0mJvU/JQ4Jt5K7uHh05d4N8wo7SsMXbqOHAVVTi96kSRHIJbySfOM+CwgMqKEAuf5uFlGvINvGdzqu5ED3f54wBGrPTEC5vgQFN5rTp4v/rCn2LrfLLzWfkwU1Kap+KYcpCDk05uGehhqCyzzgq8xMFGk8mtxojyEV4EzkrDaWCdUbT953mUffpwdJQX76ppcdP0gsikpcnT57Q+Wsa8tp2lHrMCKaynedLDyhnxaGUV3ogI8hNfCfkQZxmH3/2ndnzcFjQ6BKt62ljW/Wp0KtC96EZma33ywONDkK9hbZGW/8L+YyYm3lfC1KiOQHuqJ4FVt0KZZ95jPL+42lIYlcbRnmqDKX8YtX+1V+zqdu0jRSy/yzdUuKIHAcnkhSc64bdp+jvSUFUqs1M+V3yCA/Erdpw+R1dunqR06zjz0Jx/Cw4HGh0O6DtYmNbNdrkEUFz4HdswV8OaIxRb4JWaCXz7ZNP6n928dXcYdBwzAS308Jz5PKftwxBFahqyFGgSqlm7+W0NPgAXbujp4wul29pafGGaKrWc6n0PnIL78lNfNeC9caRS3fheSy+YABPrrhyKNLCX3anPKeRjK3qA6fUGOEUWoEt+MsBDU/j4k7oN+bbex7Ud+VSWwdT/1jKuvY25Rq8hQo0niRW36h6GkqutUfR7yO8aVvUOXr85AllNnnw6DFt3HuKfhm6VgDjKMpZaYj0qtzENcg1JFRckzuGpkR+RhzC28jvr9HWj1A6uNuQlFA8Br8KvS10MVvvlwMYaKQJMunMfIFg7MdQ7XKumnKs3IXTzKOU/89FVKjGCLnqLiAMaPMhayns4HlpWG0tZ67epRFLt9Mfo32p/7wQOnTmRqL7Hjh1TVZftRnlS6NXhtOVW7b3dJ4+fUpbo85So4Gr1bDVUCpUy4PytVtCTnNOcq7DkZr8fDUPCwZodzSN0HbxuawrZCO7Vdy8qkpNnudgq25/0EBX5r+wC0K3mndgTorWFPjfJm04J8Edpyoqp0e4bJBzrTxEJrh/6DyfPENj6PFj+yQrLt5QqEq3JZStgvi8KsMoe8UhVLrtLDp6/uYL+0advEolW8+grOXdKUflYZSt/BCq23cF3VRi7XJu8fcf0orNB+mrdrNlxZUrwlZNJlPOUTufdZzzs/Py8xuqfrhRe7TWDu2/c07oCtvBllUSuk1oObbs6QMe6MwsaP56j0PK168Haq+wp/HyAQP9Fnl6B4kV9UjZbV2k3ljqOydE9k/YU1BplbeGWMXXGCkrsJAvyVVlOE332fPCvmNW7iQnAS4o6UVjYH5xrvmEJ4B+D3vK1Tt66jZtgzw/dKzjGuXpu0ENV3F5riMRGUI/3Kgc+2e/vsOf4bfy2ch+FRYaZhIxqcZW/SVJqz26Ok4+mkecz3iZ+Qs9ZVtxnfJ1Wk0Fqw+THdv/Eyv9IDsbYqN4bz8qQ0Aw/kbQcKk2gqZ5735h3xHLwoQnMlQmq7EvwmauwoD7hh2z+3k+FY6W745jsnsd16gQ+lK6eFLWNbe4r8NRwWODEtFhv66uDUCjNJxik8dhLVvvlyRdo2K7Z/G8y0lwa2jDQf6HcAgMVIDeEFcPiDNwKVlSbJP7xJoQBuqeUYp7G/IX2VZeo/ztl1EBsYLOUWko1eu/ik5fuWszY3vtrp4ij1+h05fvyk7uFzwNCRqjnvM0DKDxoqcxcrkAjUrDzEBjFPntOP7Cvg8fPaYTl27T/uNX6dpt2+U9Dp+9QbX6rKCclcV5VB0mSROzrL7+LFSVcL/U8JWRqsR4L1Jyv/x0z9PA828ixeCRw0cT9+0WZWXLXfpP0wgcZYWeJkNReUW23i9BUPFQfpsyj0NTieQXUKUDI+91V3I6OS2+SE5zT5Lz5GjK5bFT8jvl6bteNqO59Ah4Xrv7U55eQZR74GbKNTxMMsqCWRbls6AXz2KsAlp9Qxi9lVSw6lDKU2UYdRgfaOi1sJF4bo2hr/6aRW81nkCftJwm33/X0UviV/fUbqBx/8Fj2nbgPLUZ7Sc7wN9uMoG+aTeHvLcdtdn3uqONp9YePgbgAHni32tkeM9I1Jh19S1yWnqJnBacpezTj1COMXtk9RVoS3BvXrhfQvMIzd1/I+UW++UU+4Nk0WnBGcq29LLwZm4+ey7UJkv+naQg5yFsTEF/5VqDcG2Xf05ZHstgJXD8LLQdj5C1by7DBVOz1Hm9zqbbqh287lJqk9afQUPtiTBSeIv/d1p0nnJMiKTcA4Ipb5c1kqrDrckUaSgL1hpJbjU8yLWagR0WzLCSIbayQY3/xl/XasKo1RghjykoDKxbgwnk+ttsSUOeu18w5ROrZHAx5RL7d560TvI52UpOXLxD7zSbTM7CyAMQ8lb3kEb2tQbjqKUwuKhOgviHH5eGP7WggX8H7zklvRiEj1DxhPfIWWW4/Mx84lplKe9On7WaLnmqbCW6uAfUflwAOVccIulIXLr7Uc6RERIU8v+1RNK4g6JEXneVzRekjab3yPhvI8OvvF/gxhL7F6w90sDj1Xw65ftrMbn85yOBx3nKIQPw+6l0J9w/kpKQ1ZNvtmgDekTpP7OhjcsmNB9be9td0DpC49Rpfb+bbht3Wl/0kw3K/ld2tCvCDSpQYMaE8+QDlAukf20WSoqOgqD5rmFgh80rvABU7yB8BCMFQ1i0/lgqLlbRH7aYQh8I/fDXKc/+LfTd5pPojYbjZL8BKo1QlZSzMqjHh0lCwULCMIFO3Fls6zAhSFYK2VJ2H71MuSQPlQEMjCqb56oOp8J1R1Prkb7UY8ZG8e8xCfulFDRwLIx3nb4rxP+Pptzo6K496rnPRGIdYLUr5pJNv6M29r5k380pzgnJcShAGIUE8NxQfYbrLr9vvdH0ZqPx8v4Y79dHvz67Xx/8MoWKCY8M1wX7I3eTQ1LBG3iysEgAmLihybL5NMkinAuMvcKDlF5OQCwTLloJHkUClGuDDmt/t5GNKyc0kPmqbAca7U1+Y41Mt405rP/0tUDNjVfO01BDDEigOk89JMNLWP27CeMm6cOFkUGiNY8wHK+Jlebnf8yQVOB/jfWnYYu307zASBnS2Rp1jvYdv0JHz9+iI+duyr+m/z5w+hqFHbpA63adoKUbD9K4VTup69T11GDAKvqs9QxppGHQavVZTjc0tq+Q0sU/kOcMwIK61nrekCMkBeOI8yhk8npKQMOoqL7Ko76X6ev4f3w2PJxOE4Mki67tu8l19HPXhfIz3MR5fdBisqRtbz7Uk/rO2SyrwFZtOUzB+05TRMxFeX+M9+j4xdsJ/44Rf3eJ7dhv9ZYY+f37ieN/G+5N5bosEAAzVYKhXDxUdCcXlbG3IBh72yyiXINCyGneacMzxiGs5HMd3poHlbZpJ447SC5psG/5hYaoj8JS82gKS+ou6r/qBX1snjyqEqqpkN9Puf/KgIYagsq6/Arl9NgpPQqsGkFXIVemVQ2hmzId5soV+AzfvbT94Hk6e/Uuxd57aDNKJyX2npxXkeWnwfTJ79Mo+uQ1u1UcwUgv3hgtQQ9gYACJ5w2+m8m/Uwsa5scbAQleCOhOVoUcJr0AMXsJwOD9XyZTlp/dqfGg1TIv9NRGNwyNhhr9PQkuKC1GE2SjgauoZKsZCSCC8BY61ws0miTzK/BaE+je2fNIMtfxVYg2qH2k8kEaqqrumNyuQWz10w4aPY3PvtAqpts6ReoavBL0IRjwA1qOFVdlOKFAi5myXBMhB/A4YZX9U5eFNGzJNgqNPiuTrPYUrGQR1kGuATMt0kPuP3hEgRHHqfHgNTL8grBV/pojEzX6qQUNvKchFDSGmg3xpOC9p+jh4/ShO5nitUt6NUXEZ2+OPGP38t9LN7SyXPmfKevpc+E55lMHUIEfDGEyjM5FAYScve5vIJ1ksLDMYfXRRuVo/R3a71Jp4waa3Jq5yTF6syR/QT9R2W3BXf+66bbhR3VtM30+Q/5Y70rPApPj3KoPk2EF5BYQduo1axOFHbxgF2qOxDqcWwxdS1m+7y9zALZMfBurik5cvE26uPuJDk/acegCtR3tT683HCeNLIydOWjA8E9eu+uF4wGsThUNtCbP9h8lw1MAQVRpdRwfRLuPXJIrdMtzNgzniL82nd8hvIGq3ZdQlu8GSE/x6dP0o/vF7JC1oTFywBXyIuAJg/eBAoh87ZfJCq6EMl4GCovA4RagXPM4qq2dChuXXQ1N+Ql1ZaufTNWA2f+DMqSM0JpCaySXGOoQqR+caelDJJ22nrLPOSl+tMsNP17kK8QK+ruO82iqWJVeuqlNtZF4JFbPCIHcScLw6eMf0vU7sc8luDElD4YWlUoBO0/Y1HDN8t9H37SfI0Ne5f5eSBPW7JSrYcuzLZ5S1Klr1GNmsEwGo9IJ4OFWZxS5VB8hz89Sw96SjQck0CB/IcGiugflEv/+tOV06j0rmA6evp5oWAizNEat2CFpUfCZZdrPpYXro2xq3EE5kqPycDl+du+xyy8kzdFdn5jng74S5JYUAT5pmRkSLa5r9xnB9P4vUwwlwdWGybwHuv2zrbzKHexJ5DkK+Wuu19up/yUVtjC3pbEPDBKG0rKqaMwVulHoZHp+YHs+oVtMnuFOSb1f4526CZkSNIwcTiN3SnZU1ypDZHUNOJMmr42QI0rTmidAcrW58BhajvChlVsOv8ALFXniKnWeFERN3D2p58xNCc16HsvCKMu3/ah6z6UyTm4r2bj3tAQj6TkIQ5676ghZsQRvaviS7eLz7yR67NELt2jg/K0yxILQzrvNJtHghaHSiL5QrSQ8GHwfzBVHZdiXf84S3kfS73/s/C0aMH8LlRTngnOCFwOAgscCbwf5CFuJRn9fDqLK8sNAmmoSXtuy/6zsGwHpI7wl88IDeGgANOSaWo/ypXW70t6Nf/jMdVlGjTxZrkqGnIfrH/NltRUTLiYOHK5+Gk27vbo/2OKnDiAKmHoTas+FacwgwrRaQAWNbSbbeyT1GVW3a2dlOtCQHE63yKVXoKyzB08RSmdhwM+Jla4tBI1r33WcT2U7L5BJ8+q9llHM2WessA8ePpYrzS/azKIfuywUf2eKVX+E3Fan70rK8uMgmrQ2wqZeBgyks1nYyODReEgjjbJSlNZiFfwkkZX9pVtaGbo6IwDOuMuV2zoJiqu3HhZgq09YTZ+/pgijeINuahJvRERlGeL97/0yWeZQzMNgyIsA5DATxJYyaMFWyvJdf2oxzEveC/Rz/O7hS18LL+zHvxfQN+KeLd908Llj1myNkdtxT79uN0eCS1o80eeel+hzVK3HUgmYknCx8UTKOXaPwePgCiuLwJHXTxNfb2fqS3LFZX9N6FihpV4FsMgltLbQVUKPICdhFn6ab/I8njNtahH/zit0HfKeCJ8L7ZzEB2Utu1W7NFNVTgEwVt2Q1SuyYU6s7kr9OUM2nD2xYQgEYaVvO86jCv8tlqWYlbstoT1HL5uEpR7I8lIYoUrdFlPpv2ZLCvGrwgCjN6BgnTHSONtSjl24SWXE54FMMK95jkItiYXhfqvJRGo31p/CBPA9SWYUbMSRS/TD3/Ml6OSuNoLKd11EUclUet1/+Eis6s/InAJ6IhC6wmcjT2KeaAdT7g+d59Hpy3dsei2QBMfnwgvCNUdYCl7hDwIwKvy7mL4Tnshs/33PHYMy6q/bz6WK4p7+IICjfr9VdPKi7RoR4aENX7qdCtcfI8fzFkQxwtBQta+DgcNSZVU2b82dvgf1jVNZhrvEJDHulNlBoxY9m1yFGsX6ZtubkGEMIppZ+iKWZ+adFBX6tqp5kwKNrzdrV2Ya0EAp7ZpbAjBWy+oVNOHV6beSTly8leqEMkIUPmHH6NSl28/F6YMiTkrDAwME0EA5q2n8PFaAxt+T18n8QqX/DKAx2WuXzGcgp/LlnzPp/HXF5snYk5fu0IB5W+jzP6bLVW2eah4WPI+RMs7+eoNxMiGPcav3LSTjV4Ycpvd/mSSp0gEayHkgnITchSVGWyT0g8T1ajJ4DRWtN9YQJjOrzsK5ACwAQF+0mSFDYBfscB0uXNcI72aSbL4ETxXCifA6jKDxfaf5NCfg+aq1+UFR0gORoCGAssGA1eK+3zEBw8fy/nmGHpGFE6ktYPAXC5hPW02nnOhiR7nu0G0MHEnnOG5MOq6vlEIb+r7azEzqArpFZgcNJLJ1Js9Zf7PtWW2CnO6UreQmnXemAA3h4mf1VmSTnpschzpc0mSklsMJq8LeszdJplmEKuoJ8Bm/OiKBAiN47+kUgwZyIDgOvRmo8Im7Z/smt4SEszCao1eE05dtDXO3LZXWuqqhIRjxLuJcdWoPBZL2yIEYu8bz1/SgWr1XUKNBqw2rY3FtkYdAqbDRU0HfyZ+j/QxJcYRgar9YjptPpV5H8ntyGosQkhN4ej8Kw4/SYFxzGPhfh3tLMLAGNMp2nk8NB65Rw3RPKfTAOVkwAK/xS/FMYDsKAlIrAB88G7kAHMhDjd9nyHEwUFisqno9UDk79VRc6RTa0d6mkdJMQTMivkQe0HoIbWv2+ptC8UReFzpb6Pf2+PymnuT07nplXabo0RA/uFweO+SUO3RyI5GZlkYyNHGV67JQxrdh9H/6Z6E0NFW6L5Vd3RM9d1E58VqFfxclCxowQkjMorS365T1lKXcYKrff1X6lPcKY7ks+CCVbjtbGPQRFvsqYMzheQSpiV8YQwxjAmDAK/p7yjM+rFHLd8iOawADgGj9HsMxq7cclu9hnrMw/QyEzlYL78WeYJlQqCA+o2av5ZTl58HSm0JjIRLcuKe4Z0mBhiHkuFDeoxkC6LuIe4ZqL2j5rgvl/QRwtBsfIMNeqZVDZ65TKeFx5vx5kBwqlX3uSQaOJIDji2BtxKJzsa+nwL6+ruZ/EZWpnRkA4x2ha43FKwgpmWzDsKRvhL5rz3PwFN7Kt1u06zK8p4HRqPNPU4Emk4TL7061+6xIM0ssjM7oFTvkahUGH7F8GIvyKkjg30a1xtPAfpWFdwHCPnQs1+u/ktKjg+DYhVvkvnArvdNsUqKNfFj9o8QWTXgG0IgWK/ShsqQWoNF+fKDshocMlR7ISLFthHy/dREn1TLXQzKMla+mR6INf+jWHrZ4G52ycf7CkuB8a/RcJr8HqsfgISDvhPtgDWgY7y2oSEzvNxYP34p90OHutyPt80O2RZ+X/GT5Kgym/B2Wy5nwnBhPHDiqb9ctmXP1+cmjydjZj4QWywyAgUaUhabhYKG/2PEDsyIUJf8aVcjyU/rPigVpLmVoT0OdmZC3q5dcsX0ijHJSs61T1EH98LFMBCNHUK3nUgkeMBoVVMOTYtAQRgsGDKt4VNLYa8WNkNHOwxep04QgGdeHV2CpexucUDnV8FSHCYEyJGfMTSBhW0Cd3pdfgEqdPsupqVipG4kHQQ0ydlV4ggcCkG410lf2beRUvRBLn4djwd8E/q29x6/Q4yf26RRHYyM6/BF++99fs+S1R1gqpaCBY6CouEJIqtGgNbJL/tTl2zajKJknPjefAO0CQnOO2c3eRlKUIwI42kXq+ryq5bQtycAFBdkv9Ns0pSdiKEeHaO1HH27QVOgerfujzV7duIrbtEu/ClF8P9qohLy3QQn9YIOyFfq+0I83KpuKBCpnM3xoSvzAnGcepfx1xkjm2Fl++9L0A34sDO5js4oixLTRBAe+IcT2ywqDU04Fj4oJ1VOLaffRS4lWT0kDJPSzVtPIWax+ES6yVfmveYkrqpZebzienEH7XWOkxVU/Kovwb+RqvLcfsciuu2LzYXpPrIKN/R4wwOj4/lAY/bWhRyw0Oz6ljXtO0S9D11LR+uMMJbbis9wshKrwXsUajac/x/jRgdPXbX4dMPMcXh0AsVSbmfST8BSNQI+/34oFwCyz6qn5QfsFaMxJuK/Y78cu82XyvPlQL7ndUh7m8eMnyVahJSUA3t89fCh7uQGSfl9OIeSkeKLAkdNbo09pYjwjAsQLiWs13obmvFlCC6UmH9E+8m7xXgf0zSttV8YLcIh4LUi5nstX89g4ZjFBvZLQTEBrnqdngPQykFzW6FLXLAdgWLf7pBxQBA9h5eZDLzQAYmgRqpMmr91NDQeulsYEidVv2s+VdCAIBZmu9vvNDaHPhcHCKhVeSl1hoGv0Xi4N9hvCqNu65PbAqety4JHpKFZzsEAICUlsAEtI5BnZw5BkwvboZQmKCPPA0CNMF3niSpLHPHz0hMKFp9NReC9vN5mYAB6WEvGYsQGjftyGpa2GklsDtxc8nx4zgunfqRskCy68BYA+yqUxnMpUgnadkEwBUOSy4FUiub8mNIZuWehFwf2e6BlBbcU+vWZveq5PJ6UCz/BNcV9cqglwnhhtGM7FIJFoRdW765RDXaLiiqXCFjcQOty04tRRQaO9hc5tAEkRoTlS8l79I+Pe+G2P9tfK2xWffP6aK1mNg008MwkQpHiu9hXK22Im5a00JE1eBiixEYZAox4MCwABiVNUCFkqCQUV9zyx8kS8Hx7Fhj2nTABITVSJ9wQtN1bTmKuNsadgm4XhhrcxyXOXTQ0lqrOcKg4x44QaTS4YvCQ+E13eaHDE1L7EVsZ3tHGSE+q29pmRvHpbL1fZi9ZH09U7+gSQRW8FRsgaG/4SS/bCoH7021RDKKz6iOfmbAA4cC1A/WFLQR4na/khMv8SvOe0fG29uEcAEADBVK/dCUls47VASGum717ZNf7ftA0UuPO4DDM+71U8pf0nrsrwXU3hdX7feb4MdX3ZZhZ1Fs+Bok9dYhyd961G+pCz8Dby/OfDMzmsyG98uVkz1dSmWmGHu5NhrhCksiM36fVTT/JaakNQ7kTZ/tof93WVbbqJb6xTTmb31jxNAIlX+cEJjCPn6YfJpeYo+rjFZDpy/laqjQxq+ZH0BGBUMEl6GuLYq6V3AWNq3iCIsI4xro8O6aGLt8l4fdjB82rI5gnFCcNjpBhZtumgTC6j3wHJVJSq2kp2HLxAbzWZIENIyB/kUfshSrScKsuHk8r1AABAbwKwRA/B92K1PcVrzwuhOmlcY1GOvFk2Kb7ZeILM2+DYpGaanxTvP2TRNirddpYEMWMiPVuFoTJBnpz3ktL+GngTuA4A0I17Tz1nnGPjHybcu8UbDsjcz/x1UQnVdsg1oUHxufzWg8fSG+gvvEfkr/BclDcJd6E0u+OE1IMGZNGGaMqLAV2/zjaMlvVjfqqkwlTOPpq4fgf1TVJZghsA++yIoNEGdsPkREem9D3a7tX/XH6bdpWLtyb2uXATPzgSNHJ5hFOuCoOpTu9lMiySluQxmtwQW/6xywJZXmmMgSN/8V2HeVSj13JhHHdYjMEjqdt82FphPGZTqT9nSeDxDI15gYhvjvBccqsGs4AAu0AbExYiP1Hxv0X0XvPJMpeCZDVmgSQFln1UAMCKHzkAWYIL2nQBPOCzMpe1245QriojDPvUNFReYfIgBh+Bkyrm7M1EP++a8FSmeO+W1xXeR22xWt+077RNrwHoQYy9KehEH7My/IUw3B1dnOTCQs8IDP5X7WbL/zdn3QWwoM8DC4Gf/1kkw4w/q5V0+H/DImMRdZ+xMU3hKZnYFB7MO43HUZ6648hp4VlOiFvhbZQK1u7vdiD+zRTQihi5e3Cj6zkiaKArMUo9SXRvf2rtsRNOxZUus0W7JruPJp6BIpF8hvhR5RkUQjl+GkjtxvrZrFRzvQAPNLvJEtuuz6qkYCyMRgKU4UaQwjyFqj2Xylj4HyN95WoU+2BfGG1jlRSoLdAQKCk16oyWhha5kOTyCikVvB+IEO8n8r4ASIxc7TA+QHgK4yl3lREvJMwR1oI3gDCOuYxdES4BxnyQE94DCXO8Z7tx/rQz5mKi7LVYuSM89OCRbaunQE+OyrTsFQ1TChEKQy8EqsOMpb4AtTajfWWlFLw9dKU3HrSGvmk3R4auTqj5lUs3deI5WK+GK+cnVF8ZvdBafVZIosaok1fTlAg3CpLs37SdSblrjCLnGUflooh/68kDR+0wnUcKbHInNUQ1AekBRw1RNRY6DL0X1uwP1Kwepp1UMEBzh8EiuaFKenLps55ylBtA/0xeZ1Pjg1LQlZsPSwMEA2Hal4E4dtUey2Qe5NrdWGl4UA2Fckwj0ytABQCB1zESFrM6uk7bIBPDrsLDQOVQ0QZj5Sp9buD+dGn0Qxhtw57TkoMJ7LS5EkpjR6VoCBPyMzDKiQ5hQmmtABzQlKBMF5Qr9x+mz6wSNF2i0ADXFp4MutllV3/7ObRgvWH91nvWJvoSBQqdF8iCBxnaO3RRhp2+EACDAgZJoyK2gbvqZ5OFg8HzXCApSTAvxJYCyvZy4pmBJ5oDU/8C4/l3bkVSPJ+/ctP9oPZ7K+2xm9DvUppLtncOI1XzaT09yalLlL7x2+uUw5yvsBI0/ARo9F4nQQPJaFsJqCNgyFt5+FDFf01KNdUV5ldiRYrqI4RaYIiR7EYFVcVuS2QyfmvUWZn8xmuosjqucl/BoH0gw0DD5ExwrHZB2Pfxb9NkSa89u6Mx77p+v5VUqK6BOt28j8KUTDC1k/vczDmuxGfguxpLe72ER2bPca+g5pDjXn8aTO3HBchCBnhEmMWOPo2QyLMGMAg5ZGjSE55ht2kbafuB8zInA48ClWIrVCDBmN9K/y2RzXymCwc8D1W7L5UhK/8dx2025fHabT2VFZ8ly5snRjFopAA4Pt6gWeaZ0UgJ1RJadHj/ndJj55zQFW4crp3u5KV5+MrM6rZJuW0s5em/kXL+NFBSRaRVzl3VSIqQuv1Xyjp+U0OBfyNJXLfvChq9fMdzXc2osAHtOZrJ4F3A8AAwAGSm+8Xff0T95oVQlh8G0G/DvSRVCYYlgSa9es9lEoTs0eTWZpSvNESyya/2qBfAAXxRlkAkpaBhyG94WAAgA+0IwnEoZ8Z1sLWAnr1Gz6USMFDCi/kdrUf6iP8fJPtGUCRgGilDtVu9/quoTIc5sgACyfza4t5iHK5530s/sSjA/UGIytTr+FEtuW7p4U3LNh0iJQ2UIrJY4NJt+vS3yfIaGjwNDk9Zqzl9NPH9DukaZCTAAA2vt3rvUQZiNbHWH3vjyry7Xolg7yJ1oJF74CZyqTCYvhU/+rQMVrp0U5FhG/AjGcFCdgJ3MfRYwGOY7rM30YY8xO4x5Q6hKtBqoxHQUs8IkrRZyg5I4J5CGatLNQ9ZHvrnGH+bG1Sw0WaTpaejLPRsGMgIwUqLclF0eRvzFCkBDQARjkX5MXpRAEI5K7/YFY5+DcwN32nDgUsQGGuEi+C14bPXbD0s7wfyFKBsQYGDJTl6/ia1FdccuSiU2R5OIpGNbaNXhMn7a1wYGL1PLCa++mu2zG+kZWRwYMQJw1xxzI6fdphBI4W5jTJblJCpp6xLA5jYbswr+ozS20u59+jJENM8o9BW1hzncTj29wL+muvsXaQBNAZsItcqQ6mwMEoB4cdT/YPFlD0YDxgDJL9hCLCSxLznhehPuK17ASTgRQTtPCmrf4xcVxhYhPAWktFIqiP5vWTDAYqIuSS5pkDsh4lyCNcYBeyp6N7GavzvSessdmenVnYduSiNOwAAf40NfkXqj6UmwqgG7DyeYLAAGMaEeEpBA//G6h0lxgBPlCnjM9CbARoSlABnq+AuJyea0o2nVTSx92TSHQ2N0D7CK8C9QU4K5wDQMJbc3tbGU8j+s5Iz6rjaiIkpf2jYNE5QxKhalEUHievxQnPnU5Qm36UpXrupsQBaYzgL4SpUX6WFVRmCc88hrlEBAcDO02IYNFJaguutedB6n7ZFCgADhUq+QsPSvdlP84AakoE/CtLPmm7uStu1A118NPcZMNIOGgWrDZUT6/4SxiO1glneCDsh8V2j1zJqO9afvLYdea7JzUgzckSsUFHGWV+GN+ZK7wQll+axbQz5QUUOkrAVBBChpLPbtA0yhALQMEZLtOpKGY15MMbtxgWkmXDRtFJq3OqdsrHvNWHEUYoLBuDQ6HPSwBvFZ/tRASipBw0ADuL7phVc2w6ck7kd2c/RaLxcjaPSzGb9GMKTg6FG3gJ8Xqh80sYZciZIvDcWoIF+GLD2AigQpsNiQFLdi3u3z2x+OHIiuPcoXigrvAnckwXromQj5wue6Q2tXEz8OsybqnRbIgkofdNAYIiFBoBHztgQ94lBI3XexicbtBtmxNzMayX/n3GY3T1KI41TagkIZ6J3KznEcj9HuRrt1E8VYPGIw1G2AY1C1YZJ+gU0mm1Xm+pS25ULagiMMI01IxOE8d0njArKM1Flgy5g5DAqquGJiv8tkfHvhOSz8BaQ04AhqCSMCrwX0G2jcQ5hFHOWW8TkGw1cI8NUMIAwakn1V6SUIgXx8tCoc/L7WaqCtQVo+O04bhG0zly5Q7uPXKbbNgJCI4VHrd7LJWDAw2gxbK0EkYSSXgEaTd3XSPoT3B9c/x+7LFAJCBfJctvZZoSFizdEGwBeLXyQ9C/Cm6gv7hW8C3gZLwJXPEWfvEqXb+rS9H1Qmi2bEcESLEGDw1OpbPh7OOCQrr6VdvsPk1sw/GXlNdyS2qf38Vv5vtykzOdSWtuDhmvNkZRVGNtGA1fL5K/NKo/uP5LVUPAkKndXO4HNSzCFMcKcjT3Hnh/32nnSi9ToSNJaAg1ZcqmJlSvnHJUMNCMoFfVPQ8gtZU2BKmjUNAeN3YmU3A59ATQQlrK34JqhCqtkqxkJfFhthTej0T/v5QE0UD0FAMYArErdlzxX/QTQNweNeRZYbo306Gj2RKIcVVYIYdlydHDk8atyfjtKhd0SQIM9jVTpGg19t0XnjcW5FTb7PbTtqLdhlb0BwlnoGymiAjl1J3/DCO1imfDmm2tT0MCkvo9+nUyvNRgnK3Q8lobZZHWOlXlH4S2ALgJggQ7giv8aOsQBFJVSSI2OVe5nracnChqGaqcHMraNrmzsh3GlGN505ZbOrsbYN+yoBAkkkiUQqFP9Zvi+6GkgNIdcAfIUKOFFniSfOG7jnlN2Pcdrd3TUbfpGCWgYroRrNHjBVos5ICNoYF76/wRo/KQOX0oJNbpkuRXehrFiStLKdEKPzhLqPy/EJiSLCEOCdh7X85OW06lky6nkWmcMexpp8DZy+Gh0/0XrfrTCjmM09jihU4S+aW/Q+BM5M6FfW1UhFUq5Km1T5nGFlB1KbgduotzlB1HH8QHUc2awzBegkmdp8IE0hj9uyhkayFkYO4F/6mpYcTYcuEp6BAk0I1aABgzOL8O85HsmN4QJeRMYtHeaTUxI8IILykcY9oeP7DN/At3IyOcgB4BEOVbxyEGgLNhcEIZDQhur+ByVMTd8GNXstYxuamLtcm4IFa7aEiNDRUayR+RJwBuVWCe2ETQAvKh2+musv/QUyqsU6cmBBhYKyG+gHwelvAauqWfMAKXazJIFDHFpKFpApRyq1hCSRFUZvLqG/VZQnhojGTTS2Lfx7RZlZgpSC9nsDRhfCDXWDOKpeyu5Y0qHKOMZLOwHGmju6zljo6x2wY8b41SxQl+19XCqf9CgmqgijCiS3MZRnygnney1my4LAwtOJhgea8a9AjRggKf57JGNZejLME2EJyb7TlyVIIPyVQBH3hojZHksmtFsQVthLuevK9KLQGMciBdNqd4tXZ9BYpWPRPckz4gkmW7T4u1tiTorrtUqGbrJVtEwghbXDuy5SQlAA9cqS7lBNNtvnyxSAK9YSmaENx7sKfs9Dpy6JosYEIKEpwHFuFd4hPEPUlcifV8c99/0DRKcsYjoKbxJNIrW7iXudzUPDk+lETQKB2rOe124974j9GOgpjfE5N6jXMc1qWM6Rer6iS/xlEHDvqDReUKgvCHIK3z821TpcRSqM1oa6tTEn3EIylBRyYT+g3lBkc+V3WKeNlawMEDWgsaUtbvk8CIYMmtAw7jKRhL2/RaT5coeRgbhI/SUYB7G48dPKLNJnOT/OklNBq2W3xWACQ8IE/9m+u21ipIE+xhLbpGTAmstqqGQFLcGNAAuDQasfq48GLQxSFj/NTaAhiwKTXWhwm0lXrIB5BBeE7wMgBvYjnGvq3VbRLmqM2ikVZ2EvW2xW9fDEUAjLz0b04qsX4mk9h96OLals7dyjwEj/UADsjX6nIwPw8giSdt16oZUr4SxkrQUggjc+TxowCvZkwxoTPbaJQf/pAQ0TBvREMoAZ1V2seJG/wNyOLV6L6MF6/bbPeeRHiLLWNdFy9nehdCrIAASCrr3bmJVjgowq1fyJqARvO+0zHukFDTq918tezieqwZ7aqiMSy1Y7z16RXgsS6TnhAUAKuYwr8RYes2gYbvy25KbtDvGHL+VL4W5ahdKwYyOlADHAqHNk9pvyfn4sq5+yjVOfKc/aBia2i5J2msAB1apqIABxbWtql7AhIt6f0Mj4HxpaFDnb+ohdJgQJJOw2AamVUx5A116akDDKJjpACZdTP5DXwdi9jBAqLTqNTNYNhpqbVg9Zm9BU90G4VWAx+mLNjMkWR+q4OBdvNHIwJZrWsqcFtAAeSLAonzXxZLmZbbZuFeALyqtsB2NnrhHRgLKtAo+f6r3bnq3+SQ5rRCg38qsGZBBw7YJcRdfze2O+/QVrLTrb5BhUB6cgvzp7pF4XtMXKRWsRKD8i2/gywENCMIHMBw51JwAEuT/TttgE0OAGdStPXwlMIH4Dkn4u2a0IUjUYmULfqOK3RZT2MELsmHQ2BGeWvhCrB8Mq39PCpJMrojzo9IJWrDuaBmPx7Q8v/DjMk/xyIFCWEjko5HNO+yo9B6+6zhX0sQb54/juyC82H36Rtml/ziVuRtT0Niw56TaC7FTeocSEPqveg7kZTf4meuSqRi9GjgvzE659yBt7LzoTEdepnafFXIoFrwLfF/3haEvkDcyaNje22iySzvcStCYbDQb6BRPd9AouUkzjUNSLx80ZL9E3AOZ3MWMB0O1zzBZeYMk7olLaSuZRMgrcNdJSRVipKEwbxbcc/Qy+YQdS5iatzTYwD2VFtB4rpNYACNWsCDUK1JvrARHfE8YYJTCgkG3wYBVMgaPrmhwKKWnJ6KNvSeHVnltP0KDF26V5/JhiymUv4ZHQic3/iLUVqPncprpty9Rfq9UgYZY1a+LOJGw2keXOsA0sSmD569r5PZtB86niZEXYIdG05YjvGWoTVbBie+JBQRmkVu+VgwatgaNjzcoe7zPx71hZUWsUZqnNRwFt6WetXGuhhHaVs6gB+Gb5hCgYZTwQxekwconR4wawAOJVdB6IOQTZwfmVUsCSgtbgoZpOAwjZvvP3yIrugCSICR0qjBUJlvxfd3qjJIGG57Ib8O9ZYUUSpPBGYVud4x8RWc6ABDloAC9hxa8lEdi9QyPIV58JvYFeOLYvQIgsapHZzX6J5oPWSs+a55M4hdQZ4HjXJwqDZXn9lbjCTLfgy57cHOZd+HbGjTSQxBugjfZ3H2tnCeC0Ch6RUCjAm/0UhKd4wwatg9RZfNW7s06rq9khZ3/hp5RQa1OUxmuOPhvLBzQZk7JDO6YdkL3SfFA5TjnMRwPNCAoaVwRcojK/b1AsrtiNQ7OKnAy1eq9QuYcwCt178GjDAcazxkf4V0hpzPdd48k1kNDIVbyaNzDd0YuxJBkNvQ8oFjg7aYT6bOW02W4DQ2MKHNtPsRT0nN0GB8orm+Q1I7i30goNxPb8B2wL5L9oEfBgCkMYMKK2rmiIdyUraKhaxuNeDCin7eeQb8O96IZfntp99FLpLPTfI30BA1FeG5hYlHSb+5myYict/qIhG51XPdfMbDp6GUrvDIGDXt0iLfdqx9uZWXsVDJM9Ps+LYCBTPpmYyUgJTFT1l0gU4Nw7SLOYzguaJgmJVdtOSS5ixDCgRHFahD9EOjvQG8EVuGg8LhwQ7GpcV+++VCacxopNmrCGwBB4QzfvTLhXLPPcvpUAASAUw78UXM+8MCM3Fcp0azq3+yVDI2ByEuA1uWzVtOotvis/6ZuoLn+kdLbS+vMidSAxqa9tu1UR+gJ4cZlwYfoX3E90cuD5whsBNnUJP7rDcdL0sudhy+kIJTHoGEfEkNln+eZu67pVWKLsJSxzRUcJcUT27fzfn3z7N6ax5zLcHzQMAqYWNEo98+U9bJZC7O7s6srcFQkIRZd4vdpkqEW42QRb0d/xr7jl+nsNY2k2o6990AmmhObhQ0DA8/lrj6e7or9x4KCI51BwxJoXrmtpyPnbsjQFEpPB83fSh2FJ/GbWBXX7bdCTixEKTHCSyWFF/GZUHgTJf+YYaAE/9tAowIyP6ykO4nrP2jhVpol3mtT5GnZGIi+Fnt6bVY19/3sLgdknbt2VzZ/yrnkDx/JBLUlQdMkZmKAvwxhN8wLR/jSe9sRGr96J7Xy8JaT/FAF5apSrcBbQxgKXd3wvEat2CG//+PHKbvDDBr20aw+yr25Z+LKpBdolDRp5vsvsf2Cr+uLvrde2cVhqYwFGqZy+ZZWkvZ1nhREX7ebLT2OXFWHyZJWGB4nGWYxhHJA7wEjCoNas9dyYZw8qdVIX+o8MVAaTyh6KkCkhzAOjPBP/ywQwDST3mk6Ua5+6/Zd6ZAlsDCahlxFvGSlBTUIKsXgcV2UqqWb4nXE7pHPuPfgoV26020BGrj2GECF3hZUZKFXplK3xXKg1i9DPQVIBkomYsP9CpT/DwAE6SXozlFFhePeEsdjml52CQ5DJO8VPFNwdRUX97OyAE/3RaEUGnVWGv7UFw0waNirQ7z13nRs9CPDIPK2Ql9PlFtqn64/z8XI2KBhKjCUW6PO0QTPCJkw/kGAA+ZRSObXBONhMCDWhnCc1L8I3cCLscV4WpakQOORHKCFa+1SfYQhBKkmpa29X8Z7jM5t5GQKS89zqpw3jkXB/KD9tP/EVYqNt00Cn0HDfiGqctt03g4z6nXGSf2n+fw1lzgs9fJAw/nH/tRpfID9cgLix4yObIRy0BCGcl0khxH+gAFBTT8SvO81n0Tv/zJZKoYdwcCgxBJkhZgt3l6cI0pjATqYW/2UbbvdBFQkGJKFUCOuNZiCkYAHCSE8RHiTH7SYnHC/pLaYQqXbzpKLBOzXYqgXdZ2ynkYuC5MFDCihRe+PNTQmqQWNqv8xaNiJi+rqpGOad61wEooIxVC98ULfswtoNAzXTuew1MudEZ63ortMtqarPDX0YejvPZCJZoRrEAM3VWP5KozBfbVJDDPBkdNAmERvp8ohFpI5iR86zZccZCiBNTbaIZ+jFffkri6ermv0L9wzEBuCByotVCFpOed6fZZTnpojKTuz3Nq09Davjyau/4HY6laAxhhj6k9ofWvDUTmEWsVX4n407qtC/splDk29LNDQU54+6yifAI2eM4IzhDGTzX3CkGEYU2INZixpF3SdY7AR+kECdp7IEOeMXFE1sZhACNR5slhcBMbz79yG3savu/QDrWyxMMoAa0Hjc6GbhLYW6pTUvo0jhJfBJbYvFTRc+qyXOY12Y/0zhGFAmAMxc1TahOw/y9bdTgKWXDRyIhcRFJExQOPSDYW+/nOmgRZmUhSDho3zGuW3Kb5W2P8KQo08Q0iUZrcGNDqa3MdEkWn6KX3JIv7KRQ5NvfycRq6fB1HNXktl8jMjgIZhyNEQWZrJYh/pPXuz7DkpUHtkhgENUOu/3Wgc5cUQpikHOTxlY0+j+DrlWNsozTvJ2H9XoVHqLcHfN5MDDCehnsbqQ1RNJbZvo53a4QwYjpHTyFfJnT5sMVnyKmUE0DAS1/3UZcFzLKcstpEbd2NllzpmrYO+JKOAxtygSMpTZSi51hnNiXB7JMP9lFvdDup+ssJx8FZvCdr4Sye382cIhxqBX6ibpf1WXYwrVjBAOc65DMeZEZ5HuPTTffZkCNAwdEyPovxiRblqy2G28rY2voGRslHTRahrBgENTPJDY2X28u7kVm8sg4Y9ZoeLv7/v0v1lBWh0E4rqCYzA+DC5nXMLbScUvAN9EtuvR7SuPZfYOg5oFKo2jHKKlTtmW6BiKSOABno+0E1c8b9FaWoIY3leLt/S0Y9/z5eUHvkEKGcU0AiNOid5qlyqDqOC9cfyjHA75TXqhus8rMxtZ0tpQ19RSmSM65xIcv5ooxLBXoZjgQaotpErmLx2l8ODRi5xnphGV6zhOBlCGb86gq29jWTYkm2yN+PNxhNkNzca+xwdNOLkgKg1MgdTsOZIBg07khdW267zmniJcqdrM1/vA/qKuXw0OvY0HAs0CtYeJYn3UGYJhldHBg2U3IJ76p+p62XX8TvNJlF4CojtWCwLJvSBMiRbeXdJQw56cpApOjpoYAxwHgFubuIZfr3eGDU8xaBhD0+jxEZtZL3wuGLpChp1wnVj2ctwrER4/kruVLXbYvqh83w5ShUd2BeuK44LGmUHSI4jnCM6k7P8OFCSA2IAEEvq5PjF23JUa5ZygyU9Oa4trjF4w9Y5MGj4hx+j1xqMlYsHsPJWEs9uvlqjGTTslAwXC/6rS8/rP02/Ma7nYl9/d70SzVVTjlVym/OnAdRnVjAF7Dwu6/JhKJoO9pQstI4KGhg3CvHaFkOutUZKYsSmg9fQXQsTAFmSlut39FSrz3LhwbnLvADoXp6K/xoPWpPuQ5hSIpgn8knLaZIh4LtOcynq5FVq2G8F04jYMRme1UvzYMGZ+HJWpChyCv1UaFmhuSzt8JbQcULLUxLNHGNi4url8NbEs6fheISFXSYFyR/ikMWhlL3iEMpeYahkM71yW+eYoNHvGcstZnegcxnJWxAZ3tLEMhJYKVdv68V9XiNBN7e4hlO8d8vXMXHwZUzuS0niG8OxwJhbrNE42rL/LD158oSqd19MORk07DjJT0PNdyvtrQAND6Hg+UHc+G1LO9RR7yUIghKl0G0SoZ/EXoZjs9yCzwkU12AnRTy7cvclFH3qmkOChpGwEDMn/p60To5mRTwe1NyOGl5zJMFMkzp9V8gEMvpeeszcmEAm+LLGvVojK0MOSYLErMIjBnMu+MggzHKbPiGqaju07laAxiL1doHr5xNLO/Q3uaedLL2Jx+HY1z7ewDMzMgI1OojfwE6K5CIG5Hzy+zRavumg3dhJ0woaEJAeYv5GTuFtgJb7564Laf/Jq4wMiQgGI6G0FlPyclcbQV3E/UYVklEcETQwn6Tv7M0y4Y17/EbD8bRkQ3TCdgaN9KmgarFLO0MY/azJgMZI9bbA2/jJfGN2odvUHc4JLWnpTfod1P3k4quJ5dBUxpinAYbS4Uu2SxoJhC7Qhf3bCB85ic0RQcNYetlt+kY5AyJbBXd6T6xGF284wAhhIg8fPaHZ/pH0ZuPx0sPAfe01K1iGo0zF0UBj3a4TVLbTPBk2xXmjHBhTIE2FQSN9Kqgqb9dudD9nIU/xPC60M7k19S1Rh2AHtBODQiSvxUFLe/T/sJeR8YYwgRb705bTZLgKIQwY4iGLtslJdI4GGhC8Nn7NTipcb7QAjqGSh6j1SF86c5UZcTFC9bfhXtKDROixSL0xNM17jxypay6OABpPnj6Vye6WHj5UENQgGCNcZTjV7ruSYs7dfGF/Bo30AY3/bdLsnBFzM28yoPGG0MpkIDAskthOzkILkwVm28hIcq4Qql3NoJExJ/edunKH2oz2E17HaBnOwA/38z9m0OAFW6UhciTQMEqgMHRftpkpwxhoAMSQJxhIzStYXYUZFwDSj8TqXM7kFvpN+7m0fvepRI95maCBz0ai+49RvrLJEIsVKOaKY0a8Ls7yHBUGjfTJaXywQTn09x5dIfuW2l7SFiwSqJzg0FTGHfeKOdaYAY5cQe6qWKm6yyqrj36dKhPnCBWkh0G2FjQgCKW1FqvU/DVHSjp18GtheJPn1iMU+woMcIp/8FByc5XrspByVh4uwzqgO2871p/OXbubrOFOb9A4f01D84L2U4MBq6hI/bHynmGRAi+jlbiPGA2blDBopA9ovBGknK0TEf+mXUGj/8HYys4+msfcBZ7xZ4Tf1d2j+UFR9JMwRDDGWLUa2VC/6ziPes7cJADkBF2+qaNHdpjclhLQMOZm1myJoTJgbcUqW5xr/poeVL3nUlmFc0cXn+nAAp4FEsRVui8R33WUvEfwDsFcu2rrYavuSwJooLlv1wk7eRSPpKeKvBO8ChRcuFQzFF/gmXpNAAdGxqKc1ppzZtBIn7LbAv7K9Y82K+/bFTTa79f+x6GpzAEaCT/QuPu0dtsRajLYk15vME6uCBEnd1YB5JOW06n5kLVy5gVoKGLO3ZDHpFWWbz4km7msBQ2jXL8TS0MWhdIHv0yW3cNQMLliPvnIZTvo6PlbGX7m+OEzN2jU8h30bYe5Mm+BlTq+J2atj1wRRtfu6lMUIjKCxsY9p9J8bk+fPqUb4vP3Hb9CK8Q97DtnM9XsvZyKN5tEeap5yDAizhf9NiUEePw7dQOFH7qYopGxDBrpo8IB0P57UFciVWCgJjsaCX2bkijBqhamW8agkblAwyj3hHHB8JvBC0Ml4+ybjcbLFT1ABD0TMAIF64yhD3+dQj/8PV92GfeYsZEmeu6iVSGHad3ukxQafY72HL38guJ9dxy6IIzWaRkaW7BuPzUb4impLur1X5kqI4+Vba9Zm4Rhmi5DNkjwg6gR5/f7CG9aI1biZ6/etYuXZPNE8ZOncuTtsk2HJEAj5o/KMSc174Ru6b5zQujkpdup8AIeU1N3Txmeqt9/FY1ZGS48gmjyDz9OmyPPyAT1C/dM3C/wloXsO0OBO4/T4o3RAsTCqNPEQKrddzl9LTyd4k0nSg81uwRuQ/gJFVwftpgiw1Kz/PbJ658aYdBItxDVE99zsf9LjuVW6JdCOwmtYbqhEiodhSIbWsfSwYvOUa5PgpnVNrOChqnExj+k8MMXaZIAhIYDVssVI2LTLmq/h3Hl6ywTmwZgySd+4BjdCtZaSwovBrMzAEQwMghf4G9qQcMoJy/foRFLt9NX7WbLEA7OB+cF2vVPW02TVUYz/fbSEeEhyfyHg7ghaL48ePq6TOqDGwrnCoAwJotdhUH+ut0cGrtyp5zznZZkdHMB0MZrjmtjAKMRMseABLWl+4VSXmzPXW24eq+HyfPCv6UnISnXPWQXd+m2s+ivsf4SjI6cu0kPHqWtD4hBI/3yGivOxn+bDGgUE3pavTXTTDf8anLP/rB0sPfZe+8UCVQucT7DcUHD+ccB1Gl8oM0NHGZzYFU61Ws3dZm8jur2XUH/E4biDeGNwDjDCwEYGD0TSyrj22I79oVxLFBrpAxlpBU0jKIIQ7N6y2FpgF9vOM5g4CoMlUl+JPyL1B1DP/69gLpOXU/zAiMp7OAFunpbJ8Mt9hZ8BHJD8MRmCQBD1ztIJdEFjWshw2wVDIb5zSbjpaeEJL82Nu1JfoAGvDrcAzDfwjvAZ+ZU75ezFfcL+2KQEzygHzrPk9xgaM5buC5KepFx9x7a9HoxaKRfXmP80diqyYAGqKUuqrdmkumGYcaeIdTkWjr4n6jYKvn9FD2DhgOCRgCo0YMpf2V36jl9Y7qUUoIc79Sl2xR54gqt23WSlm48IGd4YNXvYaZ4bdyqnbQgKEqGp6JPXpNhErDapjSnkXzT22M6Ic5rtv8+aj50rexNgYeElbazaiixQgawlGw1nSr8u4hajfSVDZBLgw9Ikj+EZpAbuXxTK8keURoKz8CSwsBhVO0lsS9W2RExl2j97pMy0T90cajsTSgnwAr8SmBxzQtDqHpDOCcMSPpUnEczd09hhKPp9JU7Fvst0nKvEEpEnmpB0H7JgouENKqx5gREkscyy/fLY1mYDDFhvy37z9AB4RWdu6qRBQePn9g35KeNvUf1+y4jF3iOUw8xaNgRNIYf1tVJAWhMMd0wQn0RS5tSlg5uukvphBgYX2xHAw2t8DT0lKfPOnKpMIi6TduQIZK9K1KZCE+JPH78VADbHemBdBdgCoB4T6yWYahhuNEhj5ke2WTif6iatxlNbzeZKJPOpf6cSWU6zKUq3ZZQ9V5LZaWWqdbotYwqiW3fiH2wL7qb324ygdzEe0jiRfEZ2dTPwGehkih/rVGSb6myOK737E3kJUD0jDDG6PC2F8AbS2437TudIZ6Nm5pYqtR1oQT7HJOiBGjE8+/cTqDhcVhbOxnQeE1ohOpQDDfdUERoXaEdhBawTFKo9OMkuKOGp/Tk0ncDOZcbQG1G+WQIw5DSkltb5REOnbkuu+Mx2e634d6y9wGJZlCJF6g9SnoCSKg7qQleY4WW4d+W1LDdGNbBsajmwnu9IbyZz4QX8fM/C2XYbKRYvfuFH6MjZ288xw9lb6/QkVluLfZ5XFfoyz+my7BijknRDBovFzRAL/WO0BJCU9YIWH+nbi6DhmMPYcpdfpBYwS6m2HsPHd4wIBSU3qBhSWC8z1y5I0NSCJ0h5zBs8Tb6T3hsf47xl0nkmj2XUbUeS1/Qqj2WUM3ey+iXoWsFWPtKbwZhrln++8g37JisREIFUfy9Ry/t+z2Q4anV0tPJKKCBIoxiCOWhN4XDU3ZNhM8+qf/ZLv0Z7qGU/ZsQbRBXTjn2uFfkNIo3mUB7j11xeMMwf12UnKGAFbijChLYKNmNu/9AALFljReggx6E9Eiop7bx7tfhXjL85rfjWIYAjcleuyk3KsjqjOFEuJ1BY9WZuG/sAhp/ht/KVyJY2cag4dig4VZ1KOWqPFQOM3J0me6zh7L8OEgmaR3V4GYGQWVTrd7LZU8MaPEdXdAFj2ZB5wruVFDOCGfQsGN46qH/pdhSdgGNOSd0hb/YpOwFBztfbMcFjULVhsnySNTNn77i2GywqBRCIhwcUvpXgD/qZQlmqoCKHMl4VEI5uiBEiLLg/NVGUMH6Y3lGuB3zGbl9NXc7RGs/Sm03eD2h9YVaJK/yOKr//JONyjnOaTg+aLiqXbr9521x/JyGMGSl2syk05fvsHW3k+DaftBisuzN8N953LG9DF08VfxvsYHcsKaHChrsadgLNAoGKNdKBCvvJYMPb5Jhet8UoT8YX2xuct9+s3Rgj/3K1+8HKZcZNBwfNF6rP0bSOaAaKNCBE5+onkKpa+F6Yylk/1m27nYS9NCgxBi9KUEOngjHQgdlykUFWLzdaBy51eOchj3zGW8FKacahcW9kQxofI7CQ2NU2fhiF2PeT2gtSwd23Kf9tnig5iqDhmNXT+WtOJgaDVhFtfuskKGfL9vMokNnbjgsaORUO8jRUMZiH+kza7OkUsfkRkcGjQXromRYCs9Eh/GBVKP7Etncx+Ep+4HGJxuVqL6HFLdkQAPDl4zxY3fji1PVFzBE4WuLjX0R+vJvBCh3OBHu+NxTfWdvor3Hr0jKiCw/uVO5Lgte+mjXxEADHhHoPjDjGg1dLLaVa7d19NVfs2UXPBiLHRU0vLYfkdxkWcoNohq9l8sy5QZ9lzONiJ0n930XomzvFkG5kwGNFia3qqXxxc5C9wn1RX7D0oH1wjUVXwtQNAwajg8af080cE/NDogURnm4zBtgBsWBU9ccDjTAW+Vaa6Rshlu+6RBbeRsL+kVchOFFw6Krg4LGYvEcgF4F1V0lWk6jqJPXJBVMtW6LGTTsqWs0VCdMu7p9JDknAxolVMciRGh5U+rbXEITPbgRg0aGY7kF3fbYVeHS5QcxYMnWM2Q3sqOBBjqnsRJG17RGH8+W3kYCLiyQIhq5thwNNPT3HsjS8CL1xsrO+o9/nyZJMSFMWJg+nkaNHbpRKSiYAk5ks7rCikEjY1KjI0k1wXMnuQnDjB9mkfpjaMD8LXRTiXOMnEaVYfROs0mS6wnGDSSGLLYRzEUBvQlozkFtDx4nRwEN5NlAbYL8BfItn7WaQduizydsZ9Cwf+VUVvH3u61KP7tN7GPQyNjzNNDU9Z4wziDPQ3VK+X8XyaFJT15iU53knvppsBzY02NGsKQwf6vxBNp24Dxb/DRK8N7TMkcA6pDes4LlYCew3L5s0NDE3qNJa3fRR79OMcxkEQoSyYOnny/WYNBIB9AQ2iVa+6vdQKPJDk0FBo2MPYQJ09iq9VxGOaoYKpYwywEDisIPXbApFXeKQKPsAGoxbK0MpSDvAqr0bzvOS9PQoVddjl64ZbiW5QbJ+SG4tqBqkTPCXxJooHkTCxfMozcWP7jVHi35va7deXF0LYOG/SunnLw1sV4X7UQhImeDR2q/Kx6oXOeS24w9ue+u7h6NXr6D3ms+Wa70oJgrAbbX4L2nKD4diQ6NoIERpBCMHy1UZ7Q0bv9v7zrAoyq69obem93vs3wW0kMQ7PyKKNIR6aIgAtJUBBEL0iH03gSkNyH0lN1NQgq9VxEQpEOyJcmWUFWcf87M3N3Jzd1NBRI453nOA9nbZ+4975wOv5nTMZoqL36MBnRhABoc5DrE7uM+AijVci+q3AIgQGvfel8vZn4VMEUBYECG+vqtxz0eh6Bx50Gjyib7n/qLN5/Pxo9RjfJ78K96QxPKMykPJh7Kon950F77f1GOKwga90e7V4ik6jR6PXNCKt3bHmo2ntTvv5RMCd9Jfj+f/5adOQUNqHKr0OjlW1lLUtCEwKSCYbg5pytWJwXblQwcwH8xafVO9jsUXLybpdGhbAlUqYX+7TU/n+NqMVuW/vtih+msgnB284qgceed4DXjHFu773c+nA1oBBOe2HeZcjt5g5KnARuDtQ4ecexqDV+9/QKCxv3TIxwMUluOnCcdR61j/b9LiJajsBKEPhCQJDhx1Q6y69hFcv1WwZf2XhpzJEtpdCjjDe1Y4R5A42j6wwpywWRDRMiGzibbWJl2GDPwWX0/N44oFkeln4YP3WbYffqOXB86F0btPMUyut/+aiGP2HuH+yxK0bl88eNpZPD8+BybHRE07jCvspEPtzuXhBNSPBvQAC1DWT32kjcMEj+CZNBs9Trr3NXHQ2Lth7Bg4f0DGjIdoprHt7NjSWiXOaRM/ZFMaANDSOxjFFCCO88incdsINPW7WZlKY6dNTPz0V//3C5Q0ACCXiBfTI3mnfWo0IHOedDrAkmbEg6dIy91m8vGC7oFwjzekroAKu1eAVA2bDuer2tdv/k3uWhxkH0nr5DwhGNk5JIkZkp8gWoQSrfCEqIpFfwNHQ+nrNlNLqc6c3UdBI076wQH81S7XRk/5SDMVqkWAsDxoaeMP83aU1/tTqvka3RsQ0d4IQeN/8sbaCiUTD/uNUm/k67jNrJCguCsBAEAvg+lKx2YtKAA3qs9f2GawKejN5IBVFBBD3BIJlsVf4wKpxPMZq0wVC6dH3WQCpCd5Ce6Gu01OYr835cLmCBrPjBrEyZojPT9nDiWmAbXBx8MnPuvO2wyK0oEJc+nrt1FnmozmYFrpYajyeAFCRTIM48RgEbbYeF0DoeS13vNJ59QzfJLCspgJoLy9FA4EsBEni+YP/gdto9aupV8Pd3AAhagxW2NLj+Tp9tOZvk1JepxgABfBQAG+McgN+QHqukkHT7HeqvnhewZN0n9vggad8qfUWad/cZ3R50tcgAaAynfFlaouvIGqG4LzYPjKL+mCRqnSemQOIcBQaPwg4aSEV4QTtWIHSeZqaPRgGUMKKo1HceEA5geAEhA6APD/0u9O5JpKZB9rBTIkxmiZsqwY4czRy3E6MP/Pxio3bkPooHBLv8YCx0dxuz0ncLWkxPnrQ88YBz+00TaDQ9nmiD4KiCjetaGPZpRcAAa0H0Q5gxAX+lXDn4GmC+YF/VcAZcX8+Xqpf4WP05ZQJSj8wFaaNBns0jboeFkwqodZOuR8yQ940a+n8+UlkHe7DmPgsZorD11BzSN8htsFwceuhqaA9CApO/XKXem/Li8oTzhPcK92rcabXMsQZ9GIQUN+lGVG5pASlPQ6BxW8D3CQfD8eTmdxOw5TWas28NCJT/86Vfyao95xL/jDPJsuylUgEygoDKWgQY4PctJDH9XbTyGJRdCIh/05H7ho2lshdx8oPd2rwZ6TVjdlqDCC1a21TtMJ9PoCtvmvPHAgUWq4zoZuwKi36awAAZg0Pg27z/rde5A0yhOx65Gl9kktOvPdAEwjdUme6jZOFKx0WjN+QK/BIRlP/nhRPJ8+6nMRPnWV4vIR8PXUm1xM4uK2vHbBZKc5mTO9oKkcyk2EvLpTFKm0VhS4ucTRBeBoFGQTnD/GPuuMdkUKiwQ6rA7YzCCRiHlyOuk9Pg9pOy7w0i9PguJ49rNOy7AoEwJ2LivpDpZhi+YIwx7TpHVCb+R5XFHyIq4oy6Gv6FM++b9Z8i+E1foSvIqmROxj1XizUmP8PMmG/l8QgSrUQUr5rL1R5E6X8wny2KO0Ge9/xs4ZdBnXKg/SF6hIA3aAqtaS0EYzHyXLPZsAV+JnoIyMmDWOnnBSgX+RRKz7zQzHS6X5orNV+wR9jtsh/1Au0tzXGOBCnejyyIEaDzRfCwp12IyKbbkItOk8TsvONBoui1jmu5uUNsdjj66NbZ/ceALIdOVWIk5p0jFZhPI0x+OJ7uLgON4mQdHuCf6+59/ycrNR8lrdGVdRjhcKzUKI+99s4QsNR65L8Nzk9MyyPzIA+StPjwiCZ4ZTFKQtLd+64kcJWW6QOOtoUS/61SReO4p4btI2bpDSPlPFxCfNWlEt8GJ33gBmaaKr7X90/eQs9tdAY1Oe5xNK2ywXWPed5yAwsUbM4jPagup2Gk+Kfv2EObkLOwk52nkZu0K4Z2jlm4hL3SYxvtx1KOax/sjyWu9fmG/HztnJkW54/g/t2/TZ7CQoQsTWVnzMvVHCH/ESOL3yQwy8dcdJDUXtcNkTSO6kDdhAoIEVOgHU/L/BpFy30Wzd5uZYPE7LxDQqLjBZh96zLs/g/DihJUol/C2kw/lZyj7wf+19ll0zun38Ca7BUGjkPo1IqB7XwwFjcGkZpfC3yM8r6Dhtnuns9j/6h9PZw51YLDx/6flJGbDX2Q4SM6mFI0cD7D4nL6URn6JOkBaDVrFnP9KoAA4rH3pM0JF2MtWR578UUUJNECDqgTO+MZjSclph6igo5rGmlT6nqfjd14AkVNBsbbti86RMtmAxkOU11GOodySaFVApz9+Q3h3pt3gMdc6UbjFUuF5vX0/RlAVJk7nDCr8eqp6zvuDVGo1hZSkAuLHXzbf16DhAg+TjUxctZOVpuBJZcNZxA84eAFQWg9eTaav3c1yPdIc1++KTT5HTm2qLWw7eoFMDt/lynWAqCUAPkiKg2d5u89CMn3dbhbJlp8ghqICGuDof6fvIlKaassVuy4kuvnHiW7ZeaJbmUx04VYBHvjd5wc0mm1zjMpB1FQo4VngQFs9gcZ45R2jXMPTyd5McGxEZ3hhUjfT+Ye02kx0v5qIblUKKTdgEylfbxircgrVTu930JDNVrBKhSREiMwCZzmEiILTGAQxRAuBCav7xAiWf5Bw4Cw5l2xjZS/uLI78y5z1EBEUu+9PllvRddwmei/zmUYB96Zj9zmUhbn6fjKddBm7kWzcdoLYr+Y/oKEogQbkmZShgF+16RhS4sf1RDdzH9HN+Y3oFv1JdMsv0XfcjFpH/sxT/044fvW9HIBGe2laxnvaqbu0U2tPJ/t4d8YQBI1CpGUwwLAwsGAf1fKLpNjsI6TKR7NIWbparfX53EKb11DQoCFHdUF0EERnQf4A+AEgEa00yzkYzvwDJamghtIp/h1nkvf7L2VAM2RhApkfdYCV2jjwxxV6jlRy3mRnOQOQoQzsvH6L+RzgGhDRBL+BYIfCfBfovifodfedTGZZ879EHiADqbYH5wZnPYQZQ4hrSWFKY3kS740g1ZqMZWHL7YevIYsMh8jpy2kFHi5dFEADIrYeajaWVGkwipSnwKkbso7oxsQR3ZSdFDiOEN3CU1TruMgXR+EIHHnRMv4TbT+uT8l4JAegMVmamo887dSQ8B7hQB09nazrnow2xZVUdJyIQqBhWPhHtOIy0S2lavzC0+zjKjl8M6nWfBwp9c5QUrfPQtZzufCBxiEOGqLK7Z2ii2YHWbf1OPl+TiwDiKfbTGamn1LCZ6D0dVCS3WC1D9nV0LwIhHmtz+fQMVzEepDU67uYtKD3Cz1A3qH/B/PR23QbOKz9O80k/2k1iZnFWCJjfQ5SSjXh4iKjHjroQeOphgOWkUHz40nEjj/IJYvzjj0/ZNdD5dti7wwrtD3CIYn0P60mkvLvjSKVPxhDivWYQnTfLSG6oRuIbuxmopu2mwLHUf5+L7tAF0kmbq4CfwfKgxy3d22yzTkxh136XgX3EmWwi9bytNOzlIdSbkO5oqeTLfzz+lMVN9kuI2jcYw0DPhb4aFZRdX3FFaph0A9pyRmiW3CS6OYeI7qfD5Gy/daQqo3CSGkquKCVKqyCCxOtTjjG8jRAeN746++7cs0bN/8mF1LsJJIK6tHLtpJu4zexyr5QMuXpNiDww1gCYUmRSKiACpi4FFay4BXTlwsUBPAox4J/Akp8QELd+/2XsDwT6Exo2H2KXDDbyY1bd+eZoZcF5LTAvRXGkNvwxN/JUxSgy1LAqNp8DCnZfjjRdR1DdH3mEN0PvxLdiCiiG7+F6GbsI7p5vxPdYjBVXebAscaKGkdOQ23X224PP+Zslsv2ruDbKJuvsNvwS6Ssf6w9EZ3h91DDUKJJmJaRwj8g0DIW0VXYL8cpYBzhtuDJO0i5XksEcIxgpqr4A2cLjbBIPHiWCbLa3efmKSqoYKKW/mU+DfA37D1xmZmmwGwGvdWh8B/U4IJILNBQgN/rt5i8QQXwm5TB5AS/1f9mKWk7dA0DoO9+jmXlNCBZDs4F5wSzFdRgulf+9+TUDBYQANn6hSl/BxIFIbMf6lWBdle1+VhSqt0IovtkCNF1HkV0X8wkugFLhbYhzFSzD/GF0ZKzRLfyCvfloXM8Rwl9fgb7wV9OX/+v7l7QJ7ud47Ha7T02S4GWAR8MRJWAnXfJOa66M9A4THTT99KPbAddocWTcj0XkmqNx9CV3EjmDJ4cvpNVkr3XdPJiKjMBgdDYe+JKkQiNVXwZsHovKrTj2EVmbgPzWWHpiHiRalrg7C9XfySp1GA0A4yS7aiG0ZFqcR8roDGD6L5dTHSD1xHdaCPRTdpGF0MHJG3jkmSmQm3Du2kqnXTc7Ryju1c09LeMlkzTQBNV4QCN5WrQoJrGdK5p6CYk0g8ulpTuvZj5OCqBk7FBGGny/XImTO4lXbtxi9T9eiErhLcg+iBBujMERR91rw8iH/y0kjnu7yVBlWLIn4E6VpDVX7XxWFK5+RhSAkxSnwx1c5cxbk0jC2gc41o1c4qncI0btQ2vDvCKG2zpE05m1LtjoEB4op/H4oVDjzleeHiT/RSaqAqLpkFXXEvPCfPUCe4wnLGf6KbuoqCxhTsSw6JJiX7LSGW6sq/aMIyUfnc4c9r2m2FgkUb3iqCEtu6VH1mXvmuFQPu53whMQA1B8L72EwlbtvWeggW0noUgAghCKP9+GIsaq/DhaFKswzAJMKiW0YkCSPdJRPf1XKL7fgXRDd1IQYO+J5O2q0DjAn3/KWiEI2hk26Uv1hGbmE1Cn5D9b1D+mnKl3Dg+oFMTdPLr7Gm/yZdI2Vc2O9dg6G1h0TSETwNU9vnCET7rENFN20u1DfqhjU9g2oZuZBTx+XEVKd9xFqnWDLSOMJZ1DPZu6F1x5E/TXU9823zgLClFV5xPtJzI7P9IBUuQFwKFDaEHSuKhc3f9+mAGhVyhDiPWsp7lpetx7aJqszGkbOtRHCg6Ds2sZXQdR3RfziK6/ouJ7qdw9t7qxiVwn8asg3RhBOapMx40DTRTqbn4Wtvt7vsyeuQQA5RQ21jKT+fkgFKEZ/8BQVOG0p727bE/oyeaqO4xaMAKC2y6ED3F/BpneSw70zZ+46uyaXv4Cg0+ujCq4o+MZOp+yS8XkYptJzNfB4AHRPuA5vFJ2Hqydstxkua8fleEii3jBnn/26Us9Baii/79FwV9QRHkk3Sk8wlaBuTCXLv591279pnkdDJ93R7WghY0C1icQGn8qs3GkvItw0jxj4ZlBYuO9LcuY7kvo/8ioqMLHN0woWVM3Mb9dKBFL/iDv+uwWIJwczRPec/NiLKfCj939fEcyP9HKR8WU/g75f/lVNuYKA6CgO4XPe0X9tvVkKobbRfQRHUPo6fCzRw0XCaq83wFBh8VrMbgA5u5XwUcMUQ3IpJFpPh8/ysp1WMeqdhmEqnWdDSpDH0w6Kofmh0FfjqT9J1hZOWxIfrnTtLK+N+YuQy6BMbtO4PSvoAI5q5y49GkXP1RZBUd4ztJN2/9Q46eMZH50QdIh5FrWYADZOTDtQEsqjUDUxSAhXB2d5TMUeD4/nQE0X0+gWoYszlgDATA2MTf1/FJRDd1N4+cAic4+O6WXuCLJczXyNY01X6XMyyHsr814RVBgBblxp8ht35t6Wm/uftJydqbHREIGvcCONIyh93KUVQs9PZPDhzzlPBbqnFM3SNMVYk8y3ZkNLcVD1pDdN8tJyV7ziUV2k9mK0FF+4AS3JChG9BpJmvrOmLJFpbfAMIBSnbcKqDWq39eSSOv9/6F6OoMJu/2W8J6jyPljy5bnSwsGIIMXu05j80Z5MIUhCIHyYIQIg3hu9B7o99MI0t0fK79VKZVwHtTpdEY5rMAJ3f5lqOyOroBLOBf8F+AdtF7OtF9PY/oQOsEk9TwCPqexlINYwv3zYFZigHGKR70oeRpoJbhVcuoGuG4svac0y+Hsv9pyuMoQ1x229yAhj/lnZSXwP+9NmXaldGr5FrbbZyge6hxKL4NZqZSaRwLBXAwjeOgCMOlH+DErUQ3Nj6T1qEbRD/U75aR4l/8Qsp2mkYqtZzAAKQKFQIVoJMb1UCg5AU0QQLhAL2mWw9ZzQTGmBXbWPTTpm0nWB7IwVPJ5MAfmRl+23bkAonaeYosjTlCJq/eyZzgnUevp0CxmDzTbgprEQtZ2l/P0GMv8Hyapb6YGs3GEvwZ/205kdTqNodFzEHdraGLEsnMDXvJmsTfiXHvn2T38Ut0flJU85VC9hy/zHwia+l+szfuJcPocT0nRZImdJEB54MMbv5ejGQaBYTOQrkWSNADraJ02xGSk3uIxPTvT0cSXbfxRNdrGtH1mUu1iyVE9+OvRDeEvosj9Tx4A0xSoCXPOuQGjMVnebTgr8IBjlqG1wzw+lsc04iHquVegqCe8uaa8OQMr5aTfWf/ceO5aptsyejXuIcah+wUV/wbEL8O6jsDjlNu5/jsw26tA8xVE5JEZJWBr+yGrKervNX0411BfL5ZREr0msMApGKbiaTKB+PIQ024FlKZCvcK9cNYjD0IDLBXA5g81HQc6xkNvhEtfvzDiax9KKxG2XGUwYTBErvoudk2OHfDUUyoIeWNJq/eQSo0CqOAMZo8TIU4zFnFBny+yor5gnGv2gQc5ONY7o7WfMHvj9J5h7mBsihsvgRAwPlAm2DvRFO6uACgaCkDhQokOg3jQAFaRY/JRPfFLKLrS7XLb5dw3wWE1cICBgI24L2EHCPIAId3FhY+TMM4y7Vp0KqhEgJWvfWuZWy0p0z949rLusJGDbc452IUVSEBDsUxDqswxTkOobiLhbkKcjjAQQ4f4gzhJAeTFQvLpZrHaNA8orktGT7igauZ6QpszMW+mkdKdp9FynSaSsq3m0Qqtp7AgASqkYLwAQathHFDD0yFDKx8gdlxlKs0DSOVm40kFZoPJWWbDiSVm45gGsfDVJgtNR5GBMglzYvcz1b7laiQr9h2IinVdQYp98kU9v/KH45jSXTKnLH5yG6+lDlrIuarGT33B6NJxRYUhFpSAGoznJRoN4z4dBjqjoTqKMxOkKAHIPH5RKLrOZVHRPUTQPHDSq7dgpYLptKxAiwgtwg0YtAu5v7GFzxgbgXtGeqrsWgps6RhYLSUJ1/Ga/H2n3WFkcacyKjrs872F2obhcAxzsDD4i6TrmgdEM8OduDFp93gwepTHeaO8ul7+McKZivm8xDaB9T8Ab/H4LVCA1nJk636L2SrxGK9fybFe8wgJbtMJaU+nULKfDKRlG0/npRtN178O46UbTOG8mjKYaRM61GkbOsRpBQImraDSfHWA0mxVt8Tn5bfEl3LvkT3wRekeLO+VDDxlexjLcaTRfpDiAQ5pDmb9jEfVAUoith6EinWH/wDvzKzo+6bhaRYn19I8S/4nJX6bCop3WkKKdthEp8rZd7YnI3m3DqMzVvpdqNIKcolPhpJin88gvh8Mpz4dBpBQYFqDp9RYPgsjILDaG5ugvwKKDbYewbRffUzBYn59NqL+D2A+emnNQIoonjCHixW4L0DsyloFi6wOMFzMeC9hcWP4vRWAGMNAoY3LePRSPul3occL+fQulTJW15egRPkbLwU64hBbaOQFDGEAm5aWsdy4SRfImseJzh4gM8DHI2QRQ7VRAFAIPsWVn7gNAcNZJSeaiARHESYGSucCwFIvvqOCqcBVDB8s4CCyTzKc4muDxUYfejK8ksqPHrTVWZPKki60xVnt3GU6erzs9F8NfqJKBvRfiDRtf6OgsfXpMQH/emqdjSp0GA0KyU+cdUO9HFkkzg3ZsV2ZiaqUH8UqdJyIin+7a/c3AMhqwz413OBrczZ93TOvltMFwAL+OpfnrOvZhLdF9M5fyn+7S0zndMv6T5fzeb+COC+8xkw6QZQLWLAMq5JwEIDFhzgpxhB350wPTc/QRQfOLjBBAULFtB6IWADkvZcYHGWL3aWq7QLV8kQBAxvoPFWon1iLnwYUGZ6EuXK+c0KL0v5XcrLKDfytu9PR69+TEHjX9Q2CgNwKA7yVA4gqyXNQ0kEdJmtzvAPFArAgfYBHy18vLDag1UfmK9gBQgmLPjIQQuBDx6iWljOh55rIwAmIBiYRrJGCKdVAlCWc3NEv0VcsICAgbBKEDwAJLA6hZIRHSmAdKDg0e5Homv1DSnZ/DsKHGGkYsMxzP7ec1LUXcsdKUqUkuZkNZzA31CFamdVP5xISvRfyfNxwOwDwQ5hYr5GGcScRXITJJuzdTyCDuYMzJEwb1BZ9vuVXPAzgBHM/ha/Q0gsgAIcB8czcFjPfWPwTsC1QZOARcfYBG4ChfcIIqHA/AS+NdB0Fa0CgjZgMSNrFi6wEBFSCBY5qmb7cITtzORjjhdyKOdfoazU5Z8BPu38gEYHyrfFyX7xtu/Us1cfezLSvgu1jcJmtkp1r84YeIjeGy6fhzBduaKtFAA5waNVFP8HgAh85PCxw0cPmbmsrtVWro0AmIBgAKf6aElAKcJp8AYuXJjQWcYzfUErgTIRUF8IwANs3+AoBa2j3Q8UOPqR4s36kUpNR5JqTcaxMM43v1hAthw+h0ghKGbfnyyctsy7dIwajSaVQcPos5ALcNAwwoT5B+qPgdAG7XGiNGfj4vmcKdqkDCwg9LOw3s2wLxwD8w3ngHNB5QHIqZi0lQMELDiYJiFAAt4l0Grh3WJAcYr7KxhQXOCmVFjYKAl7yrvrAgz8rnOiZbTa4fwmF3J+qfRKDcuvphEEiZ1KKL23RD+gdnscX2KGeCHWPJi/Q/g8wlXaB5SYdmkgiglLAZE/+Aeu+EHgowdtZLYAEvCJgFbCAGW3ABXhHwFhxRzssdy8NTzSbdr6XvhH+i3gtm8IvQStA8xWoHG0+Z6Zqoo17U0qNhlMqjUdz/otPEFX0j/9spmYbQ9uLscFs4OFK0OrWBgTFh3Vehwp3msmNw+BxjBcSYxL5GChrPChJtkM9ZwJVhYDMH8g9LV4itgO+yrHgUaqnBveCTB1zj7C3xV4ZyDRFBYjCkhA2Cy8Z/C+wXu3QgAFREQpYLEWNYu8OL9D4pwJURfsVXMo45+grIQpQs+EwIIoXKigEGQJtvK274yT1570M9j3obZRyAFEcZi7EgMFK/4PABGIUllxSYCI4kSnH/oixZx1KjOYgFAA0xa05ASTAwiNGUIzAeEyabtUONHINZAhSnTWMu4ohYY7vafxSBtwrH48mOjaUuD44Evi07QnKdtoAIveAXMVmGKgpwVkOUOl3AeFoKAjRJRBJ0EIm60ECXR0TMq1HE58wMQHfgbIpmbJcSJ8dWISnwMQ6Io5CAQ5MMwZ+/s392IA9vitc9wAADU7SURBVPHKR9ysHMvOBdrDcf5OwLsB7wi8K/DewPsD7xEzOynaRAp/5xSgWGN1v5cIFnkySxVba3N23e9okksZ/wLlTfnWMqQTdqMMBfh/yomT5NO9zu705v/BSSxKjvPUzCG7zIFuFppIituUpURigUMdPn4lIkthxT+yUIDJPA0HO6x4WXQWaB7R3ITCtI4VXNgp5iqIwPmMCsEOg6jGMYDomn9JdI26khINepJKjYeyfBCoklqhQRhpNGAZ2bjt5F3rgncv6Or1v8japN9Zy9Zy9Lnh2WEMKjUZSko2/5bo2v9IdF3HZi3yByA9SdRsYiU4jqlW/Ge4HwH+z9oEq3iRxFrbFyvnUIABzExCg2AAIbQIxeS0SqVNKECBobMFksjXYodjdh7lPNQcLF9QoPEQ5Ro5zSjcdNJasbrRsQ1LixRBAFGDiBpIVnMw8VllcmklPiuFQFghzFvLFTA56waQX0RG+qwD3L49dSd3qrOMdCmpEJyv4DCH6CtI/Oo+meg+HUWBg2ocrSlwfPAV0TXsQnwadCFlGn/LnORVma9jFKncaDQrerg05vB9ZbaCZ4FaTu98vYglPZatD888nj77KFKmUX/i0+hzZsJjEWjdJnAzn9J/AvwOYB4EsxRofczh/AcHCCbYL4k5U/iSii+6hT8zI13KygAKYNqk7LNSLDBWyRqE2Z21rfgmIFTWFS6LQFFQfozn9PajkGytK4rU54DzwxLrbbfRt3Gf+EJkVj5+mV0mLkUzkSK0WNXd0+4CimDeUPp8gF1cCemFVTGEhIK5CoQeRFkBcEDmMJiqoPppu++J7sO+RNe4O9E1+IwUa9SLlG/8IwvNBUc5ZCxXajyatY6FchdQCuP6raLXnwPqOu36/RLz29T+fC6v5USfDZ4RgLJckx9IsYY92RjomvXmQQMwRuATgpwIAF+IZgPTFDikAahBy2ChrH+6C/2BkAfBvkrMHasoIKoKeGSzm2XTpuy0DpfNTMq7owYIBIuC5BLrbH99tDujVS41ixKFBjSGHiOl3tviWI7tYO8/m6l7dQiclhVYwoV2Iof3Mse6UrJdFFCcfdDdjhZs7qzXh8FdQBHi/BUHec9pvL8C5HRALkfL/kTXtBfTOkBwFm/Um5QT4FGFClbI7YCaS0+0nMDKgUOv70OnUlgzosJK12/+TQ6dTmG9xRt/t5w88sF4UrLeCPYsrPcEfbZyTX6kzyqeu2FnomvSk+e1QHkOyH8BnxAA7qC1XMsYL/pPzBRaBow/mI+YT0HqQbE2zb36X6PSNLOwtJ96QbFWejcw0umumqWabs+YkUsLElQy/+GuAAK90MOUa2cLHMevvVRpo+0imqnud5OWpyKKFlWDKDBZnXEDBwgxJRdkigjdBfs7AMcwd+VdlizGHOTTeWRVZxGSC5FVH/ThWkfDzwR49CRlm3xHKjUdQR5qOp5UaTSW1UgCDQQyy+v1W0wGL0wgG7adIH9eTmNF/e5lMh70Rwc/xY/z4shbXy1kNbvAVwHmtioUKOAZKjcZwQIAmGYhQFLXsCvXMNp+x4EUAgcg7wV6abOoqQiuvUHwAfNlHOYOatHpzgd8DKA1sJpN6dpmSo+ci3cB+a5ES1U32HZ02JazaCkhw2uDm4wyOAE732nAgOq38ZQhUP6x7PZ/JcE5gK1O0Uz1YIGIqvKuj6vyrlRAUWkSxYBjv6i8u034OYw88gfMVZC9PGAxN7t8QQVj9ync4duJgsdHP9GV9rdE1/wrAR6KUO1OSjb6ilRo8hOp0pQXQgQNpHyD0bxIX9OxrFMhlGD/Yko0+TliH9m8/yz5/ZyFpDquk5sFmHl+66/brIT8sbNmllMBlWJ7TIxkZcSf7zCN1XSC/BNw6FdpPI7dW5WmI0n5xgNJycZfE5+GblBkYAHaBZjoIEAATFLg9wFQBV8QJNopZikId2bVYQ9mqg7rA34IV6c7rAxb1AGj2kbHlUXnrr+WCxlelXK09Ir2vtOgMUW62JfZahuHbFXeSHTEYgjug1qynWsbPuAwB+AAxypE2LBIHVXxRIiumipFV4Hgg6xiyFgGrUMdXQW+DgAPaNyjRFi16MOFaqOuXMg26EKKN+xBSjXqS8o3GUiF8QgKIGDCGksqNhhDyrw3ipf0ppoIVHr1pUACiXIf/LiS9JocxcqHT1+3myw2HGIaAZQIB8EPLVMPnUomB/9IJgkHz7LfWfnwLb+zfaeE7yKDFyRQcIggzQeuJK/0mEdepOeGcigQ+VSGlRIfxUKHqzTmxQMrNxnO7rFU474UKHoIoOjMn6NRN6Jr2pPX5oIoKUiAhGZF0N0Oyn9AyDKMEYQxg4YBgAFjCYAx5xh3frPWqIqWYZZKceD7WlQd3yXW2m8MOXL101zK8CdE2wug9ZTL3GnQeIuyRVwQ2oA9kt0xo35zvlFlk+0yahsPaJMoKYmQA4fc6+OUO/NcaRTFypbsVPX7iObgMTCc6H5YLsBDRFgpZUg6h/EIIlaCpD/L7eAA0o0LYIi6avg5KdHoS1Km0bdUCxlEKtMVPXOiN+WlvSs3GssEOSsB/u4IUuKd4aTY28NIGaoJgDMaemwDP95iAnmmzRTKk5nZC6rxwu9KuXc4Bo4tzUqIh7nBQSkh3iSMmZ3gHso07k/v6StJo+jMNSa47yY9eMQYaFMQQQYVY8F3AeVXvv7FncQHfiCIQoOMbDBJufpPHOMBCBAWu4w7v1nkG8yJyweB72pR1TI67clZNz4NOR5IOYly47vl0/hZqlFSMifHtNyZ0aM45G4gcDxgvo50TVOVD4usUoflnuB+DojymaECD6h1pWgeiqNcqbbbT9Sy6j2Tm2oYgIziAALmqzZU4H7Yh/sAGvcQTmRu7vFp2I1qIr2oJvI1KdsYgGQg5SFMoEOUkgImzLxFhX7lxvxfYEiqA5Z/g/0UYKjGSo9zcIBs9nKNB9JrDCAl6bXgmjp6ba4NfeYCNWZia0a3ffg115xAg+okGhWxsuKzie6b+VyzAAAdopQUjxfNinaLek5HuBa3wN2wyEfuP+FqWISgUVQd328nOVbvz6H89SDHq9y16Cl6oZcpj8iNWtN9PylZK87+MzrFH0T/RnrmtrQAHEzruCJ1GDybuWiiAh4uzUP4O8YL8Bgpqu0OWe/u9wGrbhZtNYebr1hJkgm8JAnkeij1rEAYt+zHkwXB5AOCGsxZ4C9gPpGuxKfB56RYwx5MuJds+CUDldKN+rG8CGBwTJdr/D1j+L/yO+wD+5ak2kzxhj3pObrTc3VjZjIODqBBdOHXa/w5jwADjQjup813FOQGUrAbxn0VSkc7qCILeSus/8SvoqbUJu73GSeVFJ8psr0V7ULpP7HsMh3rFBVgIFgUZQ3jlXjH5p2XHNV09zt9uCPj0ReN9lgEjgc481ytdaxMoVqHFnj84QYPVnFXZJRDbsekHTwxELSPMKWeVYTb9wEVWqFMe39RURdCdnsLEIEscwjdBU0EVvAubeR7btICBzP4RUCQg2YCoNLkcy7gG3fjDAJfi5XtjcX+YFqC4wGc4JzACji0/ZFfF6r6glkN7gnuracACTA99Rf9J6CSLAAF1JGCyDLwWSiNisBvMUMUAZwrajtBv5SlvEqsj1KqA8bblXWN72NRDnl/KNK+Z/If9ufyYI6qVSSBo/EOW+hjkbbTCBxYtsQFHr9y8HBX3BU5HWCHV9rU/iJX2z3odppPVgAkkYfrjoKoqygOIkpVXdY7QtFEFvJVO0QbQbmNXtN5syAQ2Kw8+1i3ZtJxBNdOoP7VR4M4Q44I+Ey0GLYp+4H/ATQGaFIE54JyKKx73QTuwO81VTQoms19M1DtF+4P7hNAYtA6ohu6iT+Lq0qtUlZ8N482A00MsuyZGUopKX5eVIm9wrQ5DhaiWdFazJ0o+qG1jmPtdmQE5RIwqgn/BRSeDS0UQCAyC3tDqZGc7N9mt71+lQibGf0bD3p0lVS2XWQiM81jhSiWqDSMYtqHBCDzZA1EhOuCCQu0EKXzoAIiULablfGOEr0j1vPEN+ZQXynAZCmv1QSAAv4RBiqiGRGYuRTuPT17du0/i2s4cB6I9uonmhOBiQmuB8581sEunJf7AD8NRD7BvcI9M5BI4iY58OtMU8qKH+LgqQCFqlER8xcpJcXXWN3aHb5zRT5S6olI+4GJJ67VyqVsLkl5lhTxuptyxXsNGBUozxQ3NDenx3Xd7+hQYYPdgRoHah6ZtQ+Ly3TF6lpBtI9SjkStgWTq+XHUbcZiTvS97jLfEE2ktLAFYezqG2HgUVmQD6J0IxwsQIU1JAp3NyQCAf+jaDwkNyX6YQX/3cWr+DEDlcZE63glX0hWBNAarjRFMnLfzBjRg0Lpc6GYnFh/7ANubYJ1szvp9lUwoLjINDMfzZLi6Le4nzSM5w32g413Xg3Og3wOoHxFyOd/KQ8oDFrGe5Rt4qbslHNckvebgxm9Sq2zXUfgQODIWixR1C8SdZBYngeYsJaLKrtLL7hLkyggkkkTgXLfR7ljGAQvCGDQSEAYs1a2FEymbJcaEomOhOBoZ8CiNCWK48KdgYxoUMSaFAlW/maNiEQzIjhmbJxoSpTAz8u0hi0cwJR+FAo4wH2x3hOHeVl51nviOH8WV4Ois+6y4qBRrFQBRaY6T/hO3U+A8VS0bfuwo06/fMjo7gIwfs1p0dk7DRqlKa+S1J9fcnP8T4czevqstd1C4ED2qIGEZwUR3vNDaCIrLmft+cFKtEsaCSvTflxoJaJc+xzRRAoENmskpWompW5OBOYvj7w7azOimful8wqtAbShOaIHBdwLaEpMgzglypCLMuNLld4Tl/jzKdqEAhThUjlx9FPcnzXeqEysudluaLnD9kw+ZXQ5yl9R9i00zm16M8+Irn6/Q5mR3B7/2V7nZxU22pwIHMhZKuy6/B+q0F25ui74Qn7lYby8RHuyVOb7oruV7ZKz7t4RsnbCGkmdFA53paGUABjguVKTIo98zL3/PHH8/BPu8yrXWiT1n1giOtcBOCwXZcdZz5JkrlkpvSeUsuKu6CfUJu53wKALafJGgnPegpPWirr7lShY1ATO6/H1kpwfPhZhu4zlRpBzXaqEsboPujmzb2RlitvJLvePUBpJKay0uWV8VmgtOWS5GRXLj5DOu1z0rVjBGcxLzNy20kPfiSwlxXG+HxSHd+n1NucXB53fDE3MfeIdNMmj/DHlp3UPAoUdy3jneb39OAIHcr4z0BXOVNJb1ftB1TtC0Vb4Kh842c1MyF9xNRviDYeSM+/jOk5oCb9KPSjUfSfktqZKa9O1Oakki3xfR0hF2Y+32O5olI/F+0DhJoAagcWKovYRlNsm5Z/sc/r6Gh2bmKkKVXDkfJdr91De22XqkntDpHJWHPFrUjM75bU4EyhZ3edwgZa6Qx32m0DOao4qtd72T51Ex69Dj9qfy4e8bSvKnSuRUm2LGmA8TvmoKMFbITfHdtlurdhht2MkHUj0cyDfmyiudTld9eflGGRkt7P7kSjbuY92ObvVTcxfHSgqZ4dLAUmRlP9X1EBjsfQAYSQPhbU+2eNo8kS0/ShqHcjIyPebKarMevuNV+Mdi9psd/oWkMyFzO8DIvu7alEDDB/K31FW2qJZKVfPy7mGHrv6eKudzskl19tS0deBjIxc1MHCZ63tX/9Yx47Oex0N71BAUqiuKBI4YUQPWqAx+T1f/6MZb72a4ExkWgdqHsjIyEXMDAX8jN5+fMBhZ5fexywV8ilfIT+uJ/iN77cwXPBr/ED52YI4XyM9Kd1tX0brGpvtu3yUicCXEhkZubCCRbiNlFhvIwGx9r1d9zm7tNmZ/3LmVJ6WF72Mcp1MXZTB5B1ICMzr8ROOmMp/sMPe+rUERxydkH9c2ge+qMjIyIUAKGBRW3GTPb32Zseq1xOdTTsfslUpQPk5UvIXO+9a9717CBhPUz5JeQflp/Jzrrn7Sckhv12tHxRnn/Ws3n6GTthtl+kKzVfIyMh3AyTWuk1Q5TbarvnH2Ha8HO8YNP2PqzXukAztL4EGyNKX73fQGCc98PaCCgsbcOzq498cymjzTpJ94SOR9lPlN9n+KiYKfqEPBBkZuUD9E0KbKLvR9k+1CPvl5wyOiK8OOr8fcfRarfz6K3IgQ30pnxXy88UHwTQ1QQINE+VXC/oa4cdIhY57MurV2+ro22yHY1VQrH3PQ5H2i3TC/8qkiSAjIyPnhKncKLnedu2JKPuZ4Fj77g93OlY32e78ts0eR5Opv1197A7KyxqUW8jVaen/i1N+n/ITD4o/A6Kq+grQWHo3rgnIXzfx6uOzT14NmXby2gc99mf0bLLdMfitROeYt5OcYcjIyMgyv5PkHF1vi2PUR7uc3/Q75Px0yZmr7/U55HgxJCbj0W+PmMrf6RLjonlSV8rplP+g/LzuQSaRx9GS8huq358UCFpOh4SEhPTgysieohSIQoNxVLQH6lPKf1FeCYACscg4KkhISA+gLGwiIqOIaHLXG0cl6yBVpbxZQtbzRa52ChISElLuZd/zlN+iXFb6rSLlrZQNlINxlLQH7gnKWyTQiCqSpX2RkJCQcibzXga/rtAozlF+QbX92bzU7HvQBrGiqFmVBpnkqm21RVmSEAQTJCSk+0DeDSCZqSuOSt4HE/pw/Ef121diYCGaYBPl53CkkJCQCrksg/DYN8ViOFC17RWp/wXkXbTGESu4gS8tbHsKpcpVc0U0VnVR4bESjhgSElIhkFtQey+O8j9CbvVVbYfQ3QTKk2BfHLGCHXwY3EWUr4nBPyyH5YIDibKe8g3KpygPVR3/MKA45XYiUaaiajvYDttT/ojyu6pEmlKUG4pjYfubGuduI7pmwTl8VdufotxB7ANcTbW9hjgvHP8BXE/aVkzU6WovuK7q2HKUW4lj4dyPqrY/Iu67vYjGKKva7i+2dRDRaj4qIH5L3BvwSxorqAbi+HbqnsSiV3FLaczLq7Y/Jz0XnKe4tK0M5UbiueDar6uOfUict43Y/qJq+3/EeduIea+i2l5TGvMWKgckjHl9adzeUo1LaTFP7cS5H1Gd+zHpXWisjgAUWrTyrr2lNrXCHEvbQzXGvKE05v9Vba8qxhy2N9eY7xelY2F8S6jGvIk05q+ojq0ivWcfqfMGoJacNOZw/odU22tJY95MHVYv3gHlG6uj8Q02E+dvpTHmT0r33UD+hsT2EOk9fkd+18T2OtL2ENW2Eqoxf1y1/VVhZgL5NFZ+z4XcOiotdtfK74P4xh5GCX/ngMNHCNiRGv6Oh4UjSaH5qu0fStuuabwY3aXth2TnkxC8f8oTrzr2dZVd8jvV9g6q7W+rts9WZchXUQmoXdL2JNXH9LQEpEDvqs7dWNp2WV3rC8BV2h6tEiLFRTCCQpM1gPy0tP1jDdX7b7HtOuUA1fYe0rEHQWipBK88n6tUz/2KKob9G9W5O6nGXJ0PNEfaBr1eHlMJiQPS9jgVoMHqMUPa/p7q3M2lbZdAoKm2j5K2b9IQcEZp+0TVtkqqcemg8S7+JRWyUztWe0vH/i4vnmDBQfmitH2pDGgC7G5J27/2Mp9EXQ+J/j1P2pYim5/Ft31E2m5UfYNPC7M0ET163vXyff+psXgaI23frAFYa6Xt41XbqqnGvK2Xb+ioBqCtEtuSKQ9Bx/Y9BBANtE+VBMkALx9LhjqEjf79ubT9uGq1/4jQXhQK17j2bWn7t6rtn2YDGjOlbVdUoAErrJ3S9kSV8HxKiuUGqucFNC5qgMZglXAsqVpxR3gRYBVUQkYtwF6WhAzYbf29APV+FWiAADsjbV+peu6XVaDRT3XuLqoxr6Pa/rMKqNWgsU/aHqMCjSek59ISYDJoXNAAjRHS9g1qISLA25MAq6gal49U21+jfFNsu6lufEb/7iUd+5vchlm85+el7UtUoBGoAo0+XuYTqLZq+1zVAkYNGoek7QbVu/istDgCU887qnO3UAG1WhsIk7bHaoBGuLR9rAZonPECGt09gaHY3lYUGHwCJXfhApGHhCD5SCC/GhQGiJUKvKwnNFa9HSlbKJs1hOfDIl46ReyzQEM4XhQvK2z/UrW9jbj2BbGP2tQyWgDeZWF2U2sakUKwAa9XCc//itX+ZcFvqc5dTxwH975H44X+VtyzVQjmEirQWCbGBKLZRmqYxnZK52+l2h4qVn0mMeZqE1JncW2TGPPSKgG2U6zOLELgyM9dW1zzorj3Hqpztxe/XxTnUK96x4ntl4XwfFTaVlKsdFPEs69SjcujoqxDshCy6jFvKLbBc+3WEGA/iGeCOV+uARqrpe3DNIB6mzTmLVTba4v3wSTu8TkNMLWIY7dqgMZece9W0a9BHvMAMZ4XxfvQTXXuT8R4XRTnV5szJ4prXxGa5ZMq0IiXvrEVqjF/SmhGJrHqVy8Cmoi5tIgxf1i1/SdpTNdpmO0WimdOVWdeC9DYJp4Nrt9Utf0dcU+woJuqNoUiISEhISEhISEhISEhISEhISEhISEhISEhISEhISEhISEhISEhISEhISEhISEhISEhISEhISEhISEhISEhISEhISEhISEhISEhISEhFT0ixCfQkDrIPzolJUBv2e+vN72mtdsb++ytqm8ynaP7nQ2Js3XCgUNCQkJ6ACk0wdHEP9p0izJhrDedDokxZepD8FKCtRb93ekXBfukkACD9fxLiY4XcPSQkJCQHjAKMJgnuQBDcKDB2l7ex99gGsQBw830uB44ekhISEgPGPkbUpaqQcMv2pypA55/tHmWeh9/fcr3OHpISEhIDxpo6M2LswBClClT4/uAKNMMDdD4DkcPCQkJ6X4kQnzqJro7oN1J0Ki1H3sfIyEhIRVZevOA8//89abdAXrzmaAYy+j/hl8qeydAIyAu/elAvWUVPfYCvU7EW3vs/8PRR0JCQipC9OrutEohcdbdshM7wGDZGRBnqekGjZR8g0agMa0hBZ/TLp8IvV7NhNSlOAN5o9d3krIvbUtv6huVMiLIkNpSF06Kw+814lP/ExJr7Ra0+epjBXWtWonOh4OMqR2bnyQVceSRkB5wejEqpQkV4FezCPxoky04Nq0NA41o0/y8gIbiLA+IsQ6lf/+TZTvVOF6MSvbHWcgdhejT/ku1wngF6Om/N30N6SGwLchgHeYXlUKokB9YUNeji4gfqSZ6+6UEa3ccfSSkB5yoYG+VKQcjM9+mwmkT1Ri25QE0bgdGm6KosEnycG4KKiZzoNFcA2chdxQYa5vhF53s0tiCY82/U43xv2w+I5On8flJmVVQ16Pnm8rPaR6Mo4+E9ICTf7TtGf9o80lPgt0j58Q85YVB2NEVrCEg0VIBZyE385X8TEC06SjLlTFaxr4QceWl13c6qinbfaNMU9j46k3TCxA0JjOzpd40EGcACQlJVzPB1oUKhL/uFmhw84nFVCsxvQ6Ofu7IV29+k47hzUC9+dTrqoAFJuD1CBpISEh3gQJibaEBerP+boBGQLRlfs142zM46nmYJ4OpORfg5nDF+Y2ggYSEdE8I8jSCjKlhVED8e0dAQ29OD46xfowjnQ/QiLa0BU0tOC5tAeTWIGggISEVgtWstTldyZ7zamLKSRmRTIBh2RcUa62No5t/TcMvKpnUSHDOQdBAQkIqNBS02fxYkME6x1NkFRVKn6uE1VhNU5TebAvWp34fEmMqj6Oad3pjt71V9QjTdKqtxYqCkScCDZZfAvXmIUGbzI/dUdCIyh40XtCnVQo0WqYEGK39MeMfCek+o1BDyrP04/7Z32Da6G80ved1ZRuT3igg2nxeBQbOGput1eX9AjdbGmb1XZj3BMRaQr2dH8CEAsvwAIMlISjG0qWNhp0+kwAzWl8K0FvAhBbFQnqNpq9rRSaX0753yw9UuE6C/z8Xl145wGj50p+HAW8O1FtGBUeZnsvJeDGzXUxa/QCDeS5d6SfQ+13rb7B0VUd+wX34RZvmhBhsffIzPzXiHa9QAb0iOCbVj50X7l3PI6bc5sEUCZhNXXIDGn7R1uqBRusIum80cIA+NSwg2j1PQXpLF/r7gtBEW5WcgkZgtOULUTb/QkDElafV259NPFeGjmE7OC8Fvs2UN9D345vqkckP4xeJhFSYAYMKAir0tkmhr3+FxKaP1g0lxTxqHXrz8wHwoXPNIYMK7m7qfUDY05XmKJcgM5oWvEpXn97upWaCrQYFil1SNvq/YBrzKJj01r7+0ea/5LBdkT+wzT8qPSgTuERaXqTbTlG+TjWdFv56y28aPhZboCG1t7d7DI6yV6UgFaFEfWW6brT5ZFBs2vuu+zOkvMwjw8y/v7Il7yVSasSmj2OgoDfzjHpCfPyjrRuy+pVSAJhtQQZb3RyBBjTTMqaCcHe6nsM99rf8jfx6wYa0KOiJ4m8wf5gT81RAtOlVSAZlzx6bvlStabxIAYm+N7skf5g0hqbLftGWzvhlIiEVUqKCrqN2RJN5a82k9EYeNY7wY6X8Is2vB8Xbn2erXyoY6Eq/AxVsI+gq9XFFKAUZ0kOokK3p7R5e33mpbGi8dZhvpMmWpU8H1QRgVZpFI4lL/8m1utabLfQ5VgYZrUvp6v+SXyT7PbnuYWcdN8CkBNDfzorzXlMEI723vRRAEuk50gQQ3A6OtWv2/QiKS/Wnq+5dCmAEGs1/UEBYR4FuO/3thgCOa6yMB4CgPuURqmkkB8WYrwfHWt/Oy/zU1Gc8QoUwnJ8KYLMLkEI32KowLSvaPMyfOcLTowNjUuv5x1peVJkJNUEDtCUqnJdIY22lzxETGGPRw3iKMYRFwXL6TPDM/9Jn+Sg70IDkTAoCp/k7ZEqA+5e3v7nH+emLESlOZVEApWTo4kJPx3GPMi8wtjUTbSPx60RCKoREP+w+XhLu/gk2Wgd70zok8KmvRFlRYbJQyymrKYijrbWp4Nutbtgkrf6P+G6yVlSZsP4HQo4ntFk3BcWkPSVte5QKv2gQpL4RptUK4ARFJfvT/f90n9t8AUxtrvunwhZMYqzLoN6cHBxjraU2NVGASRLbbbBCl1fQITH2enT7H2J7inJ8cEzaPBCCvtGWr/M0P3Hpdeg5qcZlOQ0mtSzjrje3YI7wzc65uXGE1zlo61I9ggMDBdvVvrHWJ5Vtr2x2PlR7e9pk1Zzcoudq5w00uNZqSvLj+18AjVRtZgsymM3ivOeo9vmBXEnZL8paC0yYTPOITLldI/7qZ/iFIiEVNk2DCh36AXtN5KOCIDo4zrO9H7KShelHOsbyZXbXDoy1fkT3TcsmLHexukQ7XZk25MLZZPJT+VKYgKfC1S/KvJwK2h9c4CSBBhXq6RRs3sm6SnZUg57nXIuwTM0EbgaLAq5/BeotrTUBkGpdFIRPsP0M5qUcNFJbAIAFGlLXgUaVVWMjpV5KsNeCIoCa54yxfsvMTkbTDA+g0A5AI3izPZuQ2xQXaDQ4RqqFJlj+8I1kALdBKygBzIt0+4LcgEZwrPMbP7f21yurKSx9Nmxn5WIMqS9rvhMwB9HmOLZflOXoGzswfwcJqVARrJapNjEu+wQ8swVW1y/oT5eWj/czpDxLt+/SOOYmmL40V896S00q0CMCNYoWqq55tqZGLSrfiJS2omzG8aCYK0/lSKOhoEEF+hkeaZTq0fQRHGt7G0wzwZutv8OzwW9Q+Tc0PjXGNyIZVuW/eLtOcKylsdDSbr95wPEamKj8eeDAdTBvZTWz2Vsx239MehafAwsKMIDpi95PQnpjbdDPPWgEx9h/8ItMhr7tx2pKGoaa/DZffohqcVsEEHgFjXeOXe3kG2m+AUBE52eExn28JhYn/wTGpDfzOldUc6T7H6fnIa/tSMduj0hIhZGC9Gnt6AdtyRY89CnGt/Zef8qtZZhW8jyNFBBCcwKNaa3o/9NE5ExqUIz5Dfk6tbfaW/tlp11wTUXvKZrp1d3pdVymE4NpUE7MZ0LTYD6NGnE2jz4WERhw2T/K9G/1CEsdrmWkh1CAMtPf/glJcPp6BQ1wlBstWwB4aiba+jOQNJjn8gQ8e6awZNCg6HOu505uU4pv7LUnM2s36SFCOP8GvUfyBxrcPAWaTSCY4eg1Q2Jt2ZrMgmIdHek5CKtK7AE0KLDVoWCR8eKmZPLmfscirRDbV7anh1WnoFvDmLbIU3OvTOMYZ/+BjUuUac8L2QRQICEh3SMK0NtqgnnGexIfFX7G1E3MlGBIeZmuotPZ6l1v/h1MCxyAWBa5yN+whLnNRo4mVNBcY5E4nq/xL5RO9xZqW2t/euUgg3W74qz115sPBESZP9FymKtAAxIU/w6Kz2xrlwkEFAWNY6LqblMmwCDaivsq4p9NJGWyNfkZLIP4s1hmcm3C1omZqIzWjZnGmwIBvXe78uxBxrS2mQW+tS83lVk3eQojzi1oQNiuAM+/lCAGryZEo+UF0PjEIiATaPjrLd+LayRyc1Lq0XoHb2QxJwFIUKBKBF8FhEdDUIJvtLU2vD9aTMc92N9gHSBMiaYXqLaGXycSUiElJjSNqZC/kOylhPktMN34RZnfUCJeggyWXa5VIhyvhKPqUyYogsMPtJIoj4BxO8Bo3RAYm/5mTu6zVcqtQN9o8yG/SCnSymg+HRRjnU/v/xUvoHETfDCezgtOd79o82EmsKJMLNwXst15JJd5fE7uDUJTFa0M/q6RkBHIHO8G07V6B902+pD4tG+VcFM/PobRmUDFaGW1v+gzDfN4rVyChp/e+jb9G/qlXPAERGqBT59nhyZoGMwDRI4MAad6zcTUiKEkq9YH75QYe5IHvuFvtD6BXyYSUqEGDlI6u2KFYJKANrBU2MULDQQifPr4x9ue8XM7xW9TQduKmX0gRFTkdnhge2BcWoPc3CdESlGBO13RdhSTFdVmbvvpzRNq7XcLxfyABphhclM2o9aOtPfFvTAghaQ/OjbbQEvz25TsalwUHGuJhRV6aLwlhgLeOQogN2vqMwLEs5WnmspF+mxXQ2JT3y0w0DCYG/AGWOaTav+U52uYY2TQCIhOmSQi5c7S367Ds4IvI9Bgul5n79WGmvMUbTLnCTT0Zgscj18lElIhpUB9WoCc7KfFkE+hhLkG6k31FKFNhV4GJHW5gCXKNEM+NwguvyivpqkbdDU+Oic270wr8mjL4yK725WwV31TCnltV9rkggEN87ccKE2jc3I/tbdbmzMNKMq0WfG3BBnS5vDku9RF8Pe7e5wPBRktl2DsXtmR3iTYaI2DY0IT0gdwQLG9zZMbzYdraYTa5hU0fKNS3gGnPIyFN3Oei+j9+yvvgwIaUSkT3e9CCqmRYJ3/UpJVD4ECvhHm+DpH7VXlU7AFA9dcbwbGmfoGbLb8H1QM8MpGS8PgeEsj/xhTUE7Dt5GQkO4igfMyiNmRzVZvgFE9IuXvN/Y5hmYS2nrzx+7kNldBwlXqshohCVbfkFjoP55CstFiDAExqa/m9hlACEI4LBVyv4EPgq6ALVAiI9+gYbC0UUKPQQvLHjTSB0B0kn+UeZ7r2SFAICrlX3+jdTczWcWmdmT+CoN1D7s/Y+pU8NHU2Jy6VgDhGACZIEPqdO9aQC4d4caUQCjtwYEjOdtwVmjKRef3lCfQCIi2Hq+11frEm/ucvn5RZhNEPNU5YBuqfrcC9NbdwoTYCr82JKT7QbswWLZm21kv2ny2Rpy5gQcTRi83YJiSPNnL4ffAGMusHJgm/gFbfm61Dia0E5y+gXrzFbhnJaciL6DhG236gK3649KDqbAzUSH/z0saYbMyBW+zV+VlTJJJjUS7K1z0TXpeei9w/bRaMU4/qmUsAdAIMKT+KGkWf1MBfZJqFk8HGKxJ4O8IibW/W6CgwaKnzPEsjNdg7ZftuwFO/OjM0VMcNFhggJVqnK7ouEBj2ucskZFqTAGq+w40pI7xpUAaFJMaXvdc9sEEL29JewqSNIP0qb3wC0VCKkQE1WupgD3oDSyY8DWYY0L0vO+0R2GrZ/6FrZDZm911gw2WzhSETH7ZgEeIwdo+t88EGk6NOEuUH0tes3TJM2hEcNAAc0tofHpC9U3JJGRzqtde2zUTbrwNGgKYmurstWcq/kiBYJlfdMrfgUbrbMh0B59PDbryh208/BY0JNNVes8z/Hkp+ovZOavzkqcRYEwbDscERKcc9Gb6grGg92rwV+VpCJ8GaIRjMj17rPVJqlGw5Eg/g9mQeVzAAc8S+26/eyzjnezmMDTRNhRAhs7hwee83CMSEtJdJr8oy6defBdgTjhHV3x98rLiz45qQHVVvXmTX6aif1lKqevVtveP00glCgptPQn/WompfgF60xWRANgwz+YpoWnwlbJtEM/sNl33pG2FGmzPUkGaxIW0edP7RzJnWofG2FpAwABoFCxvI8aSSbDSVfhPStY5u/fY9BnZmo/yABpvHbnxv5DN5gtgSgqJT5tX14NvQ1XePktyn5/B9EOWOY1La0vv5y8Ah9AERwfld7hGjfj01eAD8YtI+R3Caj0uZAypLcHXA+9ESJxlFH6lSEiFiAKiTF95Ao0gozXOU/mQQIjC0Ztj6arYGBqf9oam0IkxBQXQFSfd76Cy4tcUErHmTyg4JWsBBwhwde0p32hLQ27asQCgtfuv1BubrqIDAw2WvXx1nHpOcdjnFzR47SkTMxlRdgbFmL+Vy4L4GyyNecY5rz0FNbXU54bQU78odzOrQGNqp0zjoDc/L4IJOGDGWBoVHGioak/ts3XxdRUltG4IiXFX4YUQVzq/M1VzkW0ZEbe50zKVz13yGdmcVyvB8apfpNnsx+f1UpDR0hbMZZJ2UYWOyTh/fco/LIQ3Ic345vbMc4+EhHSPiQqIJhA2qRIQf4Gt3VPznEBjWl8wrbgywfWmy7LQYcI31vokPe8RycxFV56psz2ZQ17akurvG2U6pGohSyCbWp3xDQULqYZySnKon4dS7QG8Au0NblpKJi9vd0xxCzJW5RbKedxSyoN4Ag0KckdFuGeLzNdNBxA8J5c5ocBlpNc+INXvuhVoSP1U8+RUqL+0JW2BIqxDNztezgwqp0tTgRsprn0rONHpl62maDB9xAoWxtmhSGSWHAl6rqmiQOPMTNoYnVs6J5uk8XZA1Bxks8sRcKxHCc/TuO2qciuAiM7XT9qanvNhuu0UvBs1YtIzzV+tJEcf8A1lGkO92UhBN0bRDpUSMbV2ZJ98iISEdJeJ2dINltFgMhGJeztCEtMaau0bwhoemTf5R6n9HlQ4GNIytXsFn4W2f8T8u1I6PCsYOaoFxacN9YvkMf1Q/A80B619X9+Z6kcFzTq5n4ZbEJluBsdZJ9fZ5g79rB6Z7CdqT/3rqSSHBBoH5YxwmWrvSA8Cvw2/Vor6umcCYqzdvY13SFxqJxE1tV1paiTTqzvTv2CFBA2WhJx0N4TILrD910y0/6ytaZjHMZ9UtDVLYiJrRGWwTuL9NORnYf+/GWi0TuE5O6J/iMHckgOweRxP6DQP8HRfr++52sGfFyc8VT3y0n8yjbExpa3w6WhpuH/7U+CsEee9nD4SEtI9phCD1ZeVppbMBZlWtHrr59ArwnOYbOYcBqgJ5T06yrxSLmme6V70af+lK97/gzpO2d039BkPjLaMBEED/g8QaAHCuZwVlKyDA42pU7PzzwTGpH5KBeQcT+Urctq5T1PIQ+kQg2l1aKxFswAhlDihY7MuKMZcP4ea4hP0fmcFx9je0tr+6rZrtej1VtZMuFrDo7aSqXMfHUNj6igKCCFus5mlS0C0Zb6iJVIwCwqKsc5peOKGR42NajLlgg3myZA1rlUbjHXu06e1o9rFApYgGmUCTXFGsCHtdfwakZCKMEHiXHCsdVl2IbLQLjXTcSKL2ntRQvM5T8IOCQkJCamIUaAxrSFdBR722CApn6ChdNGjK/ZJgYmWF3DEkZCQkIoggR3bX2+el5saQfkADaVeVHJwjAW1DiQkJKSiRsEx9u5+2TRIKmjQYJFQessfb2DEDBISElLRogCDeaMXAW8V/Sb+yTVo6E3nA6LNZ7wBR+1tad1xBpCQkJCKEPlHW2K1TUjW3TU2W6uHGq0dcg8aLIx0vii7PteTn8QvytwfZwAJCQmpCNHru+3jlQQ0Jb8iOMa67FXRdpOCxudKcl8uzVPLlO21t6R19Y82m9R9xYMM1ro4A0hISEhFiOocdlb3jU7Z6x9lusVafRqt3eTteQUNP71pubwPaz2qN4FWc9MvKiWjRoxjEI4+EhISUhGkgPBjpSARTSthraBAgxE0+TFan6gemfwwjjoSEhLSfUgFChpISEhISPc31Yixdhc9oj2Chr/e9JNGLsYKHD0kJCSkB4yCjbbPoGptJi0i0qxqAWvJWnI9yjQPRw8JCQnpAaPQWPObmXuCp/xb70hGvUzaiDH1Fd67wl1uPSjW1hFHDwkJCekBpJqJaSOrR6aYAvRmU2CUdYi2RpL6pV+0KQX6MwQaUxd5qqCLhISEhISEhISEhISEhISEhISEhISEhISEhISEhISEhISEhISEhISEhISEhISEhISEhISEhISEhISEhISEhISEhISEhISEhISEhISEhISEhISEhISEhISEhISEhISEhISEhISEhISEhISE5KL27ds/27p167rA8P97fQ9t2rQJhX9btGhRJbvjlP0L6tp3cwyU68r3L9+Lt/3ySzC2BX1OJCSk+5xAcFChsZEykZkKk7538z7atm3bQnUPh8V91M3uWLF/Uj6vP0w9BoKn5gS4BHj1hbHMzXXp/p2V55V+S1Kur1wb7kO5n4IacwEY+R47JCSkB4iEoAPBcV4IJkVg2XMqLAsINBShvVEIs6R7BBpJ9JqLZcGdE0GdVwEMGoRyHdXzMAYwlYFE+RtBAwkJ6Z6QtILdqICEIjQVgS0E1lQhZDbK28T2UAVwxLGh0ioaju2czd9JArSygJdyHWGuUYR5kqwJyYJPgGCSsuIXmhS7DgCDJ7OTAhrwr4ZQJdLY9FXGAP6VhPphBWyVe4Ft8j0rz60xB+eVZ5WuaZcBS74PT+cV86DMAbtHeF5xzDBl3KRnqSsBpTK3G2VzlTy38K88ftLvmvMtzim/F501tCyv84KEhFTISF7pKuABH7OsZai2K8LdLh1v1zJvCYHjMr1Iq/cklaBVm8eSZNAQgt8ubSMyoEi/d5YEbqjqOLv6uOxAQ5zb7kGgn5c1BPXzq8blsLdrC4FKxD1MFfstVo6Vrnve23llkJM4VGMM7JKPhGg803kJMOwa5+wsz6fyTPIYSmNvF/vZVXN2XvU+FagWhYSEdGdNQy3kj1cRSJI93SWAhDCQV70us46yClYJnvPKvvL5pb/PawltNWjA73BuITQ3qvYlKuEWqjK9HZZWtkTL7+AFNJJkoSz2CxWsjFmo2tQD96l1z1q+Ivm+JCBwCWzl3gBIvJ1XBQKhYrsLhGTNEs4h769oJCogzKSFSveZlB1oSAuG82Ie4NjO4v5bqOa+BZrJkJCKkKYhreYVU4RdFnAaNneXOUVa+XdWb5fOJ2sT5+W/FWHmDTSk7edV9v5hWqt8tRDT4KS8aBpS0IBdfT0t/4B4ds179qDt2VWAu1H1e2dv55U1EjXoaY2Bh/1l0MjiR1FpUh5Bw8O1mSnLy7zY8YtEQirkpBZIqhXmVA+gkSSBRqZ9pdWqXQrpzGTa0HL0egMNOcJIrEqnegCNjR40iyShJbQQv4XmBDTUPg3p/Fmc9WrQkLUcrXv2Mg+yVtBZbfLydl4t4JK1FGksO2tpRxqgkUk7ksFNC9hlM5syfuK+FksLjcWSZnFYnpecBD0gISHdY5Js50RyhKpt1x5BQxIAdpUDe7GGQLRr/Z0daGgIyvMaoJGk0nI6ywAmOcg1o6Gk1e952aeiuo4yNlOle1KDxnkhKJXtSeKe7dmARpZxV/mbzqvAKMt5PYBAqGoMDmuYszRBQ7qWXaXdTFW9O0liX9mcpgn0EiASad+N6ncGCQmpkJIQrFomjKlagkRrhalaEYNwWiw70iXhslG1gl2cE9AQ93hencMhnU9e4deVNR1JEyKy78ULaBC12UfZXxbSqlySviqnu2K+8XjPGuDdVz5WwxS4WAISzfN6CqFVLQxc95AdaKi0zixzq+EoP6zSNNTXPaw8m/y8CijezRBvJCSkfJJWFnIetJa6d/LDV5y7eX22ggrr9PScijlOJfRD70Q4aW7PK/uu7sQzezuvp+05nZf/B/nRv9N+Lov2AAAAAElFTkSuQmCC3aiAhCI0FYEtBNZUIWQ2ytvE9lAFcMSxodIqGo7tnM3fSQK0soCXch1hrlGEeZKsCcmCT4BgkrLiF5oUuw4AgyezkwIa8K+GUCXS2PRVxgD+lYT6YQVslXuBbfI9K8+tMQfnlWeVrmmXAUu+D0/nFfOgzAG7R3heccwwZdykZ6krAaUytxtlc5U8t/CvPH7S75rzLc4pvxedNbQsr/OChIRUyEhe6SrgAR+zrGWotivC3S4db9cybwmB4zK9SKv3JJWgVZvHkmTQEILfLm0jMqBIv3eWBG6o6ji7+rjsQEOc2+5BoJ+XNQT186vG5bC3awuBSsQ9TBX7LVaOla573tt5ZZCTOFRjDOySj4RoPNN5CTDsGufsLM+n8kzyGEpjbxf72VVzdl71PhWoFoWEhHRnTUMt5I9XEUiSPd0lgIQwkFe9LrOOsgpWCZ7zyr7y+aW/z2sJbTVowO9wbiE0N6r2JSrhFqoyvR2WVrZEy+/gBTSSZKEs9gsVrIxZqNrUA/epdc9aviL5viQgcAls5d4ASLydVwUCoWK7C4RkzRLOIe+vaCQqIMykhUr3mZQdaEgLhvNiHuDYzuL+W6jmvgWayZCQipCmIa3mFVOEXRZwGjZ3lzlFWvl3Vm+XzidrE+flvxVh5g00pO3nVfb+YVqrfLUQ0+CkvGgaUtCAXX09Lf+AeHbNe/ag7dlVgLtR9Xtnb+eVNRI16GmNgYf9ZdDI4kdRaVIeQcPDtZkpy8u82PGLREIq5KQWSKoV5lQPoJEkgUamfaXVql0K6cxk2tBy9HoDDTnCSKxKp3oAjY0eNIskoSW0EL+F5gQ01D4N6fxZnPVq0JC1HK179jIPsg==;" parent="1" vertex="1">
          <mxGeometry x="874.91" y="249.51000000000002" width="114.17" height="108.99" as="geometry" />
        </mxCell>
        <mxCell id="4l1OQndtO7_gk13cfOr1-4" style="edgeStyle=orthogonalEdgeStyle;rounded=0;orthogonalLoop=1;jettySize=auto;html=1;exitX=0.25;exitY=1;exitDx=0;exitDy=0;entryX=0.25;entryY=0;entryDx=0;entryDy=0;" edge="1" parent="1">
          <mxGeometry relative="1" as="geometry">
            <mxPoint x="903" y="171" as="sourcePoint" />
            <mxPoint x="905.4524999999999" y="249.51" as="targetPoint" />
          </mxGeometry>
        </mxCell>
        <mxCell id="cbM6A1yNYQYUW-RANY35-26" value="" style="rounded=0;whiteSpace=wrap;html=1;" parent="1" vertex="1">
          <mxGeometry x="871" y="70" width="120" height="101" as="geometry" />
        </mxCell>
        <mxCell id="4l1OQndtO7_gk13cfOr1-1" value="" style="shape=image;verticalLabelPosition=bottom;labelBackgroundColor=default;verticalAlign=top;aspect=fixed;imageAspect=0;image=data:image/png,iVBORw0KGgoAAAANSUhEUgAAAb4AAACiCAYAAAA+7qi9AAAACXBIWXMAABYlAAAWJQFJUiTwAAAAAXNSR0IArs4c6QAAAARnQU1BAACxjwv8YQUAABrZSURBVHgB7d1bchRXmgfw/ykxgP0y8gqcrMDSCkg9THdDdwR4BS4e7AG/IFZAaQVIL0C0HyhWgBxhy90xD5RWgFiBkhW0OmIGGxsq53yZp6RClOqa5+S5/H8RiYSupcyq8+X3nZvCisq7f8kxVBtQuI4ONgCV6Q+foCyP9PuH+PDHvvrhf45AwaquMdRt/e5X+jpn9TXW13eIAiUOUb4f8BoTUSgUllBu5+v47ep9KNU1gW7Wd+gGstxRT//RBwVDB7yuvsYPF7nG+p2Bvs4FiIg8tVDgOwt4nW3933UsjAEwBCbDe6iDXo6FVde4j6u/7andwQmIiDwzd+Arv7uxjTW5+18m4J3/YeVA/3OHmYFfVgt4n/w03uQQkZdmBr4qy3v3+TP97m00rUQfGO4wALZLB7xMPxWeNRPwzv/wYU9f3x0QEXliauCrGkSlXs7Xx7MC3TiyNObeWOm6B5tUeYTLv27x+hKRDy4MfM6C3tlvZGnMoUZL1/Ng8CMiT0wMfO6D3ke/vcD7919zeLwdVT+e0mVNqAyuMfgRkQc+CXztBr3xB8L+vyZZ7cdb7JEM1JNftkBE1JLOJx9Rqtd60BMKXd33dKwb7IegpUk/XnnvxiM5l+0HPaHy6vEQEbXko4zP9Pt42Cix/28ZzvvxFlEOt/T1HICIyLHTwOdNiXMq3UdUll+z/Dld1Y/X0TcwpdqAt/TNzJVfN9nfR0SunZU6fSlxTiVrgkr58+azus+Kxsk5Ke/eeKnP0Uu/g55QGX77fBtERI5VGV+d7ek+oKDojOHDcE/9/Z+7SNzqS8m15gRX3l5j1kdELpmMr9NFcFSGtbVH5b0bx9Viyomq/vZ3n70yk9BDCnpiHW8/64KIyKE68KnyGwRLSbb6LLXyp/TjmbLmM/9L1FOs4RaIiBxS5fc3N1DiFWIhy58Bz2MdAFOvnfqZbBUUT/9YObzGAUtE5EoH732Y29UgKfkp9TLG8mc1PeHd58dRBT0xVM0vgE5EdIFL6JQ5oqNkasYz3f/3EGW5FXo2Ecb0hBV01FcgInJEBz58qUudkVISAGX6Qz/E5c/MaFtZUOB2vNcIMrY4BxGRIx3doMaZRYyrlj/T5c/v/hxEibBaZkyWalMd6XtNoQyYgYjIERnV+QZJUEFMf6jKmuFOT1gW5/ERkTOXdFMrgyW+RDJU3f939+Z1n8qf/uye0IrXICJyRJc61SFS5NHuD6dlzTSDnj4BJfdeJCJnVL0xaeclktbO7g+tbgrrE87jIyKH6rU6792QXRlypM7R5rfltzc3sFY+SjbD+9ihenKQg4JWlqX0R3f1ISvx7Cml9uEJ/dgy/UZWp8r14+ImyGSWLNPZDshZ+VP9cHCEjmK/lvhQJr/IeKgk2OljWx9SMfqXPmTqTQ4PBmVJsNPHQ/PYZAH+HsBpM1Q724+PWd859suf5fc3ezrLTHmH+UJne9dAwTiX2eUXfNkdnVn14dh4ZocLHpt+XAqUvEun70nWx9LbGFWP/vzvG7d0T+gDG+VP9figp4Mfkg1+ZecOyHtzBrtW6MeW6zfXMSXYEZ330d0Ps74pZPHrq7/t2dg7LsnMT/enqqcHDHyeMtmTLJ6wTLCzmvGNBbsuFlz8gBkfic5H/ytLNkQXkQnl7z57ZWPyu2R++hZkD0kZsl/ZMxP6xUZ9dq2TYGcemzwueXw9cMUfWtIndz86+9jVd+P3QVOUR/qV+HXT5c9kMm5me97QgUSWLBxldTma0UjGt0pmdxFmfCQ6n3zk8uWefnpwCamp1EY9+rPhzW+rjDv6c18w22ufDiq3TfYk68H24FH/mH5cXX3IKFFmdmTFJ4FP7e6f6GdeYmW3JY0Wv26o/FlnkMPIM6Fyj5PVvSCZXgY/5UhnnVpqQWfiR69elrlVBWgOSrYOemYWv86wIvXkl30dHAaIU6H/Ps7bI4qQ6YcN4vU9MfBVWR/KB6AFqKyx8mesJc8SLHESRcIsYCDB7tlYaTqI8SGdiz4ReeZhTwN7/1WlwPjKzYfq6UEfRBQsE+ykD/YF6pG/Euy6CKw03Zn6WS5ltiR1tvffd39abiPZqtwcUdZXDrsgouCcW5pOgt0z1HM8g+2HnRr4dOYx0H/2c9CSlA6Al14sU/40g4ziOPfV9AUOaCEKhc/rsDahM/MrrlzZ5vSGFS29+PXQmxXuV1Bw+gKR/6YEu+jMDHyc3tAg1emZ0Z/dub68zrgHCBqnLxD56txqPVEHu3GzMz7B6Q0NUvX0h3nLn6U6RLg4fYHIQyazk/66JLdsmivwcXqDBWPlz3I7n1I3H/YRKk5fIPKVLFOXIVHzZXzg9AZrZix+XZcJA+xjrdfj7IOIyDNzB74KpzdYokz588bLieXPcvgjgsMBLUTkp4UCXzXYIrntcxySjYCl/HnvxqOPAuCwc4SQlBzQQkT+WizjE9y9wQG1/dHi12vDAuEodOTjgBYi8tbCgY/TG1xRp4tf6/Mdzo1GiR1me0Tks8UzPkjJ86AHTm9wREkAfIkwFBzQQkS+WyrwVcrY942jhb3H1yAi8tzSgS+OVUWoMTJ94YeDsAbhEFGSls/4RLVvHJEMduL0BSIKw0qBr943jqtzJE9x+gIRhWO1jE/Etm8cLapQj6vBTkREQVg58NXreDLrSxYzfiIKzOoZH2Qdz593OdAlQVyPk4gC1Ejgq3AdzwRxQAsRhecSGiLTG8p7N57r974BxU9hRz3hgJamyIagONsmZvT2xByiUEoVIC/IbuWor9OG+VA29umTc8eRvnYcB+GRxgJf5cqVbbz745Z+WqyDYlbg8luux7kkE+Ru6+Mr1BuAZnN+n7yRuZKFPmTHjgGDoRsm0HX1cR11sMsW+Hb5fl43jzQa+GSgS3n35p7OBh6C4iXrce4OeAe7AN3w5agbzS5W2wB0wxy3zc8t9Ju+Pp6zMW3WWLCTTVtzrGbSdZM1j/dju276b+uhOXJ+Gl8Yo9mMT8j0hne/S7kzA8VH6bLNEw5omZcJeHIjmMOOTB89OfTv6uu3OwyAqzEB774+tvVhq3qV6eORHOa6yY3LAHFoMvEpUFc5GtXc4Baj3r2B63hGazjkepxzkICnD1lcXI4cbnT1cax/7zNTTqUF6fMmwe4Y9c2Eqy6brj5eyvOF182NxgOf4DqekeIGszNJtqCPF3Ab8M7rog6A7HKYkwQcc6MiWVhbYxRy8MbFCSuBr1Kt48mRTBEpcPXXHuhCpqwp2cJt+KHHLGI2fX6ka+YV2rtROa+LOgPMQVZYC3z1Op7csDYaHNAylcmuJGPwbURzjroRzUCfMNetD/+uW4b6ujFrt8BexieqdTy5YW3wuELLVFKaQt0n5KsMDH6fMEGlB79J1v4I1CirgY8DXWLBFVouYoJeF/7LwOB3KpCgN7JtnmfUELsZHzjQJXhVtscBLZMEFPRGMtTBL+kFJvTfL/PpeghLl8GvOdYDX4XreAaM2d4kJmPoIjwZkO4CEybov0CYuuzza4aTwBd31qde638OESNmexMFViabROaqXUea5NplCFfPzDWkFbjJ+MSHzo+IS4H32FRPft5QTw5y3Zd5DdEN5Ok8B33E9JH1EL4caYohaDxkX+1q3AW+z/+jH9G8vkIHui31w8HpUjr19I3hFuIJfoV6+tMAdMqUyV6CqF0hl2u94Czw1Tu1Dxtfc60FddCbUAKMKviVGIDOC71MRvHYaHgx6KS4y/hE+OXOC4PeSDTBb1jGVppeiSktsW+FfHI/9RG6y3Ib+C4FPcBlZtAbiSL4dcoYsvMmcSh52qSb5g3qgWyvzfttd91I0OMozyU4DXzqsfSJBdnPN3fQGwk8+J1wNOcZs2ZiDvekcZVl/2RHjGvqHP2xL/SxaT4vA5EKUJMkyMkCHHLuv9BHpo9cHxvm/S/MdZBr8ADtjO7uMutbXPP78c2iSh0Qqg0ZQ7Fw0BuR7ynv/mULqiMDIjKE4zVonOu7amlAe7P2Z9Ofl5vII3Psy8d0I9gF+yJXIedUbjZ2zfmdyWyUKsfu2Kjfb+CGBL1t+DXSuMm5v1YqT+4D37B8rZ8poQS+pYPeSJDBr6x2GCCc9u3lcKPQx51VNiTV39vXb/oMgEuRG47uKhv5mu/tmoEnMvLSRVsnfX1zB2rb9OPowXNu+/gqwZQ6Vw56IwGWPd+ARnpwQxrdzaZ24TYBMKbpNbbtmTJmgQbIz9GHlEBdrHwkWV8XNLcWAl/rHcLzaSjojZjgxwW7w3ML9j03jW6jrw3TiEvjy4FK0+3oc2VlxK7JflwEPxfP02i0EfhCcGhjcEe1dJsKohEqQKP+MtsDB/Z149iFJSaYSubH4DfZnu3SnPn5tldByjnIZX4MfJP9J2wZlrGsXpOCHHYVqEcNWmWCn4z85HPvY4WtTG8C+T0F7OqC5sLAN9lG+e1/Nd4pXd79S6ZboRz+y0DCdvnojqsBCabsyZ02PrYFR8x1tn2Tw3LnnBj4LnLp0osqUDXEBL1A1nlkycTM3bN5HvpNDWSZl/59u/rNACT6TQ1kmZe53gPYs8Fy53xaCHyhrCquqkDVRPA7C3r6ZwZB2Sv1hiOHXW1lX8z6ajGefwl6Ic2Rbk0bGd+XCIZaOfiFF/Q0xRcP7O5Xd+g62xgxWUfqfX1tn/8B7MlBM7kPfKoTWKOqlg5+QQa9Wgay+Tzto117SFsf7bK5ADxvWufgNPDVwSPEGrRaOPgFHPTEuo3BPaHQ/STyt9t8ng7QrgHSNkC79mGPzUpFNFxnfDmCpeYOfoEHvZq6lCNdGexprcw2kni588iD81/A3vlf5wCX2dwGvjCG8k+hZga/KIKeWEt6aLTNbNeXieSpTmj35e+2uZNDBprKdcYXQRquLgx+0QS9isrL7TzVO8eYy5wjqe7A4cvfXcAe9vPN4Czwlfdu3I4jIAj1SfDT7+fxBD3j7WddpOkr2ONLiZEZX7tsPg6WOmdwty1RqbpQiIiS4HesA3px+v/Y1OXOXVCTfGl4C6TJlxsPm4+DgW8GJxlfXQKMtc9IZVEGvYoud0omm55rsMSXPdOQbuAr4IcC9gQ0V7odbkqdAWxMSBdQyvXu4zErQK3y6MaDC4a3yHrgq/vB1DegQCWb9UWt7SH9RG1ykPGpZ6CwKfUs4RGeFI8CRLAc+HSm0A1/7h5VfZi/fb4NIqIIWAt8Zk4b+4diofCwyW2aiFrAqgVV7GV81YAWlYHioVi2jkWiy1ox8FHFSuDjgJZYqby896fboGVl8EeSQcCjgJ/BnjegqexkfMHsNE6LW3uUwECXY1iiG94MfsiQJl+eu8w+W9R44KsGtEBloEipFAa6/Bv2sOFtVwY/ZLCnAE3VaODjgJZEKNyPfKCLzcnFviwgnOpCxhn8kMGeAjRVsxmfUveZ7SVhPfKBLjbX02Tga5cvf3cKC6F7q7HAZwa0cK5XMqJe0aWAPTYbvEX48jhc8+XvthaAlVKp7rwxt+YyPtV5BEpLvCu62Gw48rZHFpoBNhnS5MP5l6Bn6zEw6M2hkcBXD2gBh7knR0U50MWsY2mzXNT2ayVH2toud+awp/WpDCHMEW0m4+OAlnTJQBdmfYtqe45r6nNs2/7778OewZxfZzNAxh/4dLb3kANakraus74Yy9yHsKe1cpspc+ZI2+0Wz38Ou2XmAdrn/cCplQJfPX2hwwEtqVPoRjjQZQC72nrd9EAS9No6/13YUywwsMVmKT+H51bL+OoNZrkCAUVX7tYNyAB2G4f7rldxMb+PSwnW7rvO+hyc/8ECX2vzuX0Lnls68JXf3tzgepx0ppre0EVcfoQ90ui6ngvZA43I+Xd9s2Z7KcdFyvMF7MlMSddby2d8l8oXIBqnOrGt49mHXdLX56Tkpn9PF8z2ztvW58XJOdG/R4JsBrv2F/ha29MevK4ALRX4glqPs8QdcAkfV9Yjm94gjYPtVTAemXld1pgSG+fZTrbr4PzLa6IHu/q6PL/Ic7WAXbkJ9l5aOPCFtx7ncKCeHFyDwo4O1rYbMYpoHU/TkDyHfS9tlYZM0JMSG/viJ5Pz8tJW8DMZpYubjoWep+a5bXvOX8/X4LdMxvdNWNMXOrn8qx4f9FB+2NRPRRcNWcpiW8dzkfLRskaNb6ONhP55MlH+FdJdpWVecv5fNV121j9PAl4f9hVmMNaiBrBPgt+xb31+CwU+M32hh6Cc3cmpp/8o1JNfuig7W2D506J41vE0DcoAbkgj8WrV0Z7y/fro63elH56Z3vyk7PyigfMvZT654XBV9t/BcgZwI0N9YydHd1p2bZ67Ms9y21wLK6scLZbx1dMXwqI+XZRWPf2pLn9CPQADoB0dFVOf0rINyzKkUTg2jcRCL3rT4PZRZ3kcyLIcOefHiza6MjXCNOpSVpbD1SRuyfb6WI6Lasa4HPVIZrm5K00mOH6UqDeBlhs2aT/k/Fu5cVPzfmF574Z+ECrMkZxX3n6hdgcT+/dMn2WPUzMs+PDhgfr7P3cRAdOg5XBPnrcyyOY16pu08eexNAoZ6h0HbC58vKg7KzTGMMHbp9fjAPW5n9Qn9iXqc+8q0J236rlu63k9r5X+vossEviOg12a7EOpG+BfpjbApowrT4IM1JQTfdNx7aKbjpCYPgrb87BiEVvg85Vke9ewAtOv6XN1xkrgm6vUGdT0hUnWZq8kUPf/6fInpz80aR3vPotiRRfT18eBUeSTB1hdHwluXDsz8IU3fWESlc87sVo9PeijHG5x9GdT1HYs0xtQD1bglBjywZ6+GVu5j85Ma9hDYmZnfHX/V4bQLTCx+mz05/AauJvx6iKZ3mAaia9B1K4CzU6Il26gpG7opga++k49kkEfS+wbVwXAxz9vsvy5quimN7gc5WlLgfQUCH+HcglQWwuu0jJVilnf9IwvxOkLF1t6Oa2q/Hnl8ma9+gstJaJJ7ap+XbgeCt60O0hTE/1ibXqgn38FmidZX4FEXBj4zPSFuEZWrbBbuNrdP6lXf9HlT/b/LUFl5Xd/djWh1wUJHKFmDztLrvQRvMAz9h0bIxxFSGV8M8d10tE79/n1c9+XmY+/mJbxxbio7cqjDM/6/1j+XNja2sNYdm8wDUWIKwAdqbgqOQszf/8AYdmxfd3MJrYhZMRvcDanMtfHv83/i7GPydE9933b5uMbEwNf8NMXpqpGGeZYkZQ/zxa/pjlFtXuDCX6bCCfzK1AHa6qzm1Cu2wNXNyv690jJ0+s2TT/Grhw4m160bT7WP/elty76/yeBL47pCzPo/qamMg+WPxek8DCi6Q3jmZ/vgwMKNDwoImRj183n4FeVH00wcsYE2dBv6Aeot0bK5D9mAQp5v7rekzK+wHZfWIbK8PvnjZVyT8uf6MhdZAGaLq7dG6pGVB+SyfraWMjO3JuWBkUEy/OblgL1NWtlEFUEwa9AHfy65v/ytg8zbeOjwBfm7gtLKtHVf2+jma168tM+F7+eRzzTG8aZxkKWkCrgD5nonDPTm2zspkVes76cIwnErd+omOdzyGMZfsTZ0ne3zP8rH2d8qXV66yDfdPCrfuyTn3e5+ssMkZbTpbEy6ye2fbcsJZ0t06jTDKacKP21bb5mJTOvrpkvNyqm30yy4hDbsr4+ZCSnVJhOxrPn08AX1WT1RdgKfuOrvzD7m0Bnfff+dBuRGsv+XDcYBeqFfTdTnbKwLHPT0kXd0B/CnVHAy328ZufOy2sEwtw8DFCXOQfjnxvL+OLqd1mIpeBX/Wgufj3FWoxTZk6NNRijAGjzLn7UeF6zNdcrFRJ8JAjhLAO0cd1OzM/2NuCdZ87LBtxlgHKOCqzm+bm3FSX/VNMXVCfdwHeq3NVZmrV5LNz7b4JyeEffHPSRCNmsFPUGm9ex2v550ijI3beUb/rLlMbM9j829FdpyM0GsBto3skyIyTNROgcZ9ctw3Jkrplcr4Ecofe7njsvcr2+wurkOT1AfZ6Opp0js5O7/O7d8a8zE9nle/fNY9weTQcxr7/1OvB9f/OVzkhsPNFCc4j3+iT9cGB1iLMZRNRH/SJKXDnQNxtJzi0zL9zxYx2Tg+Hoznd0DFDvxcYBKy0wjen4Ncsu+NJi7DiK/XqNnZds7Jj2nB4dR+Zw9pxWOuht6KD3CilT+qQPOw/U058GcKi89zd9tzKUcl+GlJXDLZ31DUBE5EAHQ0Q7wGA2fXehsKMeH2y6DnrVbx9Nf6hWf0n57l0l/BwkItc6+nY71XLbPsoPm9XKKy2rV3/5sJns9AelboGIyBFV3vvrv3SDu0one2gKlJ07bWR48zCl5xdIq/x5ojPfL0BE5MCldIKelDXLPR8yvGn045NO3mvl3ZtdWdcSqff/ERE1TObxvUHsSvRx5f+u+R70xlWb38rqLyqJnZGDmRRLROHr6KBgdeh+yw51WXNLB5E7ancQ3OCRavL744Pt6Hd/KHEMIiJHOhjGuKyRjJAsH+h+o9zXvrxFJLD7g8vloYgocR1cKgeISVnuVWXNJ7/sIjKn0x+iW/5sOAARkSNm5Za/vkK9ikTIdFlz2JXsCAmoVn/pdLo6CIa+y8GhZOYgInKkXqR6WP6IcBVVP15V1kwj6AnT/xf+7u9ltXUIEZEzdca3fXsd7/44DmtqQz09AZff7oY4cKVpdQa49iKwzL3euYKIyCE1eqe8e7Nn5o35T7KEq28fMOB9Kqj5f7qvspq2QUTk0Fngq7K+32Wx6gz+kukJvRhGatoWQABktkdErVDj/9Hlshyq8xL+0f142GF2sBgzAGZbn7v78I3um0ypT5aI/KHOf6D8/uauPw0l+/Ga4N8GuDLHMr7pJkQUBjXpg+W9GzrrUznaVI32G+4wK2iOFwNg6m2geiAiasnkwNdufx/78Sxrrf+PQY+IPKAu+kRdHqv6+zK4wX48x5wGQAY9IvKEmvZJMzhCl8ZgsTTGfrw2OVkBhkGPiDyiZn1BVfb8/feelQEvnI/nDUsDYLze9JeI0jQz8I00XBZjP56nGguAslj41V97vKkhIt/MHfhEA40iA14gyrt/y6GGPf3udSyG15iIvLZQ4BsZ6xeSAJjN8S1sDANVB8AP3ek3O+q17qfdZz8tEYVgqcA3rvz25obOAnN0St1Aqkx/5Kt6I1i8QSn7rK3tM+CFr872L23oa1oPdBrqa7ymClz53wGDHRGF5P8Bsdy6kXi4GjAAAAAASUVORK5CYII=;clipPath=inset(0% 59.67% 0% 0%);" vertex="1" parent="1">
          <mxGeometry x="894.21" y="94.92000000000002" width="65.59" height="59.08" as="geometry" />
        </mxCell>
        <mxCell id="4l1OQndtO7_gk13cfOr1-6" value="Transformation" style="text;html=1;strokeColor=none;fillColor=none;align=center;verticalAlign=middle;whiteSpace=wrap;rounded=0;" vertex="1" parent="1">
          <mxGeometry x="898" y="30" width="70" height="30" as="geometry" />
        </mxCell>
        <mxCell id="4l1OQndtO7_gk13cfOr1-7" value="Database/Datawarehouse" style="text;html=1;strokeColor=none;fillColor=none;align=center;verticalAlign=middle;whiteSpace=wrap;rounded=0;" vertex="1" parent="1">
          <mxGeometry x="850" y="351" width="170" height="30" as="geometry" />
        </mxCell>
        <mxCell id="4l1OQndtO7_gk13cfOr1-9" value="" style="rounded=0;whiteSpace=wrap;html=1;" vertex="1" parent="1">
          <mxGeometry x="1170" y="154" width="120" height="189" as="geometry" />
        </mxCell>
        <mxCell id="4l1OQndtO7_gk13cfOr1-12" value="Visualisation" style="text;html=1;strokeColor=none;fillColor=none;align=center;verticalAlign=middle;whiteSpace=wrap;rounded=0;" vertex="1" parent="1">
          <mxGeometry x="1200" y="358.5" width="60" height="30" as="geometry" />
        </mxCell>
        <mxCell id="4l1OQndtO7_gk13cfOr1-13" value="" style="shape=image;verticalLabelPosition=bottom;labelBackgroundColor=default;verticalAlign=top;aspect=fixed;imageAspect=0;image=data:image/svg+xml,PHN2ZyB4bWxuczp4bGluaz0iaHR0cDovL3d3dy53My5vcmcvMTk5OS94bGluayIgeG1sbnM9Imh0dHA6Ly93d3cudzMub3JnLzIwMDAvc3ZnIiB4bWw6c3BhY2U9InByZXNlcnZlIiBzdHlsZT0iZW5hYmxlLWJhY2tncm91bmQ6bmV3IDAgMCAyNTAwIDIzMjUuNTsiIHZpZXdCb3g9IjAgMCAyNTAwIDIzMjUuNSIgeT0iMHB4IiB4PSIwcHgiIGlkPSJMYXllcl8xIiB2ZXJzaW9uPSIxLjEiPiYjeGE7PHN0eWxlIHR5cGU9InRleHQvY3NzIj4mI3hhOwkuc3Qwe2ZpbGw6IzY2OURGMzt9JiN4YTsJLnN0MXtmaWxsOiMxQTczRTg7fSYjeGE7PC9zdHlsZT4mI3hhOzxnPiYjeGE7CTxwYXRoIGQ9Ik0yMTg3LjcsMTY5MWgtOTA3LjhjLTIxOS41LDAtMzQyLjUsMTUzLjctMzQyLjUsMzE3LjJjMCwxNTAuOSwxMDQuMywzMTcuMiwzNDIuNSwzMTcuMmg5MDcuOEwyMTg3LjcsMTY5MXoiIGNsYXNzPSJzdDAiLz4mI3hhOwk8ZWxsaXBzZSByeT0iMzE3LjIiIHJ4PSIzMTIuMyIgY3k9IjIwMDcuNyIgY3g9IjIxODcuNyIgY2xhc3M9InN0MSIvPiYjeGE7CTxwYXRoIGQ9Ik0xMjUwLjMsODQ1LjJIMzQyLjVDMTIzLDg0NS4yLDAsOTk4LjksMCwxMTYyLjVjMCwxNTAuOSwxMDQuMywzMTcuMiwzNDIuNSwzMTcuMmg5MDcuOFY4NDUuMnoiIGNsYXNzPSJzdDAiLz4mI3hhOwk8ZWxsaXBzZSByeT0iMzE3LjIiIHJ4PSIzMTIuMyIgY3k9IjExNjIuNSIgY3g9IjEyNTAuMyIgY2xhc3M9InN0MSIvPiYjeGE7CTxwYXRoIGQ9Ik0yMTg3LjcsMGgtOTA3LjhjLTIxOS41LDAtMzQyLjUsMTUzLjctMzQyLjUsMzE3LjJjMCwxNTAuOSwxMDQuMywzMTcuMiwzNDIuNSwzMTcuMmg5MDcuOEwyMTg3LjcsMHoiIGNsYXNzPSJzdDAiLz4mI3hhOwk8ZWxsaXBzZSByeT0iMzE3LjIiIHJ4PSIzMTIuMyIgY3k9IjMxNy4yIiBjeD0iMjE4Ny43IiBjbGFzcz0ic3QxIi8+JiN4YTs8L2c+JiN4YTs8L3N2Zz4=;" vertex="1" parent="1">
          <mxGeometry x="1190" y="216.45" width="68.88" height="64.11" as="geometry" />
        </mxCell>
      </root>
    </mxGraphModel>
  </diagram>
</mxfile>
